SplineFontDB: 3.2
FontName: InconsolataLGC-Bold
FullName: Inconsolata LGC Bold
FamilyName: Inconsolata LGC
Weight: Bold
Copyright: Original Roman version created by Raph Levien using his own tools and FontForge. Copyright 2006 Raph Levien. Hellenisation of the Roman font, by Dimosthenis Kaponis, using FontForge. Hellenic glyphs Copyright 2010-2012 Dimosthenis Kaponis. Released under the SIL Open Font License, http://scripts.sil.org/OFL.\n\nCyrillic glyphs added by MihailJP, using FontForge. Cyrillic glyphs Copyright 2012 MihailJP. Released under the SIL Open Font License, http://scripts.sil.org/OFL.\n\nEmboldened by MihailJP.\n\nSome glyphs modified by Greg Omelaenko, using FontForge.
Version: 1.2
ItalicAngle: 0
UnderlinePosition: -152
UnderlineWidth: 51
Ascent: 840
Descent: 184
InvalidEm: 0
sfntRevision: 0x00013333
LayerCount: 2
Layer: 0 0 "Arri+AOgA-re" 1
Layer: 1 0 "Avant" 0
XUID: [1021 51 -2141088231 3830]
StyleMap: 0x0020
FSType: 8
OS2Version: 3
OS2_WeightWidthSlopeOnly: 0
OS2_UseTypoMetrics: 0
CreationTime: 1161020814
ModificationTime: 1778580442
PfmFamily: 17
TTFWeight: 700
TTFWidth: 5
LineGap: 205
VLineGap: 0
Panose: 2 11 8 9 3 0 3 0 0 0
OS2TypoAscent: 840
OS2TypoAOffset: 0
OS2TypoDescent: -184
OS2TypoDOffset: 0
OS2TypoLinegap: 0
OS2WinAscent: 1073
OS2WinAOffset: 0
OS2WinDescent: 213
OS2WinDOffset: 0
HheadAscent: 1073
HheadAOffset: 0
HheadDescent: -213
HheadDOffset: 0
OS2SubXSize: 665
OS2SubYSize: 716
OS2SubXOff: 0
OS2SubYOff: 143
OS2SupXSize: 665
OS2SupYSize: 716
OS2SupXOff: 0
OS2SupYOff: 491
OS2StrikeYSize: 51
OS2StrikeYPos: 265
OS2CapHeight: 739
OS2XHeight: 542
OS2Vendor: 'PfEd'
OS2CodePages: 6000009f.dfd70000
OS2UnicodeRanges: a00002af.0000797b.00000000.00000000
Lookup: 1 0 0 "'locl' Formes localis+AOkA-es g+AOkA-ographiquement dans Latin lookup 0" { "sous-table 'locl' Formes localis+AOkA-es g+AOkA-ographiquement dans Latin lookup 0"  } ['locl' ('latn' <'PLK ' > ) ]

StartChar: exclam
Encoding: 33 33 2
Width: 613
GlyphClass: 2
Flags: MW
HStem: -13 171<270.5 317.5> 773 20G<282.5 311>
VStem: 209 171<48.5 95.5> 221 151<667.5 692.5 654.5 699.5>
LayerCount: 2
Fore
SplineSet
294 158 m 0xe0
 341 158 380 119 380 72 c 0
 380 25 341 -13 294 -13 c 0
 247 -13 209 25 209 72 c 0
 209 119 247 158 294 158 c 0xe0
230 745 m 0
 243 776 269 793 296 793 c 0
 326 793 356 772 367 730 c 0
 369 722 372 707 372 678 c 0
 372 631 364 586 361 542 c 2
 339 247 l 1
 251 247 l 1
 232 542 l 2
 228 619 221 647 221 688 c 0xd0
 221 711 223 729 230 745 c 0
EndSplineSet
EndChar

StartChar: quotedbl
Encoding: 34 34 3
Width: 613
GlyphClass: 2
Flags: MW
HStem: 473 318<208 238.5 208 277 165 238.5 415 445.5 208 484 208 372>
VStem: 162 113<611 613 613 613> 369 113<611 613 613 613>
LayerCount: 2
Fore
SplineSet
430 791 m 0
 461 791 482 764 482 708 c 2
 482 595 l 1
 484 473 l 1
 372 473 l 1
 371 518 l 2
 368 565 371 566 369 611 c 2
 369 613 l 1
 370 615 l 2
 374 628 368 638 368 663 c 2
 368 716 l 2
 368 763 400 791 430 791 c 0
223 791 m 0
 254 791 275 764 275 708 c 2
 275 595 l 1
 277 473 l 1
 165 473 l 1
 164 518 l 2
 161 565 164 566 162 611 c 2
 162 613 l 1
 163 615 l 2
 167 628 161 638 161 663 c 2
 161 716 l 2
 161 763 193 791 223 791 c 0
EndSplineSet
EndChar

StartChar: numbersign
Encoding: 35 35 4
Width: 613
GlyphClass: 2
Flags: MW
HStem: 195 85<138 148> 197 101<239 249> 200 86<442 453> 450 87<40 46> 468 72<270 280> 724 20G<305 305>
LayerCount: 2
Fore
SplineSet
179 539 m 1x94
 202 740 l 1
 305 744 l 1
 280 540 l 1
 380 541 l 1
 403 734 l 1
 508 738 l 1
 484 543 l 1
 592 544 l 1
 582 456 l 1
 473 455 l 1
 453 286 l 1
 570 288 l 1
 561 202 l 1
 442 200 l 1x2c
 416 -14 l 1
 313 -19 l 1
 339 198 l 1
 239 197 l 1x44
 213 -14 l 1
 113 -18 l 1
 138 195 l 1
 23 193 l 1
 31 278 l 1
 148 280 l 1
 168 452 l 1
 40 450 l 1
 46 537 l 1
 179 539 l 1x94
370 469 m 1
 270 468 l 1
 249 298 l 1x4c
 349 299 l 1
 370 469 l 1
EndSplineSet
EndChar

StartChar: dollar
Encoding: 36 36 5
Width: 613
GlyphClass: 2
Flags: MW
HStem: 16 96<273 273> 615 86<273 273> 752 20G<273 376 376 376>
VStem: 89 109<529 554 529 567.5> 273 101<-55 16 16 16 112 303 451 604 702 733 733 734> 463 108<189.5 220>
LayerCount: 2
Fore
SplineSet
273 701 m 1
 273 772 l 1
 376 772 l 1
 380 763 l 2
 381 760 382 757 382 753 c 0
 382 739 374 734 374 734 c 1
 374 733 l 1
 374 702 l 1
 442 692 503 661 546 611 c 2
 554 602 l 1
 489 523 l 1
 479 525 l 2
 471 527 463 534 462 546 c 2
 462 551 l 2
 460 553 460 554 459 555 c 0
 440 578 412 595 374 604 c 1
 374 412 l 1
 399 404 421 396 443 387 c 0
 468 377 571 335 571 220 c 0
 571 133 505 41 374 19 c 1
 374 -55 l 1
 273 -55 l 1
 273 16 l 1
 193 24 123 55 70 110 c 2
 61 119 l 1
 127 207 l 1
 138 202 l 2
 155 195 153 177 153 177 c 1
 153 175 l 1
 181 146 223 121 273 112 c 1
 273 336 l 1
 254 342 236 349 217 358 c 0
 112 406 89 476 89 523 c 0
 89 612 167 683 273 701 c 1
412 287 m 0
 402 293 389 298 374 303 c 1
 374 108 l 1
 433 126 463 169 463 210 c 0
 463 230 456 263 412 287 c 0
255 461 m 0
 260 458 268 453 273 451 c 1
 273 615 l 1
 217 602 198 569 198 539 c 0
 198 519 207 489 255 461 c 0
EndSplineSet
EndChar

StartChar: percent
Encoding: 37 37 6
Width: 613
GlyphClass: 2
Flags: MW
HStem: -12 91<442 459 442 491> 0 21G<38 38 38 149> 219 92<442 457.5> 427 94<170 183 170 218> 659 94<167 179.5> 719 20G<465 580 580 580>
VStem: 29 102<559.5 622 559.5 637> 219 106<558 621> 302 101<120 179 120 194.5> 497 101<117.5 178.5>
LayerCount: 2
Fore
SplineSet
38 0 m 1x7640
 465 739 l 1
 580 739 l 1
 149 0 l 1
 38 0 l 1x7640
29 590 m 0
 29 684 95 753 176 753 c 0
 258 753 325 682 325 589 c 0x3b40
 325 498 259 427 177 427 c 0
 94 427 29 499 29 590 c 0
219 586 m 0
 219 656 185 659 174 659 c 0
 160 659 131 651 131 593 c 0
 131 526 164 521 176 521 c 0
 190 521 219 530 219 586 c 0
450 311 m 0
 532 311 598 241 598 150 c 0
 598 59 532 -12 450 -12 c 0
 368 -12 302 58 302 149 c 0xb2c0
 302 240 368 311 450 311 c 0
497 147 m 0
 497 210 465 219 450 219 c 0
 434 219 403 209 403 149 c 0
 403 91 433 79 451 79 c 0
 467 79 497 88 497 147 c 0
EndSplineSet
EndChar

StartChar: ampersand
Encoding: 38 38 7
Width: 613
GlyphClass: 2
Flags: MW
HStem: -12 107<225 277> 646 101<263.5 297>
VStem: 38 120<166.5 222.5 166.5 225.5> 103 113<561.5 596 561.5 629> 347 109<546 592.5>
LayerCount: 2
Fore
SplineSet
103 582 m 0xd8
 103 676 184 747 282 747 c 0
 379 747 456 676 456 580 c 0
 456 504 407 430 335 386 c 1
 446 236 l 1
 465 261 477 287 484 308 c 0
 485 310 485 311 485 312 c 0
 485 313 483 318 483 326 c 0
 483 336 487 344 493 349 c 2
 503 357 l 1
 601 291 l 1
 594 280 l 2
 569 237 541 194 510 154 c 1
 595 48 l 1
 500 -21 l 1
 436 80 l 1
 386 26 316 -12 238 -12 c 0
 123 -12 38 72 38 181 c 0xe8
 38 270 95 358 180 409 c 1
 139 459 103 519 103 582 c 0xd8
280 646 m 0
 247 646 216 618 216 574 c 0xd8
 216 549 226 513 276 447 c 1
 321 476 347 524 347 568 c 0
 347 617 314 646 280 646 c 0
394 122 m 1
 411 146 l 1
 411 100 l 1
 394 122 l 1
251 95 m 0
 305 95 356 142 376 163 c 1
 240 345 l 1
 188 306 158 248 158 197 c 0xe8
 158 136 199 95 251 95 c 0
EndSplineSet
EndChar

StartChar: quotesingle
Encoding: 39 39 8
Width: 613
GlyphClass: 2
Flags: MW
HStem: 473 318<319.5 351.5 319.5 399 268 351.5>
VStem: 265 131<611 613 613 613>
LayerCount: 2
Fore
SplineSet
335 791 m 0
 368 791 396 767 396 708 c 2
 396 595 l 1
 399 473 l 1
 268 473 l 1
 267 518 l 2
 263 565 267 566 265 611 c 2
 265 613 l 1
 266 615 l 2
 270 627 263 637 263 663 c 2
 263 716 l 2
 263 766 304 791 335 791 c 0
EndSplineSet
EndChar

StartChar: parenleft
Encoding: 40 40 9
Width: 613
GlyphClass: 2
Flags: MW
HStem: 775 20G<482 482>
VStem: 159 114<223 390 223 414>
LayerCount: 2
Fore
SplineSet
469 789 m 1
 482 795 l 1
 531 699 l 1
 519 692 l 2
 512 688 504 688 501 688 c 0
 493 688 490 689 489 689 c 2
 489 689 488 689 486 688 c 0
 352 612 273 470 273 310 c 0
 273 136 366 -28 523 -117 c 2
 536 -124 l 1
 482 -210 l 1
 469 -203 l 1
 276 -105 159 92 159 306 c 0
 159 522 279 708 469 789 c 1
EndSplineSet
EndChar

StartChar: parenright
Encoding: 41 41 10
Width: 613
GlyphClass: 2
Flags: MW
HStem: 775 20G<115 115>
VStem: 343 115<210 376.5>
LayerCount: 2
Fore
SplineSet
95 690 m 1
 84 696 l 1
 115 795 l 1
 131 788 l 2
 329 700 458 508 458 297 c 0
 458 84 327 -112 125 -205 c 1
 109 -213 l 1
 78 -115 l 1
 89 -109 l 2
 244 -29 343 126 343 294 c 0
 343 459 247 612 95 690 c 1
EndSplineSet
EndChar

StartChar: asterisk
Encoding: 42 42 11
Width: 613
GlyphClass: 2
Flags: W
LayerCount: 2
Fore
SplineSet
246 615 m 1
 377 615 l 1
 375 611 l 1
 372 594 369 592 368 581 c 2
 352 417 l 1
 530 498 l 1
 575 394 l 1
 377 349 l 1
 522 176 l 1
 432 116 l 1
 307 296 l 1
 177 115 l 1
 88 176 l 1
 237 349 l 1
 39 394 l 1
 82 503 l 1
 264 417 l 1
 246 615 l 1
EndSplineSet
EndChar

StartChar: plus
Encoding: 43 43 12
Width: 613
GlyphClass: 2
Flags: MW
HStem: 330 103<48 258 48 258 364 566>
VStem: 258 106<108 330 108 330 433 621>
LayerCount: 2
Fore
SplineSet
258 433 m 1
 258 621 l 1
 364 621 l 1
 364 433 l 1
 566 433 l 1
 566 330 l 1
 364 330 l 1
 364 108 l 1
 258 108 l 1
 258 330 l 1
 48 330 l 1
 48 433 l 1
 258 433 l 1
EndSplineSet
EndChar

StartChar: comma
Encoding: 44 44 13
Width: 613
GlyphClass: 2
Flags: MW
HStem: -205 327<248 316>
VStem: 268 120<-58 42>
LayerCount: 2
Fore
SplineSet
290 122 m 0
 342 122 388 76 388 8 c 0
 388 -52 342 -121 258 -195 c 1
 248 -205 l 1
 183 -157 l 1
 195 -147 l 2
 222 -126 241 -103 252 -87 c 0
 258 -79 268 -64 268 -52 c 0
 268 -39 258 -33 247 -27 c 0
 237 -20 207 -2 207 39 c 0
 207 83 242 122 290 122 c 0
EndSplineSet
EndChar

StartChar: hyphen
Encoding: 45 45 14
Width: 613
GlyphClass: 2
Flags: MW
HStem: 334 109<79 537 79 537>
LayerCount: 2
Fore
SplineSet
79 334 m 1
 79 443 l 1
 537 443 l 1
 537 334 l 1
 79 334 l 1
EndSplineSet
EndChar

StartChar: period
Encoding: 46 46 15
Width: 613
GlyphClass: 2
Flags: MW
HStem: -44 167<269.5 316.5>
VStem: 208 171<16 62>
LayerCount: 2
Fore
SplineSet
293 123 m 0
 340 123 379 85 379 39 c 0
 379 -7 340 -44 293 -44 c 0
 246 -44 208 -7 208 39 c 0
 208 85 246 123 293 123 c 0
EndSplineSet
EndChar

StartChar: slash
Encoding: 47 47 16
Width: 613
GlyphClass: 2
Flags: MW
HStem: 774 20G<450 450>
LayerCount: 2
Fore
SplineSet
163 -56 m 1
 66 -7 l 1
 450 794 l 1
 549 746 l 1
 163 -56 l 1
EndSplineSet
EndChar

StartChar: zero
Encoding: 48 48 17
Width: 613
GlyphClass: 2
Flags: MW
HStem: -13 106<296.5 339 296.5 369.5> 641 103<277.5 322.5>
VStem: 54 109<344 456.5 344 479.5> 452 107<261 384>
LayerCount: 2
Fore
SplineSet
54 364 m 0
 54 595 177 744 308 744 c 0
 435 744 559 603 559 357 c 0
 559 109 429 -13 310 -13 c 0
 180 -13 54 131 54 364 c 0
172 258 m 1
 406 562 l 1
 376 619 338 641 307 641 c 0
 248 641 163 550 163 363 c 0
 163 325 166 289 172 258 c 1
452 363 m 0
 452 405 448 443 443 476 c 1
 209 177 l 1
 240 119 280 93 313 93 c 0
 365 93 452 159 452 363 c 0
EndSplineSet
EndChar

StartChar: one
Encoding: 49 49 18
Width: 613
GlyphClass: 2
Flags: MW
HStem: -1 21G<267 381 267 267> 720 20G<304 381 381 381>
VStem: 267 114<-1 607 607 607>
LayerCount: 2
Fore
SplineSet
304 740 m 1
 381 740 l 1
 381 -1 l 1
 267 -1 l 1
 267 607 l 1
 125 566 l 1
 95 635 l 1
 304 740 l 1
EndSplineSet
EndChar

StartChar: two
Encoding: 50 50 19
Width: 613
GlyphClass: 2
Flags: MW
HStem: 0 103<220 503 503 504 220 547> 640 104<271 335.5>
VStem: 426 113<482.5 555>
LayerCount: 2
Fore
SplineSet
82 606 m 1
 89 617 l 2
 135 696 220 744 309 744 c 0
 438 744 539 650 539 532 c 0
 539 423 458 346 404 298 c 0
 354 254 278 190 220 103 c 1
 503 103 l 1
 504 103 l 2
 505 104 504 104 505 105 c 0
 506 106 518 119 536 113 c 2
 547 109 l 1
 547 0 l 1
 82 0 l 1
 82 68 l 1
 84 71 l 1
 147 190 217 265 302 338 c 0
 357 385 426 444 426 521 c 0
 426 589 371 640 300 640 c 0
 242 640 201 604 186 580 c 0
 184 577 186 568 175 552 c 2
 166 539 l 1
 82 606 l 1
EndSplineSet
EndChar

StartChar: three
Encoding: 51 51 20
Width: 613
GlyphClass: 2
Flags: MW
HStem: -12 105<255 325 255 361> 339 90<255 257 223 308.5> 637 105<269.5 324.5>
VStem: 404 109<523.5 567.5> 419 110<186.5 249 151 257.5>
LayerCount: 2
Fore
SplineSet
294 742 m 0xf0
 419 742 513 653 513 547 c 0xf0
 513 483 477 424 423 393 c 1
 489 357 529 288 529 210 c 0
 529 92 436 -12 286 -12 c 0
 208 -12 134 18 81 77 c 2
 72 87 l 1
 154 185 l 1
 166 173 l 2
 183 155 178 142 181 138 c 0
 185 133 224 93 286 93 c 0
 364 93 419 152 419 221 c 0xe8
 419 294 356 339 261 339 c 0
 249 339 237 338 225 336 c 2
 208 334 l 1
 208 428 l 1
 223 429 l 1
 291 429 323 440 334 445 c 0
 379 464 404 505 404 542 c 0
 404 593 359 637 290 637 c 0
 249 637 206 619 174 585 c 2
 163 573 l 1
 96 647 l 1
 105 658 l 2
 154 712 223 742 294 742 c 0xf0
EndSplineSet
EndChar

StartChar: four
Encoding: 52 52 21
Width: 613
GlyphClass: 2
Flags: MW
HStem: 0 21G<350 467 350 350> 189 104<178 350> 720 20G<374 467 467 467>
VStem: 351 116<293 557 557 557>
LayerCount: 2
Fore
SplineSet
52 269 m 1
 374 740 l 1
 467 740 l 1
 467 293 l 1
 562 293 l 1
 562 188 l 1
 467 188 l 1
 467 0 l 1
 350 0 l 1
 350 189 l 1
 52 189 l 1
 52 269 l 1
351 293 m 1
 351 557 l 1
 178 293 l 1
 351 293 l 1
EndSplineSet
EndChar

StartChar: five
Encoding: 53 53 22
Width: 613
GlyphClass: 2
Flags: MW
HStem: -13 103<270 339 270 373> 396 100<297.5 336.5> 634 105<220 526 220 220>
VStem: 438 116<192 295.5>
LayerCount: 2
Fore
SplineSet
95 353 m 1
 122 739 l 1
 526 739 l 1
 526 634 l 1
 220 634 l 1
 211 476 l 1
 246 489 280 496 315 496 c 0
 447 496 554 402 554 241 c 0
 554 78 441 -13 305 -13 c 0
 212 -13 125 30 73 107 c 2
 65 119 l 1
 160 190 l 1
 169 184 l 2
 187 171 182 150 182 150 c 2
 188 141 236 90 304 90 c 0
 374 90 438 141 438 243 c 0
 438 348 371 396 302 396 c 0
 256 396 209 373 176 332 c 2
 169 323 l 1
 95 353 l 1
EndSplineSet
EndChar

StartChar: six
Encoding: 54 54 23
Width: 613
GlyphClass: 2
Flags: MW
HStem: -12 104<288.5 350.5 288.5 382> 389 104<302.5 346> 643 105<329.5 373>
VStem: 75 115<226 372.5> 435 112<186.5 295.5>
LayerCount: 2
Fore
SplineSet
107 562 m 0
 154 691 256 748 351 748 c 0
 415 748 478 721 524 675 c 2
 534 665 l 1
 458 581 l 1
 447 589 l 2
 430 602 427 617 427 617 c 2
 424 620 395 643 351 643 c 0
 308 643 207 623 190 436 c 1
 226 472 276 493 329 493 c 0
 443 493 547 399 547 243 c 0
 547 88 443 -12 321 -12 c 0
 250 -12 179 22 133 89 c 0
 83 162 75 254 75 338 c 0
 75 407 80 491 107 562 c 0
435 238 m 0
 435 353 371 389 321 389 c 0
 275 389 223 357 191 305 c 0
 190 297 190 291 190 283 c 0
 190 169 253 92 324 92 c 0
 377 92 435 135 435 238 c 0
EndSplineSet
EndChar

StartChar: seven
Encoding: 55 55 24
Width: 613
GlyphClass: 2
Flags: MW
HStem: 0 21G<150 276 150 150> 630 109<88 538 88 397>
LayerCount: 2
Fore
SplineSet
88 630 m 1
 88 739 l 1
 538 739 l 1
 538 677 l 1
 536 674 l 1
 486 564 439 454 396 342 c 0
 354 233 315 122 279 10 c 2
 276 0 l 1
 150 0 l 1
 156 19 l 2
 200 146 248 272 298 397 c 0
 330 475 363 554 397 630 c 1
 88 630 l 1
EndSplineSet
EndChar

StartChar: eight
Encoding: 56 56 25
Width: 613
GlyphClass: 2
Flags: MW
HStem: -12 105<273.5 346 273.5 374.5> 648 101<281.5 339>
VStem: 66 116<179.5 233.5> 101 111<525.5 582.5 522 611.5> 413 111<532.5 579.5> 434 115<176 238>
LayerCount: 2
Fore
SplineSet
101 559 m 0xd0
 101 664 196 749 317 749 c 0
 433 749 524 669 524 566 c 0xd8
 524 499 484 434 423 395 c 1
 498 353 549 280 549 198 c 0
 549 80 443 -12 306 -12 c 0
 172 -12 66 78 66 193 c 0xe4
 66 274 120 349 198 393 c 1
 139 432 101 492 101 559 c 0xd0
434 207 m 0xe4
 434 269 381 328 293 358 c 1
 229 330 182 272 182 212 c 0
 182 147 237 93 310 93 c 0
 382 93 434 145 434 207 c 0xe4
413 553 m 0xd8
 413 606 368 648 310 648 c 0
 253 648 212 607 212 558 c 0
 212 486 299 439 326 427 c 1
 378 457 413 506 413 553 c 0xd8
EndSplineSet
EndChar

StartChar: nine
Encoding: 57 57 26
Width: 613
GlyphClass: 2
Flags: MW
HStem: -12 106<247.5 294 247.5 316.5> 253 103<274 319.5> 642 104<272.5 333.5>
VStem: 76 111<448 545.5 448 567> 429 116<319 519.5>
LayerCount: 2
Fore
SplineSet
512 163 m 0
 465 44 365 -12 268 -12 c 0
 202 -12 141 14 94 60 c 2
 83 70 l 1
 159 154 l 1
 170 147 l 2
 190 134 191 118 191 118 c 2
 195 115 225 94 270 94 c 0
 318 94 374 116 403 178 c 0
 409 192 423 228 429 305 c 1
 392 271 345 253 294 253 c 0
 177 253 76 349 76 494 c 0
 76 640 177 746 303 746 c 0
 386 746 477 697 518 582 c 0
 536 532 545 468 545 378 c 0
 545 260 525 197 512 163 c 0
187 497 m 0
 187 399 246 356 302 356 c 0
 348 356 397 385 427 432 c 1
 428 444 429 452 429 461 c 0
 429 578 366 642 301 642 c 0
 244 642 187 594 187 497 c 0
EndSplineSet
EndChar

StartChar: colon
Encoding: 58 58 27
Width: 613
GlyphClass: 2
Flags: MW
HStem: -44 167<269.5 316.5> 335 167<269.5 316.5>
VStem: 208 171<16 62 395 441>
LayerCount: 2
Fore
SplineSet
293 123 m 0
 340 123 379 85 379 39 c 0
 379 -7 340 -44 293 -44 c 0
 246 -44 208 -7 208 39 c 0
 208 85 246 123 293 123 c 0
293 502 m 0
 340 502 379 464 379 418 c 0
 379 372 340 335 293 335 c 0
 246 335 208 372 208 418 c 0
 208 464 246 502 293 502 c 0
EndSplineSet
EndChar

StartChar: semicolon
Encoding: 59 59 28
Width: 613
GlyphClass: 2
Flags: MW
HStem: -205 327<248 316> 335 167<269.5 316.5>
VStem: 208 171<395 441> 268 120<-58 42>
LayerCount: 2
Fore
SplineSet
293 502 m 0x60
 340 502 379 464 379 418 c 0
 379 372 340 335 293 335 c 0
 246 335 208 372 208 418 c 0
 208 464 246 502 293 502 c 0x60
290 122 m 0x90
 342 122 388 76 388 8 c 0
 388 -52 342 -121 258 -195 c 1
 248 -205 l 1
 183 -157 l 1
 195 -147 l 2
 222 -126 241 -103 252 -87 c 0
 258 -79 268 -64 268 -52 c 0
 268 -39 258 -33 247 -27 c 0
 237 -20 207 -2 207 39 c 0
 207 83 242 122 290 122 c 0x90
EndSplineSet
EndChar

StartChar: less
Encoding: 60 60 29
Width: 613
GlyphClass: 2
Flags: W
LayerCount: 2
Fore
SplineSet
569 566 m 1
 175 378 l 1
 572 168 l 1
 572 43 l 1
 36 342 l 1
 36 418 l 1
 569 685 l 1
 569 566 l 1
EndSplineSet
EndChar

StartChar: equal
Encoding: 61 61 30
Width: 613
GlyphClass: 2
Flags: MW
HStem: 202 103<48 566 48 566> 448 103<48 566 48 566>
LayerCount: 2
Fore
SplineSet
48 202 m 1
 48 305 l 1
 566 305 l 1
 566 202 l 1
 48 202 l 1
48 448 m 1
 48 551 l 1
 566 551 l 1
 566 448 l 1
 48 448 l 1
EndSplineSet
EndChar

StartChar: greater
Encoding: 62 62 31
Width: 613
GlyphClass: 2
Flags: W
LayerCount: 2
Fore
SplineSet
45 566 m 1
 45 685 l 1
 579 418 l 1
 579 342 l 1
 42 43 l 1
 42 168 l 1
 440 378 l 1
 45 566 l 1
EndSplineSet
EndChar

StartChar: question
Encoding: 63 63 32
Width: 613
GlyphClass: 2
Flags: MW
HStem: -15 167<296.5 343.5> 681 109<280.5 338>
VStem: 234 172<45 91> 263 109<242 253 242 280> 416 125<536.5 602>
LayerCount: 2
Fore
SplineSet
320 152 m 0xe8
 367 152 406 114 406 68 c 0
 406 22 367 -15 320 -15 c 0
 273 -15 234 22 234 68 c 0
 234 114 273 152 320 152 c 0xe8
66 648 m 1
 73 659 l 2
 128 743 221 790 315 790 c 0
 458 790 541 683 541 565 c 0
 541 445 455 395 418 362 c 0
 373 322 372 294 372 253 c 2
 372 242 l 1
 263 242 l 1
 263 253 l 2xd8
 263 307 268 355 323 416 c 0
 361 458 416 502 416 571 c 0
 416 633 369 681 307 681 c 0
 254 681 195 645 160 586 c 2
 150 570 l 1
 66 648 l 1
EndSplineSet
EndChar

StartChar: at
Encoding: 64 64 33
Width: 613
GlyphClass: 2
Flags: MW
HStem: -13 98<314 388.5 314 390.5> 182 97<364 391> 453 90<470 471 470 471 470 475> 656 95<283.5 366.5>
VStem: 32 99<269.5 475 269.5 505.5> 203 104<334 367.5 334 387> 475 103<192 216 216 216 431 442 192 453 192 453>
LayerCount: 2
Fore
SplineSet
547 46 m 1
 535 38 l 2
 483 5 421 -13 360 -13 c 0
 203 -13 32 101 32 373 c 0
 32 638 194 751 332 751 c 0
 424 751 510 701 550 614 c 0
 577 555 578 497 578 442 c 2
 578 192 l 1
 475 192 l 1
 475 216 l 1
 445 194 410 182 372 182 c 0
 278 182 203 258 203 352 c 0
 203 422 246 491 325 523 c 0
 376 543 425 543 470 543 c 2
 471 543 l 1
 463 608 404 656 329 656 c 0
 238 656 131 574 131 376 c 0
 131 163 261 85 367 85 c 0
 410 85 451 97 486 121 c 2
 500 131 l 1
 547 46 l 1
475 431 m 2
 475 453 l 1
 471 453 l 2
 429 453 383 452 348 428 c 0
 320 408 307 380 307 355 c 0
 307 313 342 279 386 279 c 0
 414 279 443 294 459 324 c 0
 473 352 475 389 475 431 c 2
EndSplineSet
EndChar

StartChar: A
Encoding: 65 65 34
Width: 613
GlyphClass: 2
Flags: MW
HStem: 0 20G 201 95<219 375 219 405 192 375>
LayerCount: 2
Fore
SplineSet
121 -1 m 1
 6 -1 l 1
 278 753 l 1
 309 753 l 1
 606 0 l 1
 487 0 l 1
 405 201 l 1
 192 201 l 1
 121 -1 l 1
219 296 m 1
 375 296 l 1
 294 516 l 1
 219 296 l 1
EndSplineSet
EndChar

StartChar: B
Encoding: 66 66 35
Width: 613
GlyphClass: 2
Flags: MW
HStem: 0 103<165 276> 348 101<165 265 265 270 165 265> 638 101<165 266 165 165>
VStem: 52 113<103 348 449 638> 424 115<526.5 559.5> 450 117<198.5 243.5>
LayerCount: 2
Fore
SplineSet
52 0 m 1xf4
 52 739 l 1
 278 739 l 2
 323 739 372 739 422 718 c 0
 497 687 539 621 539 551 c 0xf8
 539 488 504 430 450 397 c 1
 522 361 567 289 567 211 c 0
 567 132 520 58 435 23 c 0
 379 0 327 0 276 0 c 2
 52 0 l 1xf4
266 638 m 2
 165 638 l 1
 165 449 l 1
 265 449 l 2
 298 449 331 449 361 461 c 0
 402 478 424 510 424 543 c 0
 424 576 403 611 359 627 c 0
 330 638 298 638 266 638 c 2
270 348 m 2
 165 348 l 1
 165 103 l 1
 291 103 l 2
 323 103 351 104 380 116 c 0
 425 135 450 176 450 221 c 0xf4
 450 266 424 310 375 332 c 0
 342 347 307 348 270 348 c 2
EndSplineSet
EndChar

StartChar: C
Encoding: 67 67 36
Width: 613
GlyphClass: 2
Flags: MW
HStem: -12 102<296 370 296 386> 648 97<291 363>
VStem: 43 112<280 464.5 280 510.5>
LayerCount: 2
Fore
SplineSet
43 365 m 0
 43 656 217 745 340 745 c 0
 444 745 538 685 580 590 c 2
 586 576 l 1
 486 527 l 1
 479 532 l 2
 466 541 467 554 467 556 c 2
 467 565 l 2
 467 567 467 566 465 570 c 0
 438 617 389 648 337 648 c 0
 245 648 155 556 155 373 c 0
 155 187 248 90 344 90 c 0
 396 90 449 121 481 173 c 2
 490 186 l 1
 577 130 l 1
 569 117 l 2
 520 37 433 -12 339 -12 c 0
 208 -12 43 84 43 365 c 0
EndSplineSet
EndChar

StartChar: D
Encoding: 68 68 37
Width: 613
GlyphClass: 2
Flags: MW
HStem: -1 96<168 228 228 232> 638 101<168 242 168 168>
VStem: 58 110<95 638 95 739 95 739> 457 115<295 409.5>
LayerCount: 2
Fore
SplineSet
58 -1 m 1
 58 739 l 1
 247 739 l 2
 313 739 370 735 427 699 c 0
 529 636 572 510 572 371 c 0
 572 213 512 85 399 29 c 0
 344 2 291 -1 232 -1 c 2
 58 -1 l 1
242 638 m 2
 168 638 l 1
 168 95 l 1
 228 95 l 2
 274 95 316 97 358 124 c 0
 412 158 457 230 457 360 c 0
 457 459 434 554 371 603 c 0
 329 636 288 638 242 638 c 2
EndSplineSet
EndChar

StartChar: E
Encoding: 69 69 38
Width: 613
GlyphClass: 2
Flags: MW
HStem: 0 104<174 546 174 546> 333 106<174 483 174 483> 636 104<174 549 174 174>
VStem: 65 109<104 333 439 636>
LayerCount: 2
Fore
SplineSet
65 0 m 1
 65 740 l 1
 549 740 l 1
 549 636 l 1
 174 636 l 1
 174 439 l 1
 483 439 l 1
 483 333 l 1
 174 333 l 1
 174 104 l 1
 546 104 l 1
 546 0 l 1
 65 0 l 1
EndSplineSet
EndChar

StartChar: F
Encoding: 70 70 39
Width: 613
GlyphClass: 2
Flags: MW
HStem: 0 21G<87 87 87 202> 348 103<202 478 202 478> 637 103<202 544 202 202>
VStem: 87 115<0 348 451 637>
LayerCount: 2
Fore
SplineSet
87 0 m 1
 87 740 l 1
 544 740 l 1
 544 637 l 1
 202 637 l 1
 202 451 l 1
 478 451 l 1
 478 348 l 1
 202 348 l 1
 202 0 l 1
 87 0 l 1
EndSplineSet
EndChar

StartChar: G
Encoding: 71 71 40
Width: 613
GlyphClass: 2
Flags: MW
HStem: -11 103<324 365 324 375> 267 103<330 464 330 571> 643 104<310.5 369>
VStem: 38 113<341.5 410 341.5 521> 464 107<127 267 267 267>
LayerCount: 2
Fore
SplineSet
38 361 m 0
 38 681 234 747 339 747 c 0
 435 747 522 697 567 615 c 2
 573 605 l 1
 498 528 l 1
 487 535 l 2
 473 544 469 559 466 565 c 0
 446 609 399 643 339 643 c 0
 282 643 222 614 186 551 c 0
 159 503 151 442 151 378 c 0
 151 305 160 211 217 149 c 0
 254 109 302 92 346 92 c 0
 384 92 428 105 464 127 c 1
 464 267 l 1
 330 267 l 1
 330 370 l 1
 571 370 l 1
 571 70 l 1
 565 65 l 1
 493 14 411 -11 339 -11 c 0
 201 -11 38 85 38 361 c 0
EndSplineSet
EndChar

StartChar: H
Encoding: 72 72 41
Width: 613
GlyphClass: 2
Flags: MW
HStem: 0 21G<59 59 59 176> 337 101<176 434 176 435> 719 20G<59 176 176 176 435 549 549 549>
VStem: 59 117<0 337 438 697> 59 125<709 721 709 739 709 739> 434 115<-1 337 337 337> 435 122<709 722 709 739 709 739>
LayerCount: 2
Fore
SplineSet
59 0 m 1xf4
 59 739 l 1
 176 739 l 1xf4
 181 731 l 2
 183 727 184 723 184 719 c 0xe8
 184 699 176 701 176 697 c 2
 176 438 l 1
 435 438 l 1
 435 739 l 1xf2
 549 739 l 1xe4
 554 732 l 2
 556 728 557 724 557 720 c 0xe2
 557 698 549 701 549 699 c 2
 549 -1 l 1
 434 -1 l 1
 434 337 l 1
 176 337 l 1
 176 0 l 1
 59 0 l 1xf4
EndSplineSet
EndChar

StartChar: I
Encoding: 73 73 42
Width: 613
GlyphClass: 2
Flags: MW
HStem: -1 99<350 504 350 504> 639 100<99 497 99 237 350 350 350 497>
VStem: 237 113<99 639 98 639>
LayerCount: 2
Fore
SplineSet
99 639 m 1
 99 739 l 1
 497 739 l 1
 497 639 l 1
 350 639 l 1
 350 98 l 1
 504 98 l 1
 504 -1 l 1
 91 -1 l 1
 91 99 l 1
 237 99 l 1
 237 639 l 1
 99 639 l 1
EndSplineSet
EndChar

StartChar: J
Encoding: 74 74 43
Width: 613
GlyphClass: 2
Flags: MW
HStem: -13 104<218 258 218 279> 639 100<199 567 199 341 454 454 454 567>
VStem: 341 113<244 251 251 639>
LayerCount: 2
Fore
SplineSet
199 639 m 1
 199 739 l 1
 567 739 l 1
 567 639 l 1
 454 639 l 1
 454 251 l 2
 454 200 454 143 423 88 c 0
 385 22 317 -13 241 -13 c 0
 172 -13 104 18 57 74 c 2
 49 84 l 1
 122 173 l 1
 134 163 l 2
 145 153 144 139 144 139 c 1
 153 130 193 91 243 91 c 0
 273 91 300 105 317 129 c 0
 340 161 341 203 341 244 c 2
 341 639 l 1
 199 639 l 1
EndSplineSet
EndChar

StartChar: K
Encoding: 75 75 44
Width: 613
GlyphClass: 2
Flags: MW
HStem: 0 21G<45 45 45 164> 720 20G<45 173 173 173>
VStem: 45 119<0 316 423 694 694 697>
LayerCount: 2
Fore
SplineSet
45 0 m 1
 45 740 l 1
 173 740 l 1
 175 727 l 2
 177 711 167 701 165 698 c 2
 164 697 l 1
 164 694 l 1
 164 423 l 1
 452 747 l 1
 461 745 l 2
 480 740 499 739 519 739 c 2
 584 739 l 1
 290 417 l 1
 599 -1 l 1
 569 -1 l 2
 511 -1 465 -5 465 -5 c 1
 456 -6 l 1
 205 360 l 1
 164 316 l 1
 164 0 l 1
 45 0 l 1
EndSplineSet
EndChar

StartChar: L
Encoding: 76 76 45
Width: 613
GlyphClass: 2
Flags: MW
HStem: -1 102<190 547 190 547> 719 20G<74 199 199 199>
VStem: 74 116<101 686 101 739 101 739>
LayerCount: 2
Fore
SplineSet
74 -1 m 1
 74 739 l 1
 199 739 l 1
 201 726 l 2
 203 713 197 702 195 699 c 0
 191 692 190 694 190 686 c 2
 190 101 l 1
 547 101 l 1
 547 -1 l 1
 74 -1 l 1
EndSplineSet
EndChar

StartChar: M
Encoding: 77 77 46
Width: 613
GlyphClass: 2
Flags: MW
HStem: -1 21G<43 43 43 152 462 462 462 571> 719 20G<43 133 133 133>
VStem: 43 109<-1 505 -1 739> 462 109<-1 512 512 512>
LayerCount: 2
Fore
SplineSet
43 -1 m 1
 43 739 l 1
 133 739 l 1
 307 396 l 1
 484 740 l 1
 571 740 l 1
 571 -1 l 1
 462 -1 l 1
 462 512 l 1
 327 260 l 1
 276 260 l 1
 152 505 l 1
 152 -1 l 1
 43 -1 l 1
EndSplineSet
EndChar

StartChar: N
Encoding: 78 78 47
Width: 613
GlyphClass: 2
Flags: MW
HStem: 0 21G<54 165 54 54> 719 21G
VStem: 54 111<0 538> 445 111<234 695 -1 740 -1 740>
LayerCount: 2
Fore
SplineSet
165 0 m 1
 54 0 l 1
 54 739 l 1
 159 739 l 1
 445 234 l 1
 445 740 l 1
 562 740 l 1
 564 727 l 2
 566 715 560 706 559 704 c 0
 556 698 556 700 556 695 c 2
 556 -1 l 1
 466 -1 l 1
 165 538 l 1
 165 0 l 1
EndSplineSet
EndChar

StartChar: O
Encoding: 79 79 48
Width: 613
GlyphClass: 2
Flags: MW
HStem: -11 111<276 334 276 355> 639 109<274.5 331>
VStem: 30 112<271.5 483 271.5 514> 471 114<336.5 387.5>
LayerCount: 2
Fore
SplineSet
538 606 m 0
 580 526 585 435 585 368 c 0
 585 305 580 214 539 134 c 0
 488 35 398 -11 312 -11 c 0
 189 -11 30 86 30 371 c 0
 30 657 192 748 311 748 c 0
 397 748 487 702 538 606 c 0
443 538 m 0
 411 614 354 639 308 639 c 0
 241 639 142 585 142 381 c 0
 142 162 240 100 312 100 c 0
 356 100 408 124 440 187 c 0
 468 244 471 313 471 358 c 0
 471 417 467 482 443 538 c 0
EndSplineSet
EndChar

StartChar: P
Encoding: 80 80 49
Width: 613
GlyphClass: 2
Flags: MW
HStem: 0 21G<65 65 65 181> 311 104<181 311 181 181> 631 108<181 305 181 181>
VStem: 65 116<0 311> 451 115<500 540>
LayerCount: 2
Fore
SplineSet
305 631 m 2
 181 631 l 1
 180 415 l 1
 314 415 l 2
 342 415 369 416 394 428 c 0
 431 445 451 480 451 520 c 0
 451 560 429 599 389 617 c 0
 362 630 336 631 305 631 c 2
65 0 m 1
 65 739 l 1
 305 739 l 2
 353 739 402 738 453 713 c 0
 528 676 566 601 566 524 c 0
 566 447 528 373 453 336 c 0
 404 312 357 311 311 311 c 2
 181 311 l 1
 181 0 l 1
 65 0 l 1
EndSplineSet
EndChar

StartChar: Q
Encoding: 81 81 50
Width: 613
GlyphClass: 2
Flags: MW
HStem: -172 112<441 550 534 547> 641 107<272.5 330>
VStem: 30 111<272.5 482.5 272.5 514> 474 111<335 386.5>
LayerCount: 2
Fore
SplineSet
446 539 m 0
 412 616 353 641 307 641 c 0
 238 641 141 583 141 382 c 0
 141 163 238 96 312 96 c 0
 365 96 474 130 474 357 c 0
 474 416 470 482 446 539 c 0
539 604 m 0
 580 525 585 435 585 367 c 0
 585 303 580 213 539 134 c 0
 499 56 434 11 367 -5 c 1
 370 -39 381 -67 438 -67 c 0
 463 -67 495 -62 534 -60 c 2
 550 -60 l 1
 547 -172 l 1
 465 -172 l 2
 417 -172 378 -170 342 -152 c 0
 285 -124 264 -70 263 -6 c 1
 149 17 30 123 30 371 c 0
 30 657 191 748 311 748 c 0
 398 748 488 701 539 604 c 0
EndSplineSet
EndChar

StartChar: R
Encoding: 82 82 51
Width: 613
GlyphClass: 2
Flags: MW
HStem: 0 21G<61 61 61 176 458 458 458 586> 311 104<176 295 176 304> 631 108<176 295 176 176>
VStem: 61 115<0 311 0 415 415 631> 440 116<500.5 540>
LayerCount: 2
Fore
SplineSet
61 0 m 1
 61 739 l 1
 295 739 l 2
 343 739 393 739 443 714 c 0
 517 678 556 606 556 530 c 0
 556 436 498 354 412 323 c 1
 586 0 l 1
 458 0 l 1
 295 311 l 1
 176 311 l 1
 176 0 l 1
 61 0 l 1
295 631 m 2
 176 631 l 1
 176 415 l 1
 304 415 l 2
 333 415 358 415 383 427 c 0
 420 444 440 481 440 520 c 0
 440 560 419 598 379 617 c 0
 352 629 326 631 295 631 c 2
EndSplineSet
EndChar

StartChar: S
Encoding: 83 83 52
Width: 613
GlyphClass: 2
Flags: MW
HStem: -12 105<268 356 268 398.5> 547 21G<480 480> 644 99<276 347>
VStem: 81 116<543 577.5 543 601> 452 114<180.5 220.5>
LayerCount: 2
Fore
SplineSet
538 646 m 2
 546 637 l 1
 480 547 l 1
 470 551 l 2
 462 553 453 561 453 574 c 0
 453 576 452 578 452 578 c 1
 425 616 379 644 315 644 c 0
 237 644 197 600 197 555 c 0
 197 531 206 495 264 463 c 0
 328 427 434 407 503 345 c 0
 553 300 566 246 566 206 c 0
 566 110 493 -12 304 -12 c 0
 209 -12 121 21 60 88 c 2
 53 96 l 1
 115 204 l 1
 128 197 l 2
 143 189 142 173 142 172 c 2
 142 169 l 1
 172 131 230 93 306 93 c 0
 406 93 452 154 452 207 c 0
 452 234 442 266 398 292 c 0
 346 323 237 347 165 398 c 0
 99 444 81 503 81 548 c 0
 81 654 181 743 321 743 c 0
 406 743 485 709 538 646 c 2
EndSplineSet
EndChar

StartChar: T
Encoding: 84 84 53
Width: 613
GlyphClass: 2
Flags: MW
HStem: -1 21G<242 356 242 242> 635 105<32 574 32 242 356 356 356 574>
VStem: 242 114<-1 635 -1 635>
LayerCount: 2
Fore
SplineSet
32 635 m 1
 32 740 l 1
 574 740 l 1
 574 635 l 1
 356 635 l 1
 356 -1 l 1
 242 -1 l 1
 242 635 l 1
 32 635 l 1
EndSplineSet
EndChar

StartChar: U
Encoding: 85 85 54
Width: 613
GlyphClass: 2
Flags: MW
HStem: -13 101<283.5 336 283.5 354> 719 20G<54 173 173 173 455 564 564 564>
VStem: 54 113<259 261 261 688> 54 125<712.5 721 712.5 739 712.5 739> 455 109<264 739>
LayerCount: 2
Fore
SplineSet
54 259 m 2xe8
 54 739 l 1xe8
 173 739 l 1
 177 730 l 2
 179 726 179 723 179 719 c 0xd8
 179 706 171 696 169 694 c 0
 167 691 167 692 167 688 c 2
 167 261 l 2
 167 226 168 194 183 163 c 0
 207 114 257 88 310 88 c 0
 362 88 412 113 437 162 c 0
 453 195 455 228 455 264 c 2
 455 739 l 1
 564 739 l 1
 564 263 l 2
 564 211 563 158 533 105 c 0
 488 25 399 -13 309 -13 c 0
 217 -13 129 26 85 105 c 0
 56 157 54 209 54 259 c 2xe8
EndSplineSet
EndChar

StartChar: V
Encoding: 86 86 55
Width: 613
GlyphClass: 2
Flags: MW
HStem: -5 21G<281 281 281 341> 720 20G<19 138 138 138>
LayerCount: 2
Fore
SplineSet
281 -5 m 1
 19 740 l 1
 138 740 l 1
 316 206 l 1
 484 739 l 1
 599 739 l 1
 341 -5 l 1
 281 -5 l 1
EndSplineSet
EndChar

StartChar: W
Encoding: 87 87 56
Width: 613
GlyphClass: 2
Flags: MW
HStem: -5 21G<136 136 136 195 427 427 427 485> 719 20G<13 121 121 121 506 607 607 607>
VStem: 136 59<-5 -5> 427 58<-5 -5> 506 101<739 739>
LayerCount: 2
Fore
SplineSet
136 -5 m 1
 13 739 l 1
 121 739 l 1
 191 298 l 1
 294 685 l 1
 344 685 l 1
 447 300 l 1
 506 739 l 1
 607 739 l 1
 485 -5 l 1
 427 -5 l 1
 312 438 l 1
 195 -5 l 1
 136 -5 l 1
EndSplineSet
EndChar

StartChar: X
Encoding: 88 88 57
Width: 613
GlyphClass: 2
Flags: MW
HStem: 0 21G<33 159 33 33 463 591 463 463> 720 20G<37 161 161 161 451 568 568 568>
LayerCount: 2
Fore
SplineSet
307 476 m 1
 451 740 l 1
 568 740 l 1
 373 379 l 1
 591 0 l 1
 463 0 l 1
 308 277 l 1
 159 0 l 1
 33 0 l 1
 243 377 l 1
 37 740 l 1
 161 740 l 1
 307 476 l 1
EndSplineSet
EndChar

StartChar: Y
Encoding: 89 89 58
Width: 613
GlyphClass: 2
Flags: MW
HStem: 0 21G<256 377 256 256> 720 20G<19 148 148 148>
VStem: 256 121<0 291 291 291>
LayerCount: 2
Fore
SplineSet
256 291 m 1
 19 740 l 1
 148 740 l 1
 319 401 l 1
 473 739 l 1
 596 739 l 1
 377 292 l 1
 377 0 l 1
 256 0 l 1
 256 291 l 1
EndSplineSet
EndChar

StartChar: Z
Encoding: 90 90 59
Width: 613
GlyphClass: 2
Flags: MW
HStem: -1 104<201 523 523 527 201 574> -1 112<555 574 555 574> 634 105<69 556 69 415>
LayerCount: 2
Fore
SplineSet
69 634 m 1xa0
 69 739 l 1
 556 739 l 1
 555 665 l 1
 201 103 l 1
 523 103 l 2xa0
 531 103 536 111 555 111 c 2
 574 111 l 1
 574 -1 l 1x60
 54 -1 l 1
 54 73 l 1
 415 634 l 1
 69 634 l 1xa0
EndSplineSet
EndChar

StartChar: bracketleft
Encoding: 91 91 60
Width: 613
GlyphClass: 2
Flags: MW
HStem: -105 98<257 521 257 521> 693 102<257 520 257 257>
VStem: 151 106<-7 693 -7 795 -7 795>
LayerCount: 2
Fore
SplineSet
151 -105 m 1
 151 795 l 1
 520 795 l 1
 520 693 l 1
 257 693 l 1
 257 -7 l 1
 521 -7 l 1
 521 -105 l 1
 151 -105 l 1
EndSplineSet
EndChar

StartChar: backslash
Encoding: 92 92 61
Width: 613
GlyphClass: 2
Flags: MW
HStem: 774 20G<164 164>
LayerCount: 2
Fore
SplineSet
164 794 m 1
 549 -7 l 1
 451 -56 l 1
 66 746 l 1
 164 794 l 1
EndSplineSet
EndChar

StartChar: bracketright
Encoding: 93 93 62
Width: 613
GlyphClass: 2
Flags: MW
HStem: -105 98<93 357 93 464 93 357> 693 102<94 357 94 464>
VStem: 357 107<-7 693 693 693>
LayerCount: 2
Fore
SplineSet
94 795 m 1
 464 795 l 1
 464 -105 l 1
 93 -105 l 1
 93 -7 l 1
 357 -7 l 1
 357 693 l 1
 94 693 l 1
 94 795 l 1
EndSplineSet
EndChar

StartChar: asciicircum
Encoding: 94 94 63
Width: 613
GlyphClass: 2
Flags: MW
HStem: 402 337<186 337 293 418>
LayerCount: 2
Fore
SplineSet
186 402 m 1
 99 444 l 1
 293 739 l 1
 337 739 l 1
 510 445 l 1
 418 402 l 1
 309 599 l 1
 186 402 l 1
EndSplineSet
EndChar

StartChar: underscore
Encoding: 95 95 64
Width: 613
GlyphClass: 2
Flags: MW
HStem: -126 103<36 579 36 579>
LayerCount: 2
Fore
SplineSet
36 -126 m 1
 36 -23 l 1
 579 -23 l 1
 579 -126 l 1
 36 -126 l 1
EndSplineSet
EndChar

StartChar: grave
Encoding: 96 96 65
Width: 613
GlyphClass: 2
Flags: MW
VStem: 159 86
LayerCount: 2
Fore
SplineSet
287 361 m 2
 222 474 l 1
 159 580 l 1
 156 805 l 1
 185 762 l 2
 215 721 215 713 244 671 c 1
 245 670 l 1
 245 669 l 1
 256 640 261 645 277 617 c 2
 311 566 l 1
 340 513 352 424 353 378 c 0
 353 362 356 342 338 333 c 0
 315 321 298 345 287 361 c 2
EndSplineSet
EndChar

StartChar: a
Encoding: 97 97 66
Width: 613
GlyphClass: 2
Flags: MW
HStem: -13 96<235.5 281.5> 0 21G<430 542 430 430> 239 96<344 427 409 427 427 428 428 429 409 432> 454 100<291 345>
VStem: 53 117<136.5 168.5 136.5 181.5> 430 112<0 44 44 44>
LayerCount: 2
Fore
SplineSet
98 464 m 1xbc
 107 473 l 2
 161 529 235 554 311 554 c 0
 399 554 474 523 513 461 c 0
 540 417 542 375 542 333 c 2
 542 0 l 1
 430 0 l 1x7c
 430 44 l 1
 373 5 312 -13 251 -13 c 0
 130 -13 53 63 53 149 c 0
 53 214 97 278 187 310 c 0
 255 334 334 335 409 335 c 2
 427 335 l 1
 429 335 l 1
 429 338 l 2
 429 364 429 392 414 414 c 0
 401 433 375 454 315 454 c 0
 267 454 211 440 171 398 c 2
 159 385 l 1
 98 464 l 1xbc
432 220 m 2
 432 239 l 1
 428 239 l 1
 364 239 l 2
 324 239 282 238 253 232 c 0
 191 218 170 183 170 154 c 0
 170 119 203 83 268 83 c 0xbc
 332 83 381 119 399 136 c 0
 432 168 432 195 432 220 c 2
EndSplineSet
EndChar

StartChar: b
Encoding: 98 98 67
Width: 613
GlyphClass: 2
Flags: MW
HStem: -13 107<296.5 327.5 287 387> 0 21G<66 66 66 146> 451 104<306 327> 770 20G<66 193 193 193>
VStem: 66 117<265.5 309.5 489 748> 449 119<189 345.5>
LayerCount: 2
Fore
SplineSet
449 261 m 0xbc
 449 430 349 451 305 451 c 0
 257 451 214 426 196 387 c 0
 185 363 183 332 183 287 c 0
 183 244 183 215 186 190 c 0
 199 105 270 94 304 94 c 0
 351 94 449 117 449 261 c 0xbc
66 0 m 1x7c
 66 790 l 1
 193 790 l 1
 196 778 l 2
 201 759 186 750 186 750 c 1
 185 749 l 1
 184 748 l 1
 183 748 l 1
 183 489 l 1
 222 531 277 555 335 555 c 0
 451 555 568 463 568 277 c 0
 568 84 447 -13 327 -13 c 0xbc
 266 -13 209 13 170 57 c 1
 146 0 l 1
 66 0 l 1x7c
EndSplineSet
EndChar

StartChar: c
Encoding: 99 99 68
Width: 613
GlyphClass: 2
Flags: MW
HStem: -13 108<303 376 303 384> 450 103<298.5 384.5>
VStem: 61 119<223.5 332.5 223.5 352>
LayerCount: 2
Fore
SplineSet
565 446 m 1
 571 436 l 1
 494 346 l 1
 482 354 l 2
 463 368 470 387 470 387 c 2
 465 395 425 450 344 450 c 0
 253 450 180 386 180 279 c 0
 180 168 255 95 351 95 c 0
 401 95 449 118 483 156 c 2
 495 169 l 1
 564 88 l 1
 555 78 l 2
 500 19 424 -13 344 -13 c 0
 182 -13 61 109 61 271 c 0
 61 433 181 553 349 553 c 0
 441 553 519 513 565 446 c 1
EndSplineSet
EndChar

StartChar: d
Encoding: 100 100 69
Width: 613
GlyphClass: 2
Flags: MW
HStem: -12 106<273 308> 0 21G<440 556 440 440> 456 100<269 317.5> 770 20G<435 556 556 556>
VStem: 48 114<208.5 355.5 208.5 377> 428 119 435 111<740 742.5 740 790 740 790>
LayerCount: 2
Fore
SplineSet
292 556 m 0xbc
 351 556 401 533 435 497 c 1
 435 790 l 1
 556 790 l 1
 557 775 l 2
 558 761 550 751 548 748 c 0
 545 743 546 745 546 740 c 2xba
 547 63 l 2
 547 48 547 32 551 18 c 2
 556 0 l 1
 440 0 l 1x7c
 437 11 l 2
 432 27 431 42 431 55 c 1
 392 13 337 -12 279 -12 c 0
 164 -12 48 79 48 275 c 0
 48 479 181 556 292 556 c 0xbc
420 369 m 0
 401 435 339 456 296 456 c 0
 242 456 162 423 162 288 c 0
 162 129 247 94 299 94 c 0
 349 94 399 125 418 179 c 0
 426 202 428 229 428 266 c 0xbc
 428 322 426 348 420 369 c 0
EndSplineSet
EndChar

StartChar: e
Encoding: 101 101 70
Width: 613
GlyphClass: 2
Flags: MW
HStem: -12 99<302.5 360 302.5 369> 244 96<172 437 172 550 167 437> 459 96<286 347.5>
VStem: 437 116<288.5 343 288.5 375>
LayerCount: 2
Fore
SplineSet
52 266 m 0
 52 461 179 555 317 555 c 0
 411 555 521 506 547 360 c 0
 551 340 553 317 553 295 c 0
 553 282 552 270 551 257 c 2
 550 244 l 1
 167 244 l 1
 180 116 270 87 335 87 c 0
 385 87 431 106 464 143 c 2
 474 155 l 1
 543 88 l 1
 534 77 l 2
 485 18 410 -12 328 -12 c 0
 174 -12 52 87 52 266 c 0
311 459 m 0
 261 459 192 433 172 340 c 1
 437 340 l 1
 437 343 l 2
 437 407 384 459 311 459 c 0
EndSplineSet
EndChar

StartChar: f
Encoding: 102 102 71
Width: 613
GlyphClass: 2
Flags: MW
HStem: 0 21G<187 300 187 187> 418 93<300 477 300 477> 698 98<394 437.5>
VStem: 187 113<0 418 0 419 0 419 512 537 537 547>
LayerCount: 2
Fore
SplineSet
219 694 m 0
 260 761 338 796 418 796 c 0
 491 796 554 767 596 716 c 2
 602 709 l 1
 554 612 l 1
 545 612 l 2
 534 612 521 622 520 637 c 2
 520 641 l 1
 519 642 l 1
 519 643 l 1
 499 674 461 698 414 698 c 0
 374 698 336 681 317 646 c 0
 301 618 300 583 300 547 c 2
 300 537 l 1
 300 511 l 1
 477 511 l 1
 477 418 l 1
 300 418 l 1
 300 0 l 1
 187 0 l 1
 187 419 l 1
 70 419 l 1
 70 512 l 1
 187 512 l 1
 187 548 l 2
 187 596 189 645 219 694 c 0
EndSplineSet
EndChar

StartChar: g
Encoding: 103 103 72
Width: 613
GlyphClass: 2
Flags: MW
HStem: -204 95<287 317 287 395.5> 22 93<326.5 378 346 353> 170 99<269 308 250.5 338> 459 98<529.5 547> 477 83<251 308.5>
VStem: 40 110<-47 -38.5> 67 108<344.5 401.5 344.5 417> 85 102<136 140.5> 383 107<344.5 375.5 309.5 401.5> 457 108<-37.5 -20>
LayerCount: 2
Fore
SplineSet
280 477 m 0xea80
 222 477 175 430 175 373 c 0
 175 316 222 269 279 269 c 0
 337 269 383 316 383 373 c 0
 383 430 337 477 280 477 c 0xea80
67 362 m 0
 67 472 169 560 285 560 c 0xea
 334 560 379 543 414 513 c 1
 454 542 500 557 548 557 c 0
 554 557 558 556 564 556 c 2
 577 555 l 1
 592 452 l 1
 570 456 l 2
 561 458 552 459 542 459 c 0
 517 459 491 453 469 443 c 1
 484 417 490 390 490 361 c 0
 490 258 396 170 280 170 c 0
 258 170 235 173 214 180 c 1
 203 170 187 153 187 140 c 0xf180
 187 132 193 125 209 120 c 0
 220 117 244 114 283 114 c 0
 308 114 333 115 359 115 c 0
 397 115 436 113 472 99 c 0
 535 76 565 25 565 -24 c 0
 565 -107 490 -204 301 -204 c 0
 108 -204 40 -132 40 -60 c 0xf440
 40 -17 70 22 117 54 c 1
 92 75 85 103 85 123 c 0xf1
 85 158 106 192 137 221 c 1
 92 256 67 307 67 362 c 0
292 23 m 0
 253 24 224 26 205 28 c 1
 175 11 150 -13 150 -40 c 0
 150 -54 155 -77 193 -92 c 0
 231 -107 275 -109 299 -109 c 0
 335 -109 378 -106 413 -87 c 0
 447 -69 457 -46 457 -29 c 0xe440
 457 -11 448 13 405 20 c 0
 391 22 372 22 353 22 c 2
 333 22 l 2
 320 22 305 22 292 23 c 0
EndSplineSet
EndChar

StartChar: h
Encoding: 104 104 73
Width: 613
GlyphClass: 2
Flags: MW
HStem: 0 21G<78 196 78 78 425 425 425 540> 450 105<328 348.5> 768 20G<78 202 202 202>
VStem: 78 118<0 307 476 745 745 746> 425 115<0 320 320 326 0 338>
LayerCount: 2
Fore
SplineSet
196 0 m 1
 78 0 l 1
 78 788 l 1
 202 788 l 1
 206 778 l 2
 207 775 207 773 207 770 c 0
 207 755 197 747 196 746 c 2
 196 745 l 1
 196 476 l 1
 238 522 296 555 360 555 c 0
 428 555 490 519 519 456 c 0
 540 411 540 366 540 326 c 2
 540 0 l 1
 425 0 l 1
 425 320 l 2
 425 356 424 395 399 423 c 0
 383 441 360 450 337 450 c 0
 288 450 238 409 219 385 c 0
 199 360 196 340 196 307 c 2
 196 0 l 1
EndSplineSet
EndChar

StartChar: i
Encoding: 105 105 74
Width: 613
GlyphClass: 2
Flags: MW
HStem: 0 99<114 252 369 496 114 252> 442 101<121 369 121 252> 626 152<291 333>
VStem: 236 153<681 723> 252 117<99 442 442 442>
LayerCount: 2
Fore
SplineSet
121 442 m 1xe8
 121 543 l 1
 369 543 l 1
 369 99 l 1
 496 99 l 1
 496 0 l 1
 114 0 l 1
 114 99 l 1
 252 99 l 1
 252 442 l 1
 121 442 l 1xe8
236 702 m 0xf0
 236 744 270 778 312 778 c 0
 354 778 389 744 389 702 c 0
 389 660 354 626 312 626 c 0
 270 626 236 660 236 702 c 0xf0
EndSplineSet
EndChar

StartChar: j
Encoding: 106 106 75
Width: 613
GlyphClass: 2
Flags: MW
HStem: -207 105<210 259 210 274> 441 102<144 463 144 346> 626 152<385 426>
VStem: 329 153<681 723> 346 117<32 47 47 441 441 441>
LayerCount: 2
Fore
SplineSet
144 441 m 1xe8
 144 543 l 1
 463 543 l 1
 463 47 l 2
 463 2 462 -43 437 -90 c 0
 397 -168 315 -207 233 -207 c 0
 161 -207 98 -177 56 -125 c 2
 48 -116 l 1
 120 -20 l 1
 133 -30 l 2
 147 -41 146 -56 146 -56 c 2
 149 -60 181 -102 239 -102 c 0
 279 -102 316 -81 334 -43 c 0
 346 -19 346 5 346 32 c 2
 346 441 l 1
 144 441 l 1xe8
329 702 m 0xf0
 329 744 364 778 406 778 c 0
 448 778 482 744 482 702 c 0
 482 660 447 626 405 626 c 0
 363 626 329 660 329 702 c 0xf0
EndSplineSet
EndChar

StartChar: k
Encoding: 107 107 76
Width: 613
GlyphClass: 2
Flags: MW
HStem: -1 21G<74 74 74 190 542 570 570 578 578 611> 526 20G<442 442> 768 20G<74 199 199 199>
VStem: 74 116<-1 213 313 742>
LayerCount: 2
Fore
SplineSet
74 -1 m 1
 74 788 l 1
 199 788 l 1
 202 776 l 2
 205 760 193 749 192 747 c 2
 191 745 l 1
 191 745 190 744 190 742 c 2
 190 313 l 1
 442 546 l 1
 450 544 l 2
 469 539 490 539 510 539 c 2
 579 539 l 1
 333 319 l 1
 611 -1 l 1
 578 -1 l 1
 570 -1 l 2
 514 -1 469 -5 469 -5 c 1
 461 -6 l 1
 245 264 l 1
 190 213 l 1
 190 -1 l 1
 74 -1 l 1
EndSplineSet
EndChar

StartChar: l
Encoding: 108 108 77
Width: 613
GlyphClass: 2
Flags: MW
HStem: 0 99<88 249 366 525 88 249> 689 99<95 366 95 249>
VStem: 249 117<99 689 689 689>
LayerCount: 2
Fore
SplineSet
95 689 m 1
 95 788 l 1
 366 788 l 1
 366 99 l 1
 525 99 l 1
 525 0 l 1
 88 0 l 1
 88 99 l 1
 249 99 l 1
 249 689 l 1
 95 689 l 1
EndSplineSet
EndChar

StartChar: m
Encoding: 109 109 78
Width: 613
GlyphClass: 2
Flags: MW
HStem: 0 21G<40 148 40 40 256 256 256 367> 459 96<209 266> 522 20G<40 150 150 150>
VStem: 40 108<0 353> 256 111<0 368 368 374 0 392 0 399> 472 112<-1 372 372 379 379 398 -1 402 -1 410>
LayerCount: 2
Fore
SplineSet
148 0 m 1xdc
 40 0 l 1
 40 542 l 1
 150 542 l 1xbc
 149 516 l 1
 175 540 209 555 244 555 c 0
 288 555 325 532 344 497 c 1
 372 534 415 555 462 555 c 0
 495 555 535 543 559 508 c 0
 583 475 584 435 584 398 c 2
 584 379 l 1
 584 -1 l 1
 472 -1 l 1
 472 372 l 1
 472 402 l 2
 472 418 471 434 466 445 c 0
 458 460 448 465 437 465 c 0
 415 465 397 453 387 437 c 0
 369 407 367 401 367 374 c 2
 367 0 l 1
 256 0 l 1
 256 368 l 1
 256 392 l 2
 256 406 256 419 252 431 c 0
 245 453 229 459 216 459 c 0
 202 459 182 450 164 419 c 0
 150 395 148 376 148 353 c 2
 148 0 l 1xdc
EndSplineSet
EndChar

StartChar: n
Encoding: 110 110 79
Width: 613
GlyphClass: 2
Flags: MW
HStem: 0 21G<76 194 76 76 423 423 423 538> 450 105<326 346.5> 522 20G<76 194 194 194>
VStem: 76 118<0 307 476 542> 423 115<0 320 320 326 0 338>
LayerCount: 2
Fore
SplineSet
194 0 m 1xd8
 76 0 l 1
 76 542 l 1
 194 542 l 1xb8
 194 476 l 1
 236 522 294 555 358 555 c 0
 426 555 488 519 517 456 c 0
 538 411 538 366 538 326 c 2
 538 0 l 1
 423 0 l 1
 423 320 l 2
 423 356 422 395 397 423 c 0
 381 441 358 450 335 450 c 0
 286 450 236 409 217 385 c 0
 197 360 194 340 194 307 c 2
 194 0 l 1xd8
EndSplineSet
EndChar

StartChar: o
Encoding: 111 111 80
Width: 613
GlyphClass: 2
Flags: MW
HStem: -14 104<275 347.5 275 381> 451 103<272.5 343>
VStem: 43 121<215 332.5 215 350> 455 117<205 331>
LayerCount: 2
Fore
SplineSet
315 554 m 0
 447 554 572 453 572 269 c 0
 572 92 450 -14 312 -14 c 0
 166 -14 43 103 43 267 c 0
 43 433 167 554 315 554 c 0
455 265 m 0
 455 397 377 451 309 451 c 0
 236 451 164 391 164 274 c 0
 164 156 237 90 313 90 c 0
 382 90 455 145 455 265 c 0
EndSplineSet
EndChar

StartChar: p
Encoding: 112 112 81
Width: 613
GlyphClass: 2
Flags: MW
HStem: -198 21G<67 67 67 184> -14 106<304 330 284 392> 451 103<309.5 328.5> 522 20G<66 183 183 183>
VStem: 66 117<542 542> 455 119<186 347>
LayerCount: 2
Fore
SplineSet
67 -198 m 1xec
 66 542 l 1
 183 542 l 1xdc
 183 488 l 1
 225 531 280 554 339 554 c 0
 455 554 574 465 574 277 c 0
 574 82 452 -14 332 -14 c 0
 276 -14 222 8 184 45 c 1
 184 -198 l 1
 67 -198 l 1xec
455 260 m 0
 455 434 349 451 308 451 c 0xec
 258 451 214 426 196 386 c 0
 185 364 183 336 183 294 c 0
 183 221 184 182 197 152 c 0
 215 113 261 92 307 92 c 0
 353 92 455 112 455 260 c 0
EndSplineSet
EndChar

StartChar: q
Encoding: 113 113 82
Width: 613
GlyphClass: 2
Flags: MW
HStem: -198 21G<434 550 434 434> -12 106<269 313> 456 100<267 320.5> 522 20G<438 550 550 550>
VStem: 45 117<219.5 350 219.5 367> 434 116<-198 55 55 55>
LayerCount: 2
Fore
SplineSet
296 556 m 0xec
 367 556 412 525 438 497 c 1
 438 542 l 1
 550 542 l 1xdc
 550 -198 l 1
 434 -198 l 1
 434 55 l 1
 396 13 342 -12 284 -12 c 0
 153 -12 45 104 45 276 c 0
 45 458 168 556 296 556 c 0xec
419 380 m 0
 398 435 342 456 299 456 c 0xec
 235 456 162 412 162 288 c 0
 162 151 236 94 302 94 c 0
 351 94 402 125 421 179 c 0
 429 202 431 229 431 265 c 0
 431 325 429 355 419 380 c 0
EndSplineSet
EndChar

StartChar: r
Encoding: 114 114 83
Width: 613
GlyphClass: 2
Flags: MW
HStem: -1 21G<113 113 113 229> 451 104<386.5 424> 522 20G<113 233 233 233>
VStem: 113 116<-1 261 -1 542>
LayerCount: 2
Fore
SplineSet
113 -1 m 1xd0
 113 542 l 1
 233 542 l 1xb0
 231 477 l 1
 277 530 343 555 409 555 c 0
 474 555 528 529 565 491 c 2
 573 483 l 1
 519 373 l 1
 503 387 l 2
 491 398 487 409 482 416 c 0
 469 432 444 451 404 451 c 0
 369 451 311 440 265 372 c 0
 230 320 229 291 229 261 c 2
 229 -1 l 1
 113 -1 l 1xd0
EndSplineSet
EndChar

StartChar: s
Encoding: 115 115 84
Width: 613
GlyphClass: 2
Flags: MW
HStem: -12 102<264 343 262 384> 460 95<284.5 349>
VStem: 97 118<399.5 419 399.5 442.5> 429 119<139 162.5>
LayerCount: 2
Fore
SplineSet
535 465 m 2
 543 456 l 1
 480 362 l 1
 470 365 l 2
 463 367 452 375 452 390 c 2
 452 392 l 1
 433 417 384 460 314 460 c 0
 255 460 215 433 215 405 c 0
 215 394 220 374 260 356 c 0
 307 335 395 323 460 289 c 0
 529 253 548 200 548 161 c 0
 548 74 461 -12 307 -12 c 0
 221 -12 134 16 67 78 c 2
 58 86 l 1
 121 194 l 1
 133 188 l 2
 150 180 148 162 148 162 c 2
 148 161 147 160 147 160 c 1
 163 142 219 90 305 90 c 0
 381 90 429 122 429 156 c 0
 429 169 424 190 384 208 c 0
 346 225 286 238 239 254 c 0
 212 263 97 298 97 399 c 0
 97 486 190 555 321 555 c 0
 405 555 482 524 535 465 c 2
EndSplineSet
EndChar

StartChar: t
Encoding: 116 116 85
Width: 613
GlyphClass: 2
Flags: MW
HStem: -10 109<372.5 399.5> 441 102<323 499 323 499 319 499>
VStem: 194 116<226 236.5>
LayerCount: 2
Fore
SplineSet
209 542 m 1
 219 685 l 1
 335 704 l 1
 340 694 l 2
 343 688 343 683 343 681 c 0
 343 665 336 657 335 653 c 0
 331 630 325 571 323 543 c 1
 499 543 l 1
 499 441 l 1
 319 441 l 1
 313 380 310 321 310 261 c 0
 310 191 313 173 313 166 c 0
 322 114 356 99 389 99 c 0
 418 99 458 113 502 146 c 2
 518 157 l 1
 556 60 l 1
 547 53 l 2
 499 18 434 -10 365 -10 c 0
 306 -10 257 12 228 50 c 0
 193 97 194 151 194 196 c 0
 194 277 198 361 204 441 c 1
 78 441 l 1
 79 542 l 1
 209 542 l 1
EndSplineSet
EndChar

StartChar: u
Encoding: 117 117 86
Width: 613
GlyphClass: 2
Flags: MW
HStem: -13 100<275.5 302.5> 0 21G<429 553 429 429> 522 20G<70 186 186 186 425 542 542 542>
VStem: 69 117<226.5 241> 425 117<45.5 61 248 542>
LayerCount: 2
Fore
SplineSet
69 241 m 2xb8
 70 542 l 1
 186 542 l 1
 186 244 l 2
 186 209 187 174 204 142 c 0
 223 106 257 87 294 87 c 0xb8
 339 87 383 116 405 154 c 0
 422 183 425 209 425 248 c 2
 425 542 l 1
 542 542 l 1
 542 61 l 2
 542 46 543 32 547 19 c 2
 553 0 l 1
 429 0 l 1x78
 427 13 l 2
 425 26 425 40 425 51 c 1
 385 10 331 -13 274 -13 c 0
 198 -13 125 27 91 100 c 0
 68 148 69 197 69 241 c 2xb8
EndSplineSet
EndChar

StartChar: v
Encoding: 118 118 87
Width: 613
GlyphClass: 2
Flags: MW
HStem: -4 21G<262 262 262 349> 523 20G<35 172 172 172 462 571 571 571>
LayerCount: 2
Fore
SplineSet
262 -4 m 1
 35 543 l 1
 172 543 l 1
 175 531 l 2
 178 515 171 504 171 504 c 1
 171 504 172 503 172 502 c 2
 315 141 l 1
 387 308 l 2
 418 379 446 453 460 530 c 2
 462 543 l 1
 571 543 l 1
 567 525 l 2
 549 445 518 370 485 298 c 2
 349 -4 l 1
 262 -4 l 1
EndSplineSet
EndChar

StartChar: w
Encoding: 119 119 88
Width: 613
GlyphClass: 2
Flags: MW
HStem: -1 21G<126 227 126 126 399 503 399 399> 522 21G
LayerCount: 2
Fore
SplineSet
348 492 m 1
 447 162 l 1
 481 385 487 450 487 504 c 0
 487 511 486 519 486 526 c 2
 486 542 l 1
 598 542 l 1
 596 525 l 2
 572 352 543 182 506 11 c 1
 503 -1 l 1
 399 -1 l 1
 311 308 l 1
 227 -1 l 1
 126 -1 l 1
 10 543 l 1
 127 543 l 1
 130 532 l 2
 135 517 130 504 128 499 c 0
 125 491 126 493 128 486 c 2
 193 162 l 1
 273 492 l 1
 348 492 l 1
EndSplineSet
EndChar

StartChar: x
Encoding: 120 120 89
Width: 613
GlyphClass: 2
Flags: MW
HStem: 0 21G<37 171 37 37 446 581 446 446> 523 20G<40 171 171 171 432 556 556 556>
LayerCount: 2
Fore
SplineSet
305 354 m 1
 432 543 l 1
 556 543 l 1
 370 279 l 1
 581 0 l 1
 446 0 l 1
 305 199 l 1
 171 0 l 1
 37 0 l 1
 238 275 l 1
 40 543 l 1
 171 543 l 1
 305 354 l 1
EndSplineSet
EndChar

StartChar: y
Encoding: 121 121 90
Width: 613
GlyphClass: 2
Flags: MW
HStem: -206 101<138.5 164.5 138.5 180.5> 522 20G<42 185 185 185>
LayerCount: 2
Fore
SplineSet
268 16 m 1
 42 542 l 1
 185 542 l 1
 186 527 l 2
 187 510 181 502 181 501 c 0
 181 500 181 500 182 497 c 2
 326 136 l 1
 416 388 l 2
 432 434 447 482 456 530 c 2
 458 543 l 1
 581 543 l 1
 575 524 l 2
 559 473 540 423 520 374 c 2
 351 -52 l 2
 339 -83 328 -113 302 -142 c 0
 263 -186 207 -206 154 -206 c 0
 106 -206 60 -190 26 -157 c 2
 18 -148 l 1
 76 -46 l 1
 90 -57 l 2
 104 -68 104 -81 104 -81 c 2
 106 -85 123 -105 154 -105 c 0
 175 -105 199 -96 219 -75 c 0
 234 -59 244 -37 253 -16 c 2
 268 16 l 1
EndSplineSet
EndChar

StartChar: z
Encoding: 122 122 91
Width: 613
GlyphClass: 2
Flags: MW
HStem: -1 104<217 508 508 512 217 559> -1 112<530 541 530 559> 437 106<79 531 79 373>
LayerCount: 2
Fore
SplineSet
79 437 m 1xa0
 79 543 l 1
 531 543 l 1
 531 469 l 1
 217 103 l 1
 508 103 l 2xa0
 516 103 520 111 540 111 c 0x60
 542 111 544 110 546 110 c 2
 559 109 l 1
 559 -1 l 1
 54 -1 l 1
 54 73 l 1
 373 437 l 1
 79 437 l 1xa0
EndSplineSet
EndChar

StartChar: braceleft
Encoding: 123 123 92
Width: 613
GlyphClass: 2
Flags: MW
HStem: -204 98<385.5 509 427 509 427 509> 255 97<57 96 57 96 96 97> 657 99<445 454 454 510>
VStem: 183 115<0 34.5 0 42.5> 188 114<120.5 163>
LayerCount: 2
Fore
SplineSet
57 255 m 1xe8
 57 352 l 1
 96 352 l 2
 118 352 143 353 165 373 c 0
 188 398 191 433 191 460 c 0
 191 487 188 513 188 542 c 0
 188 586 195 655 252 706 c 0
 305 753 375 756 432 756 c 2
 510 756 l 1
 510 657 l 1
 454 657 l 2
 436 657 421 658 407 658 c 0
 379 658 360 656 342 645 c 0
 304 622 301 575 301 551 c 0
 301 526 305 500 305 471 c 0
 305 443 302 407 284 373 c 0
 270 345 248 320 221 303 c 1
 264 277 302 223 302 120 c 0xe8
 302 82 298 49 298 20 c 0
 298 -20 305 -65 341 -90 c 0
 363 -105 389 -106 427 -106 c 2
 509 -106 l 1
 509 -204 l 1
 414 -204 l 2
 357 -204 303 -201 256 -165 c 0
 187 -112 183 -24 183 19 c 0xf0
 183 66 188 103 188 138 c 0
 188 188 180 218 161 236 c 0
 141 255 118 255 97 255 c 2
 57 255 l 1xe8
EndSplineSet
EndChar

StartChar: bar
Encoding: 124 124 93
Width: 613
GlyphClass: 2
Flags: MW
HStem: 754 20G<252 362 362 362>
VStem: 252 110<-210 774 -210 774>
LayerCount: 2
Fore
SplineSet
252 -210 m 1
 252 774 l 1
 362 774 l 1
 362 -210 l 1
 252 -210 l 1
EndSplineSet
EndChar

StartChar: braceright
Encoding: 125 125 94
Width: 613
GlyphClass: 2
Flags: MW
HStem: -204 98<105 187 187 201 105 187> 255 97<506.5 557 518 557 518 557> 657 99<104 161 104 182>
VStem: 309 114<457 473.5 446.5 485.5> 312 114<120.5 163 120.5 172>
LayerCount: 2
Fore
SplineSet
518 352 m 2xf0
 557 352 l 1
 557 255 l 1
 517 255 l 2
 496 255 473 255 453 236 c 0
 434 218 426 188 426 138 c 0
 426 103 431 66 431 19 c 0
 431 -24 428 -112 359 -165 c 0
 313 -201 258 -204 201 -204 c 2
 105 -204 l 1
 105 -106 l 1
 187 -106 l 2
 225 -106 252 -105 274 -90 c 0
 310 -65 316 -20 316 20 c 0
 316 49 312 82 312 120 c 0xe8
 312 224 352 278 394 303 c 1
 366 321 344 345 330 373 c 0
 312 407 309 443 309 471 c 0xf0
 309 500 313 526 313 551 c 0
 313 575 310 622 272 645 c 0
 254 656 236 658 208 658 c 0
 194 658 179 657 161 657 c 2
 104 657 l 1
 104 756 l 1
 182 756 l 2
 239 756 310 753 363 706 c 0
 420 655 426 586 426 542 c 0xe8
 426 513 423 487 423 460 c 0
 423 433 426 397 449 373 c 0
 472 352 496 352 518 352 c 2xf0
EndSplineSet
EndChar

StartChar: asciitilde
Encoding: 126 126 95
Width: 613
GlyphClass: 2
Flags: MW
HStem: 384 109<392.5 434 392.5 451.5> 448 103<204 245.5>
LayerCount: 2
Fore
SplineSet
132 413 m 1x40
 124 399 l 1
 39 455 l 1
 46 468 l 1
 83 514 147 551 222 551 c 0x40
 330 551 366 493 419 493 c 0
 449 493 474 506 508 532 c 1
 517 545 l 1
 595 512 l 1
 587 500 l 2
 555 452 493 384 410 384 c 0x80
 302 384 274 448 217 448 c 0
 191 448 161 438 132 413 c 1x40
EndSplineSet
EndChar

StartChar: exclamdown
Encoding: 161 161 97
Width: 613
GlyphClass: 2
Flags: MW
HStem: -14 20G 621 171<271.5 318.5>
VStem: 209 171<683.5 730.5> 217 151<86.5 111.5 79.5 124.5>
LayerCount: 2
Fore
SplineSet
295 621 m 0x00
 248 621 209 660 209 707 c 0
 209 754 248 792 295 792 c 0
 342 792 380 754 380 707 c 0
 380 660 342 621 295 621 c 0x00
359 34 m 0
 346 3 320 -14 293 -14 c 0
 263 -14 233 7 222 49 c 0
 220 57 217 72 217 101 c 0
 217 148 225 193 228 237 c 2
 250 532 l 1
 338 532 l 1
 357 237 l 2
 361 160 368 132 368 91 c 0
 368 68 366 50 359 34 c 0
EndSplineSet
EndChar

StartChar: cent
Encoding: 162 162 98
Width: 613
GlyphClass: 2
Flags: MW
HStem: 34 104<344 358> 521 90<305 318> 722 20G<335 335>
VStem: 52 115<289.5 388.5 289.5 402.5>
LayerCount: 2
Fore
SplineSet
318 611 m 1
 335 742 l 1
 442 731 l 1
 443 719 l 2
 444 706 438 697 437 694 c 0
 434 688 434 690 433 684 c 2
 422 603 l 1
 485 587 530 554 559 511 c 2
 565 502 l 1
 497 418 l 1
 485 426 l 2
 472 435 473 448 473 449 c 2
 473 457 l 1
 473 457 472 457 472 458 c 0
 461 471 437 490 408 502 c 1
 358 138 l 1
 406 142 452 162 486 196 c 2
 498 209 l 1
 560 130 l 1
 551 121 l 2
 498 65 422 35 344 34 c 1
 327 -95 l 1
 228 -83 l 1
 245 49 l 1
 128 86 52 191 52 324 c 0
 52 481 159 598 318 611 c 1
167 334 m 0
 167 245 204 182 259 151 c 1
 305 521 l 1
 225 508 167 443 167 334 c 0
EndSplineSet
EndChar

StartChar: sterling
Encoding: 163 163 99
Width: 613
GlyphClass: 2
Flags: MW
HStem: -18 109<419 463.5 419 473.5> -15 21G<80 80> 35 102<249 253 253 272.5> 366 98<75 133 75 156 75 133 268 366 268 268> 641 98<322.5 372>
VStem: 128 110<511 562 511 588> 170 110<247 283.5>
LayerCount: 2
Fore
SplineSet
516 675 m 2x7c
 527 665 l 1
 456 577 l 1
 445 586 l 2
 429 597 427 611 426 612 c 0
 423 615 394 641 350 641 c 0
 295 641 238 604 238 520 c 0x7c
 238 502 241 483 245 464 c 1
 366 464 l 1
 366 366 l 1
 268 366 l 1
 275 334 280 305 280 271 c 0
 280 223 269 177 249 137 c 1
 253 137 l 2x7a
 339 137 389 91 449 91 c 0x9a
 478 91 506 102 527 120 c 2
 541 133 l 1
 588 43 l 1
 578 35 l 2x3a
 550 13 502 -18 445 -18 c 0x9a
 361 -18 312 35 233 35 c 0
 211 35 168 32 94 -7 c 2
 80 -15 l 1
 36 78 l 1
 50 84 l 2
 106 109 115 111 132 136 c 0
 157 173 170 218 170 267 c 0x7a
 170 300 164 335 156 366 c 1
 75 366 l 1
 75 464 l 1
 133 464 l 1
 130 483 128 501 128 521 c 0
 128 655 234 739 352 739 c 0
 412 739 471 717 516 675 c 2x7c
EndSplineSet
EndChar

StartChar: currency
Encoding: 164 164 100
Width: 613
GlyphClass: 2
Flags: MW
HStem: 210 96<288 327> 498 96<288.5 327 288.5 336.5>
VStem: 109 95<382.5 419.5> 412 96<382.5 419.5 382.5 428.5>
LayerCount: 2
Fore
SplineSet
412 402 m 0
 412 455 365 498 308 498 c 0
 251 498 204 455 204 402 c 0
 204 349 251 306 308 306 c 0
 365 306 412 349 412 402 c 0
138 502 m 1
 69 568 l 1
 133 632 l 1
 202 563 l 1
 234 583 269 594 308 594 c 0
 346 594 382 583 413 564 c 1
 480 632 l 1
 544 568 l 1
 477 504 l 1
 497 473 508 438 508 401 c 0
 508 364 496 329 477 300 c 1
 544 235 l 1
 480 173 l 1
 413 239 l 1
 382 220 346 210 308 210 c 0
 268 210 232 222 202 240 c 1
 133 173 l 1
 69 235 l 1
 138 301 l 1
 119 331 109 364 109 401 c 0
 109 438 120 473 138 502 c 1
EndSplineSet
EndChar

StartChar: yen
Encoding: 165 165 101
Width: 613
GlyphClass: 2
Flags: MW
HStem: 0 21G<260 372 260 260> 101 98<94 260 94 260 372 531> 243 98<94 260 94 260 372 531> 720 20G<27 154 154 154>
VStem: 260 112<0 101 0 101 199 243 341 346>
LayerCount: 2
Fore
SplineSet
260 346 m 1
 27 740 l 1
 154 740 l 1
 317 448 l 1
 466 739 l 1
 589 739 l 1
 372 346 l 1
 372 341 l 1
 531 341 l 1
 531 243 l 1
 372 243 l 1
 372 199 l 1
 531 199 l 1
 531 101 l 1
 372 101 l 1
 372 0 l 1
 260 0 l 1
 260 101 l 1
 94 101 l 1
 94 199 l 1
 260 199 l 1
 260 243 l 1
 94 243 l 1
 94 341 l 1
 260 341 l 1
 260 346 l 1
EndSplineSet
EndChar

StartChar: brokenbar
Encoding: 166 166 102
Width: 613
GlyphClass: 2
Flags: MW
HStem: 754 20G<252 362 362 362>
VStem: 252 110<-195 248 -195 248 319 774>
LayerCount: 2
Fore
SplineSet
252 319 m 1
 252 774 l 1
 362 774 l 1
 362 319 l 1
 252 319 l 1
362 248 m 1
 362 -195 l 1
 252 -195 l 1
 252 248 l 1
 362 248 l 1
EndSplineSet
EndChar

StartChar: section
Encoding: 167 167 103
Width: 613
GlyphClass: 2
Flags: MW
HStem: -65 110<253.5 326 253.5 356.5> 696 101<288 343.5>
VStem: 89 117<388.5 402.5> 106 117<614 642 614 668> 394 116<101.5 130.5> 402 119<337 353>
LayerCount: 2
Fore
SplineSet
513 684 m 2xd0
 519 674 l 1
 434 598 l 1
 424 605 l 2
 408 617 409 637 409 637 c 2
 401 659 371 696 316 696 c 0
 260 696 223 661 223 623 c 0
 223 605 231 576 278 552 c 0
 309 536 354 526 404 503 c 0
 490 463 521 409 521 361 c 0xd4
 521 313 490 273 447 248 c 1
 490 212 510 164 510 118 c 0
 510 20 420 -65 293 -65 c 0
 209 -65 128 -26 75 43 c 2
 67 53 l 1
 145 143 l 1
 155 139 l 2
 175 131 174 110 174 110 c 2
 177 102 214 45 293 45 c 0
 359 45 394 83 394 120 c 0
 394 141 383 167 347 188 c 0
 302 213 235 218 172 254 c 0
 116 286 89 332 89 377 c 0xe8
 89 428 123 471 170 495 c 1
 125 531 106 577 106 620 c 0
 106 716 197 797 315 797 c 0
 399 797 474 753 513 684 c 2xd0
342 421 m 0
 315 434 280 442 244 456 c 1
 221 446 206 425 206 399 c 0xe4
 206 378 216 347 261 325 c 0
 292 310 331 304 373 288 c 1
 391 300 402 319 402 342 c 0
 402 364 392 396 342 421 c 0
EndSplineSet
EndChar

StartChar: dieresis
Encoding: 168 168 104
Width: 613
GlyphClass: 2
Flags: MW
HStem: 636 152<170 212>
VStem: 115 153<691 733> 347 152<691 733>
LayerCount: 2
Fore
SplineSet
347 712 m 0
 347 754 381 789 423 789 c 0
 465 789 499 754 499 712 c 0
 499 670 465 636 423 636 c 0
 381 636 347 670 347 712 c 0
115 712 m 0
 115 754 149 788 191 788 c 0
 233 788 268 754 268 712 c 0
 268 670 233 636 191 636 c 0
 149 636 115 670 115 712 c 0
EndSplineSet
EndChar

StartChar: copyright
Encoding: 169 169 105
Width: 613
GlyphClass: 2
Flags: MW
HStem: -8 82<255.5 374 255.5 397> 129 93<299 340.5 299 352> 428 90<299 349> 548 81<257 375>
VStem: 11 85<243 377.5 243 399> 131 97<302.5 367 302.5 382> 535 81<243.5 378>
LayerCount: 2
Fore
SplineSet
131 327 m 0
 131 437 217 518 321 518 c 0
 402 518 467 467 484 397 c 2
 487 384 l 1
 403 351 l 1
 396 360 l 2
 383 375 388 390 388 390 c 2
 387 394 374 428 324 428 c 0
 274 428 228 399 228 335 c 0
 228 270 273 222 325 222 c 0
 356 222 385 239 400 267 c 2
 408 282 l 1
 487 230 l 1
 479 217 l 2
 443 163 384 129 320 129 c 0
 214 129 131 220 131 327 c 0
616 311 m 0
 616 133 480 -8 314 -8 c 0
 148 -8 11 133 11 310 c 0
 11 488 148 629 314 629 c 0
 480 629 616 488 616 311 c 0
316 548 m 0
 198 548 96 445 96 310 c 0
 96 176 196 74 315 74 c 0
 433 74 535 176 535 311 c 0
 535 445 434 548 316 548 c 0
EndSplineSet
EndChar

StartChar: ordfeminine
Encoding: 170 170 106
Width: 613
GlyphClass: 2
Flags: MW
HStem: 165 95<85 530 85 530> 290 95<263.5 289.5> 472 92<325.5 379 347 379 379 380 380 381 347 384> 644 94<289 324.5>
VStem: 116 107<415 432.5 415 442> 382 105<300 323 323 323>
LayerCount: 2
Fore
SplineSet
135 657 m 1
 144 666 l 1
 191 719 256 738 315 738 c 0
 383 738 445 711 473 652 c 0
 487 622 487 591 487 560 c 2
 487 300 l 1
 382 300 l 1
 382 323 l 1
 348 301 309 290 270 290 c 0
 181 290 116 350 116 421 c 0
 116 463 140 509 194 537 c 0
 242 563 297 564 347 564 c 2
 379 564 l 1
 381 564 l 1
 381 586 380 600 370 616 c 0
 360 632 341 644 308 644 c 0
 270 644 232 630 209 598 c 2
 197 582 l 1
 135 657 l 1
384 468 m 2
 384 472 l 1
 380 472 l 1
 335 472 l 2
 316 472 296 472 281 470 c 0
 235 463 223 440 223 425 c 0
 223 405 244 385 283 385 c 0
 314 385 344 398 362 413 c 0
 383 430 384 445 384 468 c 2
85 165 m 1
 85 260 l 1
 530 260 l 1
 530 165 l 1
 85 165 l 1
EndSplineSet
EndChar

StartChar: guillemotleft
Encoding: 171 171 107
Width: 613
GlyphClass: 2
Flags: MW
VStem: 75 271<130 307 130 307> 290 271<130 307 130 307>
LayerCount: 2
Fore
SplineSet
75 307 m 1x80
 271 486 l 1
 338 415 l 1
 195 285 l 1
 346 130 l 1
 277 61 l 1
 75 266 l 1
 75 307 l 1x80
290 307 m 1x40
 486 486 l 1
 553 415 l 1
 410 285 l 1
 561 130 l 1
 492 61 l 1
 290 266 l 1
 290 307 l 1x40
EndSplineSet
EndChar

StartChar: logicalnot
Encoding: 172 172 108
Width: 613
GlyphClass: 2
Flags: MW
HStem: 322 105<103 517 103 411>
VStem: 411 106<171 322 322 322>
LayerCount: 2
Fore
SplineSet
103 322 m 1
 103 427 l 1
 517 427 l 1
 517 171 l 1
 411 171 l 1
 411 322 l 1
 103 322 l 1
EndSplineSet
EndChar

StartChar: softhyphen
Encoding: 173 173 109
Width: 613
GlyphClass: 2
Flags: MW
HStem: 334 109<79 537 79 537>
LayerCount: 2
Fore
SplineSet
79 334 m 1
 79 443 l 1
 537 443 l 1
 537 334 l 1
 79 334 l 1
EndSplineSet
EndChar

StartChar: registered
Encoding: 174 174 110
Width: 613
GlyphClass: 2
Flags: MW
HStem: -8 97<255.5 342.5 255.5 396> 289 78<264 310 310 317 264 310> 440 64<264 306 306 307 264 264> 548 81<291.5 374.5>
VStem: 11 85<259 364.5 259 398> 179 85<142 289 367 440> 380 85<397.5 408> 535 81<279 378>
LayerCount: 2
Fore
SplineSet
307 440 m 2
 264 440 l 1
 264 367 l 1
 310 367 l 2
 330 367 350 367 363 376 c 2
 364 377 l 2
 375 383 380 392 380 403 c 0
 380 413 375 424 361 432 c 0
 347 440 327 440 307 440 c 2
179 512 m 1
 129 469 96 403 96 326 c 0
 96 192 196 89 315 89 c 0
 370 89 422 112 461 149 c 1
 392 139 l 1
 317 289 l 1
 264 289 l 1
 264 142 l 1
 179 142 l 1
 179 512 l 1
616 310 m 0
 616 132 479 -8 313 -8 c 0
 147 -8 11 132 11 309 c 0
 11 487 147 629 314 629 c 0
 480 629 616 488 616 310 c 0
315 548 m 0
 268 548 224 532 188 504 c 1
 306 504 l 2
 333 504 363 504 394 491 c 0
 440 471 465 430 465 388 c 0
 465 345 439 307 402 289 c 1
 474 148 l 1
 511 190 535 247 535 311 c 0
 535 445 434 548 315 548 c 0
EndSplineSet
EndChar

StartChar: macron
Encoding: 175 175 111
Width: 613
GlyphClass: 2
Flags: MW
HStem: 640 97<141 473 141 473>
VStem: 141 332<640 737 640 737>
LayerCount: 2
Fore
SplineSet
141 640 m 1
 141 737 l 1
 473 737 l 1
 473 640 l 1
 141 640 l 1
EndSplineSet
EndChar

StartChar: degree
Encoding: 176 176 112
Width: 613
GlyphClass: 2
Flags: MW
HStem: 439 96<295.5 334.5 295.5 362.5> 665 93<295.5 334.5>
VStem: 138 104<581.5 618.5 581.5 643> 388 101<581.5 618.5>
LayerCount: 2
Fore
SplineSet
314 758 m 0
 411 758 489 686 489 598 c 0
 489 510 411 439 314 439 c 0
 217 439 138 511 138 599 c 0
 138 687 217 758 314 758 c 0
388 600 m 0
 388 637 354 665 315 665 c 0
 276 665 242 637 242 600 c 0
 242 563 276 535 315 535 c 0
 354 535 388 563 388 600 c 0
EndSplineSet
EndChar

StartChar: plusminus
Encoding: 177 177 113
Width: 613
GlyphClass: 2
Flags: MW
HStem: 5 106<49 568 49 568> 391 103<48 258 48 258 364 566>
VStem: 258 106<169 391 169 391 494 682>
LayerCount: 2
Fore
SplineSet
49 5 m 1
 49 111 l 1
 568 111 l 1
 568 5 l 1
 49 5 l 1
258 494 m 1
 258 682 l 1
 364 682 l 1
 364 494 l 1
 566 494 l 1
 566 391 l 1
 364 391 l 1
 364 169 l 1
 258 169 l 1
 258 391 l 1
 48 391 l 1
 48 494 l 1
 258 494 l 1
EndSplineSet
EndChar

StartChar: uni00B2
Encoding: 178 178 114
Width: 613
GlyphClass: 2
Flags: MW
HStem: 300 95<277 457 457 458 277 501> 664 92<294 339>
VStem: 388 102<600.5 625.5>
LayerCount: 2
Fore
SplineSet
122 637 m 1
 129 650 l 2
 167 717 240 756 317 756 c 0
 418 756 490 698 490 625 c 0
 490 569 447 531 430 517 c 0
 387 477 333 449 277 395 c 1
 457 395 l 1
 458 395 l 1
 459 396 l 2
 460 397 472 411 490 405 c 2
 501 401 l 1
 501 300 l 1
 138 300 l 1
 138 373 l 1
 141 377 l 2
 209 462 299 515 333 540 c 0
 367 565 388 588 388 613 c 0
 388 638 364 664 314 664 c 0
 274 664 239 643 221 620 c 0
 218 616 219 613 211 598 c 2
 203 583 l 1
 122 637 l 1
EndSplineSet
EndChar

StartChar: uni00B3
Encoding: 179 179 115
Width: 613
GlyphClass: 2
Flags: MW
HStem: 298 97<288 340 288 361.5> 507 87<308 338.5 298.5 356> 664 93<294.5 335.5>
VStem: 386 101<620 634.5> 403 104<442 463.5>
LayerCount: 2
Fore
SplineSet
147 678 m 2xf0
 190 729 252 757 316 757 c 0
 411 757 487 702 487 633 c 0xf0
 487 601 469 573 443 555 c 1
 483 534 507 495 507 450 c 0
 507 360 411 298 312 298 c 0
 243 298 177 328 132 380 c 2
 123 390 l 1
 198 474 l 1
 210 462 l 2
 227 444 222 434 226 430 c 0
 231 425 263 395 313 395 c 0
 367 395 403 427 403 457 c 0xe8
 403 470 398 507 314 507 c 0
 302 507 291 506 280 505 c 2
 263 503 l 1
 263 596 l 1
 280 595 l 2
 287 594 295 594 302 594 c 0
 375 594 386 614 386 626 c 0
 386 643 359 664 312 664 c 0
 277 664 240 646 214 614 c 2
 203 600 l 1
 138 667 l 1
 147 678 l 2xf0
EndSplineSet
EndChar

StartChar: acute
Encoding: 180 180 116
Width: 613
GlyphClass: 2
Flags: MW
HStem: 584 252<315 351>
VStem: 231 222<635 768>
LayerCount: 2
Fore
SplineSet
231 635 m 1
 351 836 l 1
 453 768 l 1
 315 584 l 1
 231 635 l 1
EndSplineSet
EndChar

StartChar: micro
Encoding: 181 181 117
Width: 613
GlyphClass: 2
Flags: MW
HStem: -198 21G<23 23 23 128> -13 95<239.5 273 239.5 276.5> 522 20G<47 156 156 156 360 467 467 467>
VStem: 23 105<-198 -182> 47 109<237 542> 360 107<233 542>
LayerCount: 2
Fore
SplineSet
23 -198 m 1xf4
 24 -182 l 1
 25 -49 47 94 47 237 c 2
 47 542 l 1
 156 542 l 1
 156 226 l 2xec
 156 192 156 163 171 136 c 0
 190 100 224 82 255 82 c 0
 291 82 327 105 346 146 c 0
 358 172 360 199 360 233 c 2
 360 542 l 1
 467 542 l 1
 467 144 l 2
 467 126 468 109 475 97 c 2
 476 96 l 2
 482 85 490 82 499 82 c 0
 526 82 549 125 550 127 c 2
 563 155 l 1
 614 64 l 1
 609 56 l 2
 585 21 543 -12 492 -12 c 0
 445 -12 406 18 389 57 c 1
 355 13 304 -13 249 -13 c 0
 203 -13 159 7 129 38 c 1
 129 -36 129 -109 128 -182 c 2
 128 -198 l 1
 23 -198 l 1xf4
EndSplineSet
EndChar

StartChar: paragraph
Encoding: 182 182 118
Width: 613
GlyphClass: 2
Flags: MW
HStem: 691 99<374 454 374 374>
VStem: 60 314<526 618> 272 102<-81 367 367 367> 454 99<-81 691 691 691>
LayerCount: 2
Fore
SplineSet
369 790 m 2xd0
 553 790 l 1
 553 -81 l 1
 454 -81 l 1
 454 691 l 1
 374 691 l 1
 374 -81 l 1
 272 -81 l 1
 272 367 l 1xb0
 151 381 60 472 60 580 c 0
 60 656 107 728 191 763 c 0
 252 789 314 790 369 790 c 2xd0
EndSplineSet
EndChar

StartChar: periodcentered
Encoding: 183 183 119
Width: 613
GlyphClass: 2
Flags: MW
HStem: 294 167<269.5 316.5>
VStem: 208 171<354 400>
LayerCount: 2
Fore
SplineSet
293 461 m 0
 340 461 379 423 379 377 c 0
 379 331 340 294 293 294 c 0
 246 294 208 331 208 377 c 0
 208 423 246 461 293 461 c 0
EndSplineSet
EndChar

StartChar: cedilla
Encoding: 184 184 120
Width: 613
GlyphClass: 2
Flags: MW
HStem: -210 64<326.5 366 326.5 381.5> -114 60<300 385> -114 114<300 379 315 342>
VStem: 315 57<-54 0> 392 80<-132 -128>
LayerCount: 2
Fore
SplineSet
300 -114 m 1xd8
 315 0 l 1
 379 0 l 1xb8
 372 -54 l 1
 385 -54 l 2xd8
 400 -55 417 -56 434 -63 c 0
 459 -75 472 -97 472 -121 c 0
 472 -165 426 -210 337 -210 c 0
 291 -210 238 -197 193 -165 c 2
 188 -161 l 1
 225 -101 l 1
 230 -106 l 1
 266 -135 309 -146 344 -146 c 0
 388 -146 392 -134 392 -130 c 0
 392 -126 389 -122 382 -119 c 0
 372 -114 355 -114 342 -114 c 2xb8
 300 -114 l 1xd8
EndSplineSet
EndChar

StartChar: uni00B9
Encoding: 185 185 121
Width: 613
GlyphClass: 2
Flags: MW
VStem: 273 107<300 637 637 637>
LayerCount: 2
Fore
SplineSet
380 751 m 1
 380 300 l 1
 273 300 l 1
 273 637 l 1
 166 609 l 1
 134 670 l 1
 309 751 l 1
 380 751 l 1
EndSplineSet
EndChar

StartChar: ordmasculine
Encoding: 186 186 122
Width: 613
GlyphClass: 2
Flags: MW
HStem: 165 95<85 530 85 530> 289 99<283 324.5 283 350> 641 97<281.5 324.5>
VStem: 108 103<467 557 467 574> 395 102<465.5 556.5>
LayerCount: 2
Fore
SplineSet
108 505 m 0
 108 643 200 738 309 738 c 0
 404 738 497 663 497 519 c 0
 497 364 398 289 302 289 c 0
 198 289 108 373 108 505 c 0
303 641 m 0
 260 641 211 603 211 511 c 0
 211 423 262 388 304 388 c 0
 345 388 395 420 395 511 c 0
 395 602 346 641 303 641 c 0
85 165 m 1
 85 260 l 1
 530 260 l 1
 530 165 l 1
 85 165 l 1
EndSplineSet
EndChar

StartChar: guillemotright
Encoding: 187 187 123
Width: 613
GlyphClass: 2
Flags: W
LayerCount: 2
Fore
SplineSet
340 307 m 1
 340 266 l 1
 138 61 l 1
 69 130 l 1
 220 285 l 1
 77 415 l 1
 144 486 l 1
 340 307 l 1
555 307 m 1
 555 266 l 1
 353 61 l 1
 284 130 l 1
 435 285 l 1
 292 415 l 1
 359 486 l 1
 555 307 l 1
EndSplineSet
EndChar

StartChar: onequarter
Encoding: 188 188 124
Width: 613
GlyphClass: 2
Flags: MW
HStem: 10 68.8 775 20G
VStem: 108.4 85.6 448.6 78.4
LayerCount: 2
Fore
SplineSet
194 803.799804688 m 1
 194 443 l 1
 108.400390625 443 l 1
 108.400390625 712.599609375 l 1
 22.7998046875 690.200195312 l 1
 -2.7998046875 739 l 1
 137.200195312 803.799804688 l 1
 194 803.799804688 l 1
275.799804688 59.599609375 m 1
 471.799804688 286.799804688 l 1
 527 286.799804688 l 1
 527 78.7998046875 l 1
 587 78.7998046875 l 1
 587 9.2001953125 l 1
 527 9.2001953125 l 1
 527 -82.7998046875 l 1
 448.599609375 -82.7998046875 l 1
 448.599609375 10 l 1
 275.799804688 10 l 1
 275.799804688 59.599609375 l 1
449.400390625 78.7998046875 m 1
 449.400390625 170.799804688 l 1
 375.799804688 78.7998046875 l 1
 449.400390625 78.7998046875 l 1
163 -56 m 1
 80 -11 l 1
 465 795 l 1
 548 749 l 1
 163 -56 l 1
EndSplineSet
EndChar

StartChar: onehalf
Encoding: 189 189 125
Width: 613
GlyphClass: 2
Flags: MW
HStem: -87 76<427.6 571.6 571.6 572.4> 204.2 73.6 775 20G
VStem: 108.4 85.6 516.4 81.6
LayerCount: 2
Fore
SplineSet
194 803.799804688 m 1
 194 443 l 1
 108.400390625 443 l 1
 108.400390625 712.599609375 l 1
 22.7998046875 690.200195312 l 1
 -2.7998046875 739 l 1
 137.200195312 803.799804688 l 1
 194 803.799804688 l 1
303.599609375 182.599609375 m 1
 309.200195312 193 l 2
 339.599609375 246.599609375 398 277.799804688 459.599609375 277.799804688 c 0
 540.400390625 277.799804688 598 231.400390625 598 173 c 0
 598 128.200195312 563.599609375 97.7998046875 550 86.599609375 c 0
 515.599609375 54.599609375 472.400390625 32.2001953125 427.599609375 -11 c 1
 571.599609375 -11 l 1
 572.400390625 -11 l 1
 573.200195312 -10.2001953125 l 2
 574 -9.400390625 583.599609375 1.7998046875 598 -3 c 2
 606.799804688 -6.2001953125 l 1
 606.799804688 -87 l 1
 316.400390625 -87 l 1
 316.400390625 -28.599609375 l 1
 318.799804688 -25.400390625 l 2
 373.200195312 42.599609375 445.200195312 85 472.400390625 105 c 0
 499.599609375 125 516.400390625 143.400390625 516.400390625 163.400390625 c 0
 516.400390625 183.400390625 497.200195312 204.200195312 457.200195312 204.200195312 c 0
 425.200195312 204.200195312 397.200195312 187.400390625 382.799804688 169 c 0
 380.400390625 165.799804688 381.200195312 163.400390625 374.799804688 151.400390625 c 2
 368.400390625 139.400390625 l 1
 303.599609375 182.599609375 l 1
163 -56 m 1
 80 -11 l 1
 465 795 l 1
 548 749 l 1
 163 -56 l 1
EndSplineSet
EndChar

StartChar: threequarters
Encoding: 190 190 126
Width: 613
GlyphClass: 2
Flags: MW
HStem: 10 68.8 444.4 77.6 611.6 69.6 737.2 74.4 775 20G
VStem: 215.8 80.8 229.4 83.2 448.6 78.4
LayerCount: 2
Fore
SplineSet
275.799804688 59.599609375 m 1x81
 471.799804688 286.799804688 l 1
 527 286.799804688 l 1
 527 78.7998046875 l 1
 587 78.7998046875 l 1
 587 9.2001953125 l 1
 527 9.2001953125 l 1
 527 -82.7998046875 l 1
 448.599609375 -82.7998046875 l 1
 448.599609375 10 l 1
 275.799804688 10 l 1
 275.799804688 59.599609375 l 1x81
449.400390625 78.7998046875 m 1
 449.400390625 170.799804688 l 1
 375.799804688 78.7998046875 l 1
 449.400390625 78.7998046875 l 1
24.599609375 748.400390625 m 2x74
 59 789.200195312 108.599609375 811.599609375 159.799804688 811.599609375 c 0
 235.799804688 811.599609375 296.599609375 767.599609375 296.599609375 712.400390625 c 0x74
 296.599609375 686.799804688 282.200195312 664.400390625 261.400390625 650 c 1
 293.400390625 633.200195312 312.599609375 602 312.599609375 566 c 0
 312.599609375 494 235.799804688 444.400390625 156.599609375 444.400390625 c 0
 101.400390625 444.400390625 48.599609375 468.400390625 12.599609375 510 c 2
 5.400390625 518 l 1
 65.400390625 585.200195312 l 1
 75 575.599609375 l 2
 88.599609375 561.200195312 84.599609375 553.200195312 87.7998046875 550 c 0
 91.7998046875 546 117.400390625 522 157.400390625 522 c 0
 200.599609375 522 229.400390625 547.599609375 229.400390625 571.599609375 c 0x72
 229.400390625 582 225.400390625 611.599609375 158.200195312 611.599609375 c 0
 148.599609375 611.599609375 139.799804688 610.799804688 131 610 c 2
 117.400390625 608.400390625 l 1
 117.400390625 682.799804688 l 1
 131 682 l 2
 136.599609375 681.200195312 143 681.200195312 148.599609375 681.200195312 c 0
 207 681.200195312 215.799804688 697.200195312 215.799804688 706.799804688 c 0
 215.799804688 720.400390625 194.200195312 737.200195312 156.599609375 737.200195312 c 0
 128.599609375 737.200195312 99 722.799804688 78.2001953125 697.200195312 c 2
 69.400390625 686 l 1
 17.400390625 739.599609375 l 1
 24.599609375 748.400390625 l 2x74
169 -56 m 1x08
 86 -11 l 1
 471 795 l 1
 554 749 l 1
 169 -56 l 1x08
EndSplineSet
EndChar

StartChar: questiondown
Encoding: 191 191 127
Width: 613
GlyphClass: 2
Flags: MW
HStem: -16 109<278 335.5 278 348> 622 167<272.5 319.5>
VStem: 75 125<172 237.5 172 269> 210 172<683 729> 244 109<521 532 494 532>
LayerCount: 2
Fore
SplineSet
296 622 m 0x00
 249 622 210 660 210 706 c 0
 210 752 249 789 296 789 c 0
 343 789 382 752 382 706 c 0
 382 660 343 622 296 622 c 0x00
550 126 m 1
 543 115 l 2
 488 31 395 -16 301 -16 c 0
 158 -16 75 91 75 209 c 0
 75 329 161 379 198 412 c 0
 243 452 244 480 244 521 c 2
 244 532 l 1
 353 532 l 1
 353 521 l 2
 353 467 348 419 293 358 c 0
 255 316 200 272 200 203 c 0
 200 141 247 93 309 93 c 0
 362 93 421 129 456 188 c 2
 466 204 l 1
 550 126 l 1
EndSplineSet
EndChar

StartChar: Agrave
Encoding: 192 192 128
Width: 613
GlyphClass: 2
Flags: MW
HStem: 0 20G 201 95<219 375 219 405 192 375> 780 164
VStem: 156 271<853 863>
LayerCount: 2
Fore
SplineSet
121 -1 m 1
 6 -1 l 1
 278 753 l 1
 309 753 l 1
 606 0 l 1
 487 0 l 1
 405 201 l 1
 192 201 l 1
 121 -1 l 1
219 296 m 1
 375 296 l 1
 294 516 l 1
 219 296 l 1
156 863 m 1
 219 944 l 1
 427 853 l 1
 386 780 l 1
 156 863 l 1
EndSplineSet
EndChar

StartChar: Aacute
Encoding: 193 193 129
Width: 613
GlyphClass: 2
Flags: MW
HStem: 0 20G 201 95<219 375 219 405 192 375> 780 164
VStem: 174 272<853 863>
LayerCount: 2
Fore
SplineSet
121 -1 m 1
 6 -1 l 1
 278 753 l 1
 309 753 l 1
 606 0 l 1
 487 0 l 1
 405 201 l 1
 192 201 l 1
 121 -1 l 1
219 296 m 1
 375 296 l 1
 294 516 l 1
 219 296 l 1
174 853 m 1
 382 944 l 1
 446 863 l 1
 216 780 l 1
 174 853 l 1
EndSplineSet
EndChar

StartChar: Acircumflex
Encoding: 194 194 130
Width: 613
GlyphClass: 2
Flags: MW
HStem: 0 20G 201 95<219 375 219 405 192 375> 742 197<282 423>
LayerCount: 2
Fore
SplineSet
121 -1 m 1
 6 -1 l 1
 278 753 l 1
 309 753 l 1
 606 0 l 1
 487 0 l 1
 405 201 l 1
 192 201 l 1
 121 -1 l 1
219 296 m 1
 375 296 l 1
 294 516 l 1
 219 296 l 1
162 746 m 1
 109 808 l 1
 282 939 l 1
 318 939 l 1
 481 810 l 1
 423 742 l 1
 297 828 l 1
 162 746 l 1
EndSplineSet
EndChar

StartChar: Atilde
Encoding: 195 195 131
Width: 613
GlyphClass: 2
Flags: MW
HStem: 0 20G 201 95<219 375 219 405 192 375> 795 99<394 410 394 423.5> 854 98<233.5 262> 915 20G<469 469>
LayerCount: 2
Fore
SplineSet
121 -1 m 1xc0
 6 -1 l 1
 278 753 l 1
 309 753 l 1
 606 0 l 1
 487 0 l 1
 405 201 l 1
 192 201 l 1
 121 -1 l 1xc0
219 296 m 1
 375 296 l 1
 294 516 l 1
 219 296 l 1
179 819 m 1x10
 170 805 l 1
 92 861 l 1
 100 873 l 1
 145 924 193 952 247 952 c 0x10
 303 952 338 926 353 916 c 0
 373 903 387 894 401 894 c 0
 419 894 430 903 458 920 c 1
 469 935 l 1
 534 895 l 1
 526 885 l 2
 485 834 450 795 397 795 c 0x28
 315 795 280 854 244 854 c 0
 223 854 209 845 179 819 c 1x10
EndSplineSet
EndChar

StartChar: Adieresis
Encoding: 196 196 132
Width: 613
GlyphClass: 2
Flags: MW
HStem: 0 20G 201 95<219 375 219 405 192 375> 783 152<157 199>
VStem: 102 153<838 880> 334 152<838 880>
LayerCount: 2
Fore
SplineSet
121 -1 m 1
 6 -1 l 1
 278 753 l 1
 309 753 l 1
 606 0 l 1
 487 0 l 1
 405 201 l 1
 192 201 l 1
 121 -1 l 1
219 296 m 1
 375 296 l 1
 294 516 l 1
 219 296 l 1
334 859 m 0
 334 901 368 936 410 936 c 0
 452 936 486 901 486 859 c 0
 486 817 452 783 410 783 c 0
 368 783 334 817 334 859 c 0
102 859 m 0
 102 901 136 935 178 935 c 0
 220 935 255 901 255 859 c 0
 255 817 220 783 178 783 c 0
 136 783 102 817 102 859 c 0
EndSplineSet
EndChar

StartChar: Aring
Encoding: 197 197 133
Width: 613
GlyphClass: 2
Flags: MW
HStem: 0 20G 201 95<219 375 219 405 192 375> 728 64<284.5 307.5 284.5 327> 882 61<284.5 307.5>
VStem: 181 72<824 850 824 865.5> 339 71<824 850>
LayerCount: 2
Fore
SplineSet
121 -1 m 1
 6 -1 l 1
 278 753 l 1
 309 753 l 1
 606 0 l 1
 487 0 l 1
 405 201 l 1
 192 201 l 1
 121 -1 l 1
219 296 m 1
 375 296 l 1
 294 516 l 1
 219 296 l 1
295 943 m 0
 359 943 410 895 410 836 c 0
 410 777 359 728 295 728 c 0
 231 728 181 777 181 836 c 0
 181 895 231 943 295 943 c 0
296 882 m 0
 273 882 253 863 253 837 c 0
 253 811 273 792 296 792 c 0
 319 792 339 811 339 837 c 0
 339 863 319 882 296 882 c 0
EndSplineSet
EndChar

StartChar: AE
Encoding: 198 198 134
Width: 613
GlyphClass: 2
Flags: MW
HStem: 0 104<399 597 399 597> 185 100<193 294 193 294 166 294> 333 106<397 569 397 397> 636 104<394 600 394 394>
VStem: 294 103<333 333 333 608>
LayerCount: 2
Fore
SplineSet
-6 0 m 1
 237 740 l 1
 600 740 l 1
 600 636 l 1
 394 636 l 1
 396 439 l 1
 569 439 l 1
 569 333 l 1
 397 333 l 1
 399 104 l 1
 597 104 l 1
 597 0 l 1
 294 0 l 1
 294 185 l 1
 166 185 l 1
 102 0 l 1
 -6 0 l 1
294 285 m 1
 294 608 l 1
 193 285 l 1
 294 285 l 1
EndSplineSet
EndChar

StartChar: Ccedilla
Encoding: 199 199 135
Width: 613
GlyphClass: 2
Flags: MW
HStem: -210 64<326.5 366 326.5 381.5> -114 60<300 385> -114 114<300 379 315 342> -12 102<296 370 296 386> 648 97<291 363>
VStem: 43 112<280 464.5 280 510.5> 315 57<-54 0> 392 80<-132 -128>
LayerCount: 2
Fore
SplineSet
43 365 m 0x1c
 43 656 217 745 340 745 c 0
 444 745 538 685 580 590 c 2
 586 576 l 1
 486 527 l 1
 479 532 l 2
 466 541 467 554 467 556 c 2
 467 565 l 2
 467 567 467 566 465 570 c 0
 438 617 389 648 337 648 c 0
 245 648 155 556 155 373 c 0
 155 187 248 90 344 90 c 0
 396 90 449 121 481 173 c 2
 490 186 l 1
 577 130 l 1
 569 117 l 2
 520 37 433 -12 339 -12 c 0
 208 -12 43 84 43 365 c 0x1c
300 -114 m 1xc3
 315 0 l 1
 379 0 l 1xa3
 372 -54 l 1
 385 -54 l 2xc3
 400 -55 417 -56 434 -63 c 0
 459 -75 472 -97 472 -121 c 0
 472 -165 426 -210 337 -210 c 0
 291 -210 238 -197 193 -165 c 2
 188 -161 l 1
 225 -101 l 1
 230 -106 l 1
 266 -135 309 -146 344 -146 c 0
 388 -146 392 -134 392 -130 c 0
 392 -126 389 -122 382 -119 c 0
 372 -114 355 -114 342 -114 c 2xa3
 300 -114 l 1xc3
EndSplineSet
EndChar

StartChar: Egrave
Encoding: 200 200 136
Width: 613
GlyphClass: 2
Flags: MW
HStem: 0 104<174 546 174 546> 333 106<174 483 174 483> 636 104<174 549 174 174> 780 164
VStem: 65 109<104 333 439 636> 156 271<853 863>
LayerCount: 2
Fore
SplineSet
65 0 m 1xe8
 65 740 l 1
 549 740 l 1
 549 636 l 1
 174 636 l 1
 174 439 l 1
 483 439 l 1
 483 333 l 1
 174 333 l 1
 174 104 l 1
 546 104 l 1
 546 0 l 1
 65 0 l 1xe8
156 863 m 1x14
 219 944 l 1
 427 853 l 1
 386 780 l 1
 156 863 l 1x14
EndSplineSet
EndChar

StartChar: Eacute
Encoding: 201 201 137
Width: 613
GlyphClass: 2
Flags: MW
HStem: 0 104<174 546 174 546> 333 106<174 483 174 483> 636 104<174 549 174 174> 780 164
VStem: 65 109<104 333 439 636> 194 272<853 863>
LayerCount: 2
Fore
SplineSet
65 0 m 1
 65 740 l 1
 549 740 l 1
 549 636 l 1
 174 636 l 1
 174 439 l 1
 483 439 l 1
 483 333 l 1
 174 333 l 1
 174 104 l 1
 546 104 l 1
 546 0 l 1
 65 0 l 1
194 853 m 1
 402 944 l 1
 466 863 l 1
 236 780 l 1
 194 853 l 1
EndSplineSet
EndChar

StartChar: Ecircumflex
Encoding: 202 202 138
Width: 613
GlyphClass: 2
Flags: MW
HStem: 0 104<174 546 174 546> 333 106<174 483 174 483> 636 104<174 549 174 174> 742 197<292 433>
VStem: 65 109<104 333 439 636>
LayerCount: 2
Fore
SplineSet
65 0 m 1
 65 740 l 1
 549 740 l 1
 549 636 l 1
 174 636 l 1
 174 439 l 1
 483 439 l 1
 483 333 l 1
 174 333 l 1
 174 104 l 1
 546 104 l 1
 546 0 l 1
 65 0 l 1
172 746 m 1
 119 808 l 1
 292 939 l 1
 328 939 l 1
 491 810 l 1
 433 742 l 1
 307 828 l 1
 172 746 l 1
EndSplineSet
EndChar

StartChar: Edieresis
Encoding: 203 203 139
Width: 613
GlyphClass: 2
Flags: MW
HStem: 0 104<174 546 174 546> 333 106<174 483 174 483> 636 104<174 549 174 174> 783 152<165 207>
VStem: 65 109<104 333 439 636> 110 153<838 880> 342 152<838 880>
LayerCount: 2
Fore
SplineSet
65 0 m 1xe8
 65 740 l 1
 549 740 l 1
 549 636 l 1
 174 636 l 1
 174 439 l 1
 483 439 l 1
 483 333 l 1
 174 333 l 1
 174 104 l 1
 546 104 l 1
 546 0 l 1
 65 0 l 1xe8
342 859 m 0x16
 342 901 376 936 418 936 c 0
 460 936 494 901 494 859 c 0
 494 817 460 783 418 783 c 0
 376 783 342 817 342 859 c 0x16
110 859 m 0
 110 901 144 935 186 935 c 0
 228 935 263 901 263 859 c 0
 263 817 228 783 186 783 c 0
 144 783 110 817 110 859 c 0
EndSplineSet
EndChar

StartChar: Igrave
Encoding: 204 204 140
Width: 613
GlyphClass: 2
Flags: MW
HStem: -1 99<350 504 350 504> 639 100<99 497 99 237 350 350 350 497> 780 164
VStem: 156 271<853 863> 237 113<99 639 98 639>
LayerCount: 2
Fore
SplineSet
99 639 m 1xc8
 99 739 l 1
 497 739 l 1
 497 639 l 1
 350 639 l 1
 350 98 l 1
 504 98 l 1
 504 -1 l 1
 91 -1 l 1
 91 99 l 1
 237 99 l 1
 237 639 l 1
 99 639 l 1xc8
156 863 m 1x30
 219 944 l 1
 427 853 l 1
 386 780 l 1
 156 863 l 1x30
EndSplineSet
EndChar

StartChar: Iacute
Encoding: 205 205 141
Width: 613
GlyphClass: 2
Flags: MW
HStem: -1 99<350 504 350 504> 639 100<99 497 99 237 350 350 350 497> 780 164
VStem: 194 272<853 863> 237 113<99 639 98 639>
LayerCount: 2
Fore
SplineSet
99 639 m 1xc8
 99 739 l 1
 497 739 l 1
 497 639 l 1
 350 639 l 1
 350 98 l 1
 504 98 l 1
 504 -1 l 1
 91 -1 l 1
 91 99 l 1
 237 99 l 1
 237 639 l 1
 99 639 l 1xc8
194 853 m 1x30
 402 944 l 1
 466 863 l 1
 236 780 l 1
 194 853 l 1x30
EndSplineSet
EndChar

StartChar: Icircumflex
Encoding: 206 206 142
Width: 613
GlyphClass: 2
Flags: MW
HStem: -1 99<350 504 350 504> 639 100<99 497 99 237 350 350 350 497> 742 197<281 422>
VStem: 237 113<99 639 98 639>
LayerCount: 2
Fore
SplineSet
99 639 m 1
 99 739 l 1
 497 739 l 1
 497 639 l 1
 350 639 l 1
 350 98 l 1
 504 98 l 1
 504 -1 l 1
 91 -1 l 1
 91 99 l 1
 237 99 l 1
 237 639 l 1
 99 639 l 1
161 746 m 1
 108 808 l 1
 281 939 l 1
 317 939 l 1
 480 810 l 1
 422 742 l 1
 296 828 l 1
 161 746 l 1
EndSplineSet
EndChar

StartChar: Idieresis
Encoding: 207 207 143
Width: 613
GlyphClass: 2
Flags: MW
HStem: -1 99<350 504 350 504> 639 100<99 497 99 237 350 350 350 497> 783 152<161 203>
VStem: 106 153<838 880> 237 113<99 639 98 639> 338 152<838 880>
LayerCount: 2
Fore
SplineSet
99 639 m 1xc8
 99 739 l 1
 497 739 l 1
 497 639 l 1
 350 639 l 1
 350 98 l 1
 504 98 l 1
 504 -1 l 1
 91 -1 l 1
 91 99 l 1
 237 99 l 1
 237 639 l 1
 99 639 l 1xc8
338 859 m 0x34
 338 901 372 936 414 936 c 0
 456 936 490 901 490 859 c 0
 490 817 456 783 414 783 c 0
 372 783 338 817 338 859 c 0x34
106 859 m 0
 106 901 140 935 182 935 c 0
 224 935 259 901 259 859 c 0
 259 817 224 783 182 783 c 0
 140 783 106 817 106 859 c 0
EndSplineSet
EndChar

StartChar: Eth
Encoding: 208 208 144
Width: 613
GlyphClass: 2
Flags: MW
HStem: -1 99<196 251 251 255> 342 99<31 88 31 88 196 319> 639 100<196 264 196 196>
VStem: 88 108<98 342 98 342 98 342 441 639> 468 111<310 402.5>
LayerCount: 2
Fore
SplineSet
88 441 m 1
 88 739 l 1
 269 739 l 2
 334 739 390 733 445 694 c 0
 540 627 579 497 579 374 c 0
 579 220 518 77 396 22 c 0
 351 2 308 -1 255 -1 c 2
 88 -1 l 1
 88 342 l 1
 31 342 l 1
 31 441 l 1
 88 441 l 1
319 342 m 1
 196 342 l 1
 196 98 l 1
 251 98 l 2
 293 98 328 100 366 125 c 0
 430 167 468 256 468 364 c 0
 468 441 450 524 408 578 c 0
 362 638 310 639 264 639 c 2
 196 639 l 1
 196 441 l 1
 319 441 l 1
 319 342 l 1
EndSplineSet
EndChar

StartChar: Ntilde
Encoding: 209 209 145
Width: 613
GlyphClass: 2
Flags: MW
HStem: 0 21G<54 165 54 54> 719 21G 795 99<399 415 399 428.5> 854 98<238.5 267> 915 20G<474 474>
VStem: 54 111<0 538> 445 111<234 695 -1 740 -1 740>
LayerCount: 2
Fore
SplineSet
165 0 m 1xc6
 54 0 l 1
 54 739 l 1
 159 739 l 1
 445 234 l 1
 445 740 l 1
 562 740 l 1
 564 727 l 2
 566 715 560 706 559 704 c 0
 556 698 556 700 556 695 c 2
 556 -1 l 1
 466 -1 l 1
 165 538 l 1
 165 0 l 1xc6
184 819 m 1x10
 175 805 l 1
 97 861 l 1
 105 873 l 1
 150 924 198 952 252 952 c 0x10
 308 952 343 926 358 916 c 0
 378 903 392 894 406 894 c 0
 424 894 435 903 463 920 c 1
 474 935 l 1
 539 895 l 1
 531 885 l 2
 490 834 455 795 402 795 c 0x28
 320 795 285 854 249 854 c 0
 228 854 214 845 184 819 c 1x10
EndSplineSet
EndChar

StartChar: Ograve
Encoding: 210 210 146
Width: 613
GlyphClass: 2
Flags: MW
HStem: -11 111<276 334 276 355> 639 109<274.5 331> 780 164
VStem: 30 112<271.5 483 271.5 514> 156 271<853 863> 471 114<336.5 387.5>
LayerCount: 2
Fore
SplineSet
538 606 m 0
 580 526 585 435 585 368 c 0
 585 305 580 214 539 134 c 0
 488 35 398 -11 312 -11 c 0
 189 -11 30 86 30 371 c 0
 30 657 192 748 311 748 c 0
 397 748 487 702 538 606 c 0
443 538 m 0
 411 614 354 639 308 639 c 0
 241 639 142 585 142 381 c 0
 142 162 240 100 312 100 c 0
 356 100 408 124 440 187 c 0
 468 244 471 313 471 358 c 0
 471 417 467 482 443 538 c 0
156 863 m 1
 219 944 l 1
 427 853 l 1
 386 780 l 1
 156 863 l 1
EndSplineSet
EndChar

StartChar: Oacute
Encoding: 211 211 147
Width: 613
GlyphClass: 2
Flags: MW
HStem: -11 111<276 334 276 355> 639 109<274.5 331> 780 164
VStem: 30 112<271.5 483 271.5 514> 194 272<853 863> 471 114<336.5 387.5>
LayerCount: 2
Fore
SplineSet
538 606 m 0
 580 526 585 435 585 368 c 0
 585 305 580 214 539 134 c 0
 488 35 398 -11 312 -11 c 0
 189 -11 30 86 30 371 c 0
 30 657 192 748 311 748 c 0
 397 748 487 702 538 606 c 0
443 538 m 0
 411 614 354 639 308 639 c 0
 241 639 142 585 142 381 c 0
 142 162 240 100 312 100 c 0
 356 100 408 124 440 187 c 0
 468 244 471 313 471 358 c 0
 471 417 467 482 443 538 c 0
194 853 m 1
 402 944 l 1
 466 863 l 1
 236 780 l 1
 194 853 l 1
EndSplineSet
Substitution2: "sous-table 'locl' Formes localis+AOkA-es g+AOkA-ographiquement dans Latin lookup 0" Oacute.pl
EndChar

StartChar: Ocircumflex
Encoding: 212 212 148
Width: 613
GlyphClass: 2
Flags: MW
HStem: -11 111<276 334 276 355> 639 109<274.5 331> 742 197<295 436>
VStem: 30 112<271.5 483 271.5 514> 471 114<336.5 387.5>
LayerCount: 2
Fore
SplineSet
538 606 m 0xd8
 580 526 585 435 585 368 c 0
 585 305 580 214 539 134 c 0
 488 35 398 -11 312 -11 c 0
 189 -11 30 86 30 371 c 0
 30 657 192 748 311 748 c 0
 397 748 487 702 538 606 c 0xd8
443 538 m 0
 411 614 354 639 308 639 c 0
 241 639 142 585 142 381 c 0
 142 162 240 100 312 100 c 0
 356 100 408 124 440 187 c 0
 468 244 471 313 471 358 c 0
 471 417 467 482 443 538 c 0
175 746 m 1x20
 122 808 l 1
 295 939 l 1
 331 939 l 1
 494 810 l 1
 436 742 l 1
 310 828 l 1
 175 746 l 1x20
EndSplineSet
EndChar

StartChar: Otilde
Encoding: 213 213 149
Width: 613
GlyphClass: 2
Flags: MW
HStem: -11 111<276 334 276 355> 639 109<274.5 331> 795 99<399 415 399 428.5> 854 98<238.5 267> 915 20G<474 474>
VStem: 30 112<271.5 483 271.5 514> 471 114<336.5 387.5>
LayerCount: 2
Fore
SplineSet
538 606 m 0xc6
 580 526 585 435 585 368 c 0
 585 305 580 214 539 134 c 0
 488 35 398 -11 312 -11 c 0
 189 -11 30 86 30 371 c 0
 30 657 192 748 311 748 c 0
 397 748 487 702 538 606 c 0xc6
443 538 m 0
 411 614 354 639 308 639 c 0
 241 639 142 585 142 381 c 0
 142 162 240 100 312 100 c 0
 356 100 408 124 440 187 c 0
 468 244 471 313 471 358 c 0
 471 417 467 482 443 538 c 0
184 819 m 1x10
 175 805 l 1
 97 861 l 1
 105 873 l 1
 150 924 198 952 252 952 c 0x10
 308 952 343 926 358 916 c 0
 378 903 392 894 406 894 c 0
 424 894 435 903 463 920 c 1
 474 935 l 1
 539 895 l 1
 531 885 l 2
 490 834 455 795 402 795 c 0x28
 320 795 285 854 249 854 c 0
 228 854 214 845 184 819 c 1x10
EndSplineSet
EndChar

StartChar: Odieresis
Encoding: 214 214 150
Width: 613
GlyphClass: 2
Flags: MW
HStem: -11 111<276 334 276 355> 639 109<274.5 331> 783 152<165 207>
VStem: 30 112<271.5 483 271.5 514> 110 153<838 880> 342 152<838 880> 471 114<336.5 387.5>
LayerCount: 2
Fore
SplineSet
538 606 m 0xd2
 580 526 585 435 585 368 c 0
 585 305 580 214 539 134 c 0
 488 35 398 -11 312 -11 c 0
 189 -11 30 86 30 371 c 0
 30 657 192 748 311 748 c 0
 397 748 487 702 538 606 c 0xd2
443 538 m 0
 411 614 354 639 308 639 c 0
 241 639 142 585 142 381 c 0
 142 162 240 100 312 100 c 0
 356 100 408 124 440 187 c 0
 468 244 471 313 471 358 c 0
 471 417 467 482 443 538 c 0
342 859 m 0x2c
 342 901 376 936 418 936 c 0
 460 936 494 901 494 859 c 0
 494 817 460 783 418 783 c 0
 376 783 342 817 342 859 c 0x2c
110 859 m 0
 110 901 144 935 186 935 c 0
 228 935 263 901 263 859 c 0
 263 817 228 783 186 783 c 0
 144 783 110 817 110 859 c 0
EndSplineSet
EndChar

StartChar: multiply
Encoding: 215 215 151
Width: 613
GlyphClass: 2
Flags: W
LayerCount: 2
Fore
SplineSet
463 607 m 1
 542 534 l 1
 388 386 l 1
 539 226 l 1
 461 150 l 1
 312 308 l 1
 164 155 l 1
 89 229 l 1
 239 385 l 1
 89 532 l 1
 167 608 l 1
 314 453 l 1
 463 607 l 1
EndSplineSet
EndChar

StartChar: Oslash
Encoding: 216 216 152
Width: 613
GlyphClass: 2
Flags: MW
HStem: -11 111<299 334 299 355> 639 109<274.5 321>
VStem: 30 112<329 474 329 513> 471 114<349 400>
LayerCount: 2
Fore
SplineSet
390 608 m 1
 362 631 334 639 308 639 c 0
 241 639 142 582 142 366 c 0
 142 292 153 234 169 192 c 1
 390 608 l 1
538 606 m 0
 580 526 585 435 585 368 c 0
 585 305 580 214 539 134 c 0
 488 34 398 -11 312 -11 c 0
 270 -11 223 1 179 29 c 1
 121 -80 l 1
 32 -34 l 1
 104 96 l 1
 59 158 30 246 30 370 c 0
 30 656 192 748 311 748 c 0
 356 748 402 735 443 708 c 1
 496 808 l 1
 587 760 l 1
 519 637 l 1
 527 626 532 617 538 606 c 0
471 373 m 0
 471 427 468 485 452 538 c 1
 233 129 l 1
 259 109 286 100 312 100 c 0
 356 100 408 125 440 192 c 0
 468 252 471 325 471 373 c 0
EndSplineSet
EndChar

StartChar: Ugrave
Encoding: 217 217 153
Width: 613
GlyphClass: 2
Flags: MW
HStem: -13 101<283.5 336 283.5 354> 719 20G<54 173 173 173 455 564 564 564> 780 164
VStem: 54 113<259 261 261 688> 54 125<712.5 721 712.5 739 712.5 739> 156 271<853 863> 455 109<264 739>
LayerCount: 2
Fore
SplineSet
54 259 m 2xd2
 54 739 l 1xd2
 173 739 l 1
 177 730 l 2
 179 726 179 723 179 719 c 0xca
 179 706 171 696 169 694 c 0
 167 691 167 692 167 688 c 2
 167 261 l 2
 167 226 168 194 183 163 c 0
 207 114 257 88 310 88 c 0
 362 88 412 113 437 162 c 0
 453 195 455 228 455 264 c 2
 455 739 l 1
 564 739 l 1
 564 263 l 2
 564 211 563 158 533 105 c 0
 488 25 399 -13 309 -13 c 0
 217 -13 129 26 85 105 c 0
 56 157 54 209 54 259 c 2xd2
156 863 m 1x24
 219 944 l 1
 427 853 l 1
 386 780 l 1
 156 863 l 1x24
EndSplineSet
EndChar

StartChar: Uacute
Encoding: 218 218 154
Width: 613
GlyphClass: 2
Flags: MW
HStem: -13 101<283.5 336 283.5 354> 719 20G<54 173 173 173 455 564 564 564> 780 164
VStem: 54 113<259 261 261 688> 54 125<712.5 721 712.5 739 712.5 739> 194 272<853 863> 455 109<264 739>
LayerCount: 2
Fore
SplineSet
54 259 m 2xd2
 54 739 l 1xd2
 173 739 l 1
 177 730 l 2
 179 726 179 723 179 719 c 0xca
 179 706 171 696 169 694 c 0
 167 691 167 692 167 688 c 2
 167 261 l 2
 167 226 168 194 183 163 c 0
 207 114 257 88 310 88 c 0
 362 88 412 113 437 162 c 0
 453 195 455 228 455 264 c 2
 455 739 l 1
 564 739 l 1
 564 263 l 2
 564 211 563 158 533 105 c 0
 488 25 399 -13 309 -13 c 0
 217 -13 129 26 85 105 c 0
 56 157 54 209 54 259 c 2xd2
194 853 m 1x24
 402 944 l 1
 466 863 l 1
 236 780 l 1
 194 853 l 1x24
EndSplineSet
EndChar

StartChar: Ucircumflex
Encoding: 219 219 155
Width: 613
GlyphClass: 2
Flags: MW
HStem: -13 101<283.5 336 283.5 354> 719 20G<54 173 173 173 455 564 564 564> 742 197<295 436>
VStem: 54 113<259 261 261 688> 54 125<712.5 721 712.5 739 712.5 739> 455 109<264 739>
LayerCount: 2
Fore
SplineSet
54 259 m 2xd4
 54 739 l 1xd4
 173 739 l 1
 177 730 l 2
 179 726 179 723 179 719 c 0xcc
 179 706 171 696 169 694 c 0
 167 691 167 692 167 688 c 2
 167 261 l 2
 167 226 168 194 183 163 c 0
 207 114 257 88 310 88 c 0
 362 88 412 113 437 162 c 0
 453 195 455 228 455 264 c 2
 455 739 l 1
 564 739 l 1
 564 263 l 2
 564 211 563 158 533 105 c 0
 488 25 399 -13 309 -13 c 0
 217 -13 129 26 85 105 c 0
 56 157 54 209 54 259 c 2xd4
175 746 m 1x20
 122 808 l 1
 295 939 l 1
 331 939 l 1
 494 810 l 1
 436 742 l 1
 310 828 l 1
 175 746 l 1x20
EndSplineSet
EndChar

StartChar: Udieresis
Encoding: 220 220 156
Width: 613
GlyphClass: 2
Flags: MW
HStem: -13 101<283.5 336 283.5 354> 719 20G<54 173 173 173 455 564 564 564> 783 152<175 217>
VStem: 54 113<259 261 261 688> 54 125<712.5 721 712.5 739 712.5 739> 120 153<838 880> 352 152<838 880> 455 109<264 739>
LayerCount: 2
Fore
SplineSet
54 259 m 2xd1
 54 739 l 1xd1
 173 739 l 1
 177 730 l 2
 179 726 179 723 179 719 c 0xc9
 179 706 171 696 169 694 c 0
 167 691 167 692 167 688 c 2
 167 261 l 2
 167 226 168 194 183 163 c 0
 207 114 257 88 310 88 c 0
 362 88 412 113 437 162 c 0
 453 195 455 228 455 264 c 2
 455 739 l 1
 564 739 l 1
 564 263 l 2
 564 211 563 158 533 105 c 0
 488 25 399 -13 309 -13 c 0
 217 -13 129 26 85 105 c 0
 56 157 54 209 54 259 c 2xd1
352 859 m 0x26
 352 901 386 936 428 936 c 0
 470 936 504 901 504 859 c 0
 504 817 470 783 428 783 c 0
 386 783 352 817 352 859 c 0x26
120 859 m 0
 120 901 154 935 196 935 c 0
 238 935 273 901 273 859 c 0
 273 817 238 783 196 783 c 0
 154 783 120 817 120 859 c 0
EndSplineSet
EndChar

StartChar: Yacute
Encoding: 221 221 157
Width: 613
GlyphClass: 2
Flags: MW
HStem: 0 21G<256 377 256 256> 720 20G<19 148 148 148> 780 164
VStem: 194 272<853 863> 256 121<0 291 291 291>
LayerCount: 2
Fore
SplineSet
256 291 m 1xc8
 19 740 l 1
 148 740 l 1
 319 401 l 1
 473 739 l 1
 596 739 l 1
 377 292 l 1
 377 0 l 1
 256 0 l 1
 256 291 l 1xc8
194 853 m 1x30
 402 944 l 1
 466 863 l 1
 236 780 l 1
 194 853 l 1x30
EndSplineSet
EndChar

StartChar: Thorn
Encoding: 222 222 158
Width: 613
GlyphClass: 2
Flags: MW
HStem: 0 21G<65 65 65 179> 172 103<179 311 179 314> 507 97<179 305 179 305> 719 20G<65 184 184 184>
VStem: 65 114<0 172 0 275 275 507 604 692> 65 124<712.5 720.5 712.5 739 712.5 739> 451 115<367 409.5>
LayerCount: 2
Fore
SplineSet
65 0 m 1xfa
 65 739 l 1xfa
 184 739 l 1
 188 729 l 2
 189 726 189 722 189 719 c 0xf6
 189 706 181 699 180 697 c 0
 178 695 179 696 179 692 c 2
 179 604 l 1
 305 604 l 2
 353 604 402 602 452 577 c 0
 528 539 566 463 566 386 c 0
 566 308 528 234 454 197 c 0
 405 173 357 172 311 172 c 2
 179 172 l 1
 179 0 l 1
 65 0 l 1xfa
305 507 m 2
 179 507 l 1
 179 275 l 1
 314 275 l 2
 343 275 368 276 393 289 c 0
 430 308 451 346 451 388 c 0
 451 431 429 473 389 493 c 0
 362 506 336 507 305 507 c 2
EndSplineSet
EndChar

StartChar: germandbls
Encoding: 223 223 159
Width: 613
GlyphClass: 2
Flags: MW
HStem: -12 106<329 375 329 408> 0 21G<60 172 60 60> 366 92<249 298 298 300 249 298> 694 100<282 329.5>
VStem: 60 112<0 494 494 495> 413 112<548.5 607> 467 110<185.5 248.5>
LayerCount: 2
Fore
SplineSet
172 0 m 1x7c
 60 0 l 1
 60 494 l 2
 60 546 61 600 87 656 c 0
 126 744 207 794 294 794 c 0
 421 794 525 691 525 569 c 0x7c
 525 509 496 456 449 422 c 1
 529 385 577 307 577 218 c 0
 577 88 473 -12 343 -12 c 0
 296 -12 251 1 212 27 c 2
 199 35 l 1
 258 129 l 1
 272 119 l 2
 292 103 316 94 342 94 c 0
 408 94 467 149 467 222 c 0xba
 467 275 436 321 396 345 c 0
 366 363 338 366 300 366 c 2
 249 366 l 1
 249 458 l 1
 298 458 l 2
 316 458 329 458 346 465 c 0
 384 481 413 525 413 572 c 0
 413 642 360 694 299 694 c 0
 265 694 229 678 204 642 c 0
 174 600 172 545 172 495 c 2
 172 0 l 1x7c
EndSplineSet
EndChar

StartChar: agrave
Encoding: 224 224 160
Width: 613
GlyphClass: 2
Flags: MW
HStem: -13 96<235.5 281.5> 0 21G<430 542 430 430> 239 96<344 427 409 427 427 428 428 429 409 432> 454 100<291 345> 584 252<304 340>
VStem: 53 117<136.5 168.5 136.5 181.5> 202 223<635 768> 430 112<0 44 44 44>
LayerCount: 2
Fore
SplineSet
98 464 m 1xb5
 107 473 l 2
 161 529 235 554 311 554 c 0
 399 554 474 523 513 461 c 0
 540 417 542 375 542 333 c 2
 542 0 l 1
 430 0 l 1x75
 430 44 l 1
 373 5 312 -13 251 -13 c 0
 130 -13 53 63 53 149 c 0
 53 214 97 278 187 310 c 0
 255 334 334 335 409 335 c 2
 427 335 l 1
 429 335 l 1
 429 338 l 2
 429 364 429 392 414 414 c 0
 401 433 375 454 315 454 c 0
 267 454 211 440 171 398 c 2
 159 385 l 1
 98 464 l 1xb5
432 220 m 2
 432 239 l 1
 428 239 l 1
 364 239 l 2
 324 239 282 238 253 232 c 0
 191 218 170 183 170 154 c 0
 170 119 203 83 268 83 c 0xb5
 332 83 381 119 399 136 c 0
 432 168 432 195 432 220 c 2
202 768 m 1x0a
 304 836 l 1
 425 635 l 1
 340 584 l 1
 202 768 l 1x0a
EndSplineSet
EndChar

StartChar: aacute
Encoding: 225 225 161
Width: 613
GlyphClass: 2
Flags: MW
HStem: -13 96<235.5 281.5> 0 21G<430 542 430 430> 239 96<344 427 409 427 427 428 428 429 409 432> 454 100<291 345> 584 252<315 351>
VStem: 53 117<136.5 168.5 136.5 181.5> 231 222<635 768> 430 112<0 44 44 44>
LayerCount: 2
Fore
SplineSet
98 464 m 1xb5
 107 473 l 2
 161 529 235 554 311 554 c 0
 399 554 474 523 513 461 c 0
 540 417 542 375 542 333 c 2
 542 0 l 1
 430 0 l 1x75
 430 44 l 1
 373 5 312 -13 251 -13 c 0
 130 -13 53 63 53 149 c 0
 53 214 97 278 187 310 c 0
 255 334 334 335 409 335 c 2
 427 335 l 1
 429 335 l 1
 429 338 l 2
 429 364 429 392 414 414 c 0
 401 433 375 454 315 454 c 0
 267 454 211 440 171 398 c 2
 159 385 l 1
 98 464 l 1xb5
432 220 m 2
 432 239 l 1
 428 239 l 1
 364 239 l 2
 324 239 282 238 253 232 c 0
 191 218 170 183 170 154 c 0
 170 119 203 83 268 83 c 0xb5
 332 83 381 119 399 136 c 0
 432 168 432 195 432 220 c 2
231 635 m 1x0a
 351 836 l 1
 453 768 l 1
 315 584 l 1
 231 635 l 1x0a
EndSplineSet
EndChar

StartChar: acircumflex
Encoding: 226 226 162
Width: 613
GlyphClass: 2
Flags: MW
HStem: -13 96<235.5 281.5> 0 21G<430 542 430 430> 239 96<344 427 409 427 427 428 428 429 409 432> 454 100<291 345> 567 246<224 342 302 407>
VStem: 53 117<136.5 168.5 136.5 181.5> 156 332<627 629> 430 112<0 44 44 44>
LayerCount: 2
Fore
SplineSet
98 464 m 1xb5
 107 473 l 2
 161 529 235 554 311 554 c 0
 399 554 474 523 513 461 c 0
 540 417 542 375 542 333 c 2
 542 0 l 1
 430 0 l 1x75
 430 44 l 1
 373 5 312 -13 251 -13 c 0
 130 -13 53 63 53 149 c 0
 53 214 97 278 187 310 c 0
 255 334 334 335 409 335 c 2
 427 335 l 1
 429 335 l 1
 429 338 l 2
 429 364 429 392 414 414 c 0
 401 433 375 454 315 454 c 0
 267 454 211 440 171 398 c 2
 159 385 l 1
 98 464 l 1xb5
432 220 m 2
 432 239 l 1
 428 239 l 1
 364 239 l 2
 324 239 282 238 253 232 c 0
 191 218 170 183 170 154 c 0
 170 119 203 83 268 83 c 0xb5
 332 83 381 119 399 136 c 0
 432 168 432 195 432 220 c 2
224 567 m 1x0a
 156 629 l 1
 302 813 l 1
 342 813 l 1
 488 627 l 1
 407 567 l 1
 318 686 l 1
 224 567 l 1x0a
EndSplineSet
EndChar

StartChar: atilde
Encoding: 227 227 163
Width: 613
GlyphClass: 2
Flags: MW
HStem: -13 96<235.5 281.5> 0 21G<430 542 430 430> 239 96<344 427 409 427 427 428 428 429 409 432> 454 100<291 345> 645 99<410 426 410 439.5> 704 98<249.5 278> 765 20G<485 485>
VStem: 53 117<136.5 168.5 136.5 181.5> 430 112<0 44 44 44>
LayerCount: 2
Fore
SplineSet
98 464 m 1xb180
 107 473 l 2
 161 529 235 554 311 554 c 0
 399 554 474 523 513 461 c 0
 540 417 542 375 542 333 c 2
 542 0 l 1
 430 0 l 1x7180
 430 44 l 1
 373 5 312 -13 251 -13 c 0
 130 -13 53 63 53 149 c 0
 53 214 97 278 187 310 c 0
 255 334 334 335 409 335 c 2
 427 335 l 1
 429 335 l 1
 429 338 l 2
 429 364 429 392 414 414 c 0
 401 433 375 454 315 454 c 0
 267 454 211 440 171 398 c 2
 159 385 l 1
 98 464 l 1xb180
432 220 m 2
 432 239 l 1
 428 239 l 1
 364 239 l 2
 324 239 282 238 253 232 c 0
 191 218 170 183 170 154 c 0
 170 119 203 83 268 83 c 0xb180
 332 83 381 119 399 136 c 0
 432 168 432 195 432 220 c 2
195 669 m 1x04
 186 655 l 1
 108 711 l 1
 116 723 l 1
 161 774 209 802 263 802 c 0x04
 319 802 354 776 369 766 c 0
 389 753 403 744 417 744 c 0
 435 744 446 753 474 770 c 1
 485 785 l 1
 550 745 l 1
 542 735 l 2
 501 684 466 645 413 645 c 0x0a
 331 645 296 704 260 704 c 0
 239 704 225 695 195 669 c 1x04
EndSplineSet
EndChar

StartChar: adieresis
Encoding: 228 228 164
Width: 613
GlyphClass: 2
Flags: MW
HStem: -13 96<235.5 281.5> 0 21G<430 542 430 430> 239 96<344 427 409 427 427 428 428 429 409 432> 454 100<291 345> 636 152<185 227>
VStem: 53 117<136.5 168.5 136.5 181.5> 130 153<691 733> 362 152<691 733> 430 112<0 44 44 44>
LayerCount: 2
Fore
SplineSet
98 464 m 1xb480
 107 473 l 2
 161 529 235 554 311 554 c 0
 399 554 474 523 513 461 c 0
 540 417 542 375 542 333 c 2
 542 0 l 1
 430 0 l 1x7480
 430 44 l 1
 373 5 312 -13 251 -13 c 0
 130 -13 53 63 53 149 c 0
 53 214 97 278 187 310 c 0
 255 334 334 335 409 335 c 2
 427 335 l 1
 429 335 l 1
 429 338 l 2
 429 364 429 392 414 414 c 0
 401 433 375 454 315 454 c 0
 267 454 211 440 171 398 c 2
 159 385 l 1
 98 464 l 1xb480
432 220 m 2
 432 239 l 1
 428 239 l 1
 364 239 l 2
 324 239 282 238 253 232 c 0
 191 218 170 183 170 154 c 0
 170 119 203 83 268 83 c 0xb480
 332 83 381 119 399 136 c 0
 432 168 432 195 432 220 c 2
362 712 m 0x0b
 362 754 396 789 438 789 c 0
 480 789 514 754 514 712 c 0
 514 670 480 636 438 636 c 0
 396 636 362 670 362 712 c 0x0b
130 712 m 0
 130 754 164 788 206 788 c 0
 248 788 283 754 283 712 c 0
 283 670 248 636 206 636 c 0
 164 636 130 670 130 712 c 0
EndSplineSet
EndChar

StartChar: aring
Encoding: 229 229 165
Width: 613
GlyphClass: 2
Flags: MW
HStem: -13 96<235.5 281.5> 0 21G<430 542 430 430> 239 96<344 427 409 427 427 428 428 429 409 432> 454 100<291 345> 607 64<303.5 326.5 303.5 346> 761 61<303.5 326.5>
VStem: 53 117<136.5 168.5 136.5 181.5> 200 72<703 729 703 744.5> 358 71<703 729> 430 112<0 44 44 44>
LayerCount: 2
Fore
SplineSet
98 464 m 1xb240
 107 473 l 2
 161 529 235 554 311 554 c 0
 399 554 474 523 513 461 c 0
 540 417 542 375 542 333 c 2
 542 0 l 1
 430 0 l 1x7240
 430 44 l 1
 373 5 312 -13 251 -13 c 0
 130 -13 53 63 53 149 c 0
 53 214 97 278 187 310 c 0
 255 334 334 335 409 335 c 2
 427 335 l 1
 429 335 l 1
 429 338 l 2
 429 364 429 392 414 414 c 0
 401 433 375 454 315 454 c 0
 267 454 211 440 171 398 c 2
 159 385 l 1
 98 464 l 1xb240
432 220 m 2
 432 239 l 1
 428 239 l 1
 364 239 l 2
 324 239 282 238 253 232 c 0
 191 218 170 183 170 154 c 0
 170 119 203 83 268 83 c 0xb240
 332 83 381 119 399 136 c 0
 432 168 432 195 432 220 c 2
314 822 m 0x0d80
 378 822 429 774 429 715 c 0
 429 656 378 607 314 607 c 0
 250 607 200 656 200 715 c 0
 200 774 250 822 314 822 c 0x0d80
315 761 m 0
 292 761 272 742 272 716 c 0
 272 690 292 671 315 671 c 0
 338 671 358 690 358 716 c 0
 358 742 338 761 315 761 c 0
EndSplineSet
EndChar

StartChar: ae
Encoding: 230 230 166
Width: 613
GlyphClass: 2
Flags: MW
HStem: -13 88<166.5 199.5 166.5 205.5> -13 100<448 483 448 490.5> 244 94<247 257 247 247> 253 78<360 360> 262 75 457 97<164.5 193.5 428.5 451.5>
VStem: 7 107<130.5 166 130.5 182.5> 257 103<201.5 215 215 244 244 244> 508 99<262 346 262 358.5>
LayerCount: 2
Fore
SplineSet
27 473 m 1xa780
 35 483 l 2
 72 529 127 554 184 554 c 0
 238 554 286 529 316 492 c 1
 347 531 393 554 441 554 c 0
 489 554 542 533 573 482 c 0
 607 430 607 369 607 319 c 2
 607 262 l 1x0f80
 360 253 l 1
 360 215 l 2
 360 188 361 169 371 148 c 0
 389 110 428 87 468 87 c 0
 498 87 525 100 543 124 c 2
 554 139 l 1
 617 66 l 1
 609 56 l 2
 572 13 519 -13 462 -13 c 0x5780
 404 -13 350 13 314 56 c 1
 283 12 233 -13 178 -13 c 0
 84 -13 7 60 7 151 c 0
 7 214 45 281 125 315 c 0
 172 335 216 337 245 338 c 2
 257 338 l 1
 257 353 l 2
 257 373 256 390 250 406 c 0
 238 439 209 457 178 457 c 0
 151 457 121 440 102 412 c 2
 90 395 l 1
 27 473 l 1xa780
257 173 m 2
 257 244 l 1
 247 244 l 2
 216 243 189 242 162 228 c 0
 130 211 114 180 114 152 c 0
 114 109 147 75 186 75 c 0xa780
 213 75 240 90 251 120 c 0
 256 135 257 151 257 173 c 2
360 336 m 2
 360 331 l 1x1780
 508 337 l 1x0f80
 508 346 l 2
 508 371 508 393 498 414 c 0
 486 442 463 457 440 457 c 0
 417 457 396 442 380 419 c 0
 361 391 360 364 360 336 c 2
EndSplineSet
EndChar

StartChar: ccedilla
Encoding: 231 231 167
Width: 613
GlyphClass: 2
Flags: MW
HStem: -210 64<326.5 366 326.5 381.5> -114 60<300 385> -114 114<300 379 315 342> -13 108<303 376 303 384> 450 103<298.5 384.5>
VStem: 61 119<223.5 332.5 223.5 352> 315 57<-54 0> 392 80<-132 -128>
LayerCount: 2
Fore
SplineSet
565 446 m 1x1c
 571 436 l 1
 494 346 l 1
 482 354 l 2
 463 368 470 387 470 387 c 2
 465 395 425 450 344 450 c 0
 253 450 180 386 180 279 c 0
 180 168 255 95 351 95 c 0
 401 95 449 118 483 156 c 2
 495 169 l 1
 564 88 l 1
 555 78 l 2
 500 19 424 -13 344 -13 c 0
 182 -13 61 109 61 271 c 0
 61 433 181 553 349 553 c 0
 441 553 519 513 565 446 c 1x1c
300 -114 m 1xc3
 315 0 l 1
 379 0 l 1xa3
 372 -54 l 1
 385 -54 l 2xc3
 400 -55 417 -56 434 -63 c 0
 459 -75 472 -97 472 -121 c 0
 472 -165 426 -210 337 -210 c 0
 291 -210 238 -197 193 -165 c 2
 188 -161 l 1
 225 -101 l 1
 230 -106 l 1
 266 -135 309 -146 344 -146 c 0
 388 -146 392 -134 392 -130 c 0
 392 -126 389 -122 382 -119 c 0
 372 -114 355 -114 342 -114 c 2xa3
 300 -114 l 1xc3
EndSplineSet
EndChar

StartChar: egrave
Encoding: 232 232 168
Width: 613
GlyphClass: 2
Flags: MW
HStem: -12 99<302.5 360 302.5 369> 244 96<172 437 172 550 167 437> 459 96<286 347.5> 584 252<304 340>
VStem: 202 223<635 768> 437 116<288.5 343 288.5 375>
LayerCount: 2
Fore
SplineSet
52 266 m 0
 52 461 179 555 317 555 c 0
 411 555 521 506 547 360 c 0
 551 340 553 317 553 295 c 0
 553 282 552 270 551 257 c 2
 550 244 l 1
 167 244 l 1
 180 116 270 87 335 87 c 0
 385 87 431 106 464 143 c 2
 474 155 l 1
 543 88 l 1
 534 77 l 2
 485 18 410 -12 328 -12 c 0
 174 -12 52 87 52 266 c 0
311 459 m 0
 261 459 192 433 172 340 c 1
 437 340 l 1
 437 343 l 2
 437 407 384 459 311 459 c 0
202 768 m 1
 304 836 l 1
 425 635 l 1
 340 584 l 1
 202 768 l 1
EndSplineSet
EndChar

StartChar: eacute
Encoding: 233 233 169
Width: 613
GlyphClass: 2
Flags: MW
HStem: -12 99<302.5 360 302.5 369> 244 96<172 437 172 550 167 437> 459 96<286 347.5> 584 252<315 351>
VStem: 231 222<635 768> 437 116<288.5 343 288.5 375>
LayerCount: 2
Fore
SplineSet
52 266 m 0xe4
 52 461 179 555 317 555 c 0
 411 555 521 506 547 360 c 0
 551 340 553 317 553 295 c 0
 553 282 552 270 551 257 c 2
 550 244 l 1
 167 244 l 1
 180 116 270 87 335 87 c 0
 385 87 431 106 464 143 c 2
 474 155 l 1
 543 88 l 1
 534 77 l 2
 485 18 410 -12 328 -12 c 0
 174 -12 52 87 52 266 c 0xe4
311 459 m 0
 261 459 192 433 172 340 c 1
 437 340 l 1
 437 343 l 2
 437 407 384 459 311 459 c 0
231 635 m 1x18
 351 836 l 1
 453 768 l 1
 315 584 l 1
 231 635 l 1x18
EndSplineSet
EndChar

StartChar: ecircumflex
Encoding: 234 234 170
Width: 613
GlyphClass: 2
Flags: MW
HStem: -12 99<302.5 360 302.5 369> 244 96<172 437 172 550 167 437> 459 96<286 347.5> 567 246<216 334 294 399>
VStem: 148 332<627 629> 437 116<288.5 343 288.5 375>
LayerCount: 2
Fore
SplineSet
52 266 m 0xe4
 52 461 179 555 317 555 c 0
 411 555 521 506 547 360 c 0
 551 340 553 317 553 295 c 0
 553 282 552 270 551 257 c 2
 550 244 l 1
 167 244 l 1
 180 116 270 87 335 87 c 0
 385 87 431 106 464 143 c 2
 474 155 l 1
 543 88 l 1
 534 77 l 2
 485 18 410 -12 328 -12 c 0
 174 -12 52 87 52 266 c 0xe4
311 459 m 0
 261 459 192 433 172 340 c 1
 437 340 l 1
 437 343 l 2
 437 407 384 459 311 459 c 0
216 567 m 1x18
 148 629 l 1
 294 813 l 1
 334 813 l 1
 480 627 l 1
 399 567 l 1
 310 686 l 1
 216 567 l 1x18
EndSplineSet
EndChar

StartChar: edieresis
Encoding: 235 235 171
Width: 613
GlyphClass: 2
Flags: MW
HStem: -12 99<302.5 360 302.5 369> 244 96<172 437 172 550 167 437> 459 96<286 347.5> 636 152<172 214>
VStem: 117 153<691 733> 349 152<691 733> 437 116<288.5 343 288.5 375>
LayerCount: 2
Fore
SplineSet
52 266 m 0xe2
 52 461 179 555 317 555 c 0
 411 555 521 506 547 360 c 0
 551 340 553 317 553 295 c 0
 553 282 552 270 551 257 c 2
 550 244 l 1
 167 244 l 1
 180 116 270 87 335 87 c 0
 385 87 431 106 464 143 c 2
 474 155 l 1
 543 88 l 1
 534 77 l 2
 485 18 410 -12 328 -12 c 0
 174 -12 52 87 52 266 c 0xe2
311 459 m 0
 261 459 192 433 172 340 c 1
 437 340 l 1
 437 343 l 2
 437 407 384 459 311 459 c 0
349 712 m 0x1c
 349 754 383 789 425 789 c 0
 467 789 501 754 501 712 c 0
 501 670 467 636 425 636 c 0
 383 636 349 670 349 712 c 0x1c
117 712 m 0
 117 754 151 788 193 788 c 0
 235 788 270 754 270 712 c 0
 270 670 235 636 193 636 c 0
 151 636 117 670 117 712 c 0
EndSplineSet
EndChar

StartChar: igrave
Encoding: 236 236 172
Width: 613
GlyphClass: 2
Flags: MW
HStem: 0 99<114 252 369 496 114 252> 442 101<121 369 121 252> 584 252<253 289>
VStem: 151 223<635 768> 252 117<99 442 442 442>
LayerCount: 2
Fore
SplineSet
121 442 m 1xc8
 121 543 l 1
 369 543 l 1
 369 99 l 1
 496 99 l 1
 496 0 l 1
 114 0 l 1
 114 99 l 1
 252 99 l 1
 252 442 l 1
 121 442 l 1xc8
151 768 m 1x30
 253 836 l 1
 374 635 l 1
 289 584 l 1
 151 768 l 1x30
EndSplineSet
EndChar

StartChar: iacute
Encoding: 237 237 173
Width: 613
GlyphClass: 2
Flags: MW
HStem: 0 99<114 252 369 496 114 252> 442 101<121 369 121 252> 584 252<315 351>
VStem: 231 222<635 768> 252 117<99 442 442 442>
LayerCount: 2
Fore
SplineSet
121 442 m 1xc8
 121 543 l 1
 369 543 l 1
 369 99 l 1
 496 99 l 1
 496 0 l 1
 114 0 l 1
 114 99 l 1
 252 99 l 1
 252 442 l 1
 121 442 l 1xc8
231 635 m 1x30
 351 836 l 1
 453 768 l 1
 315 584 l 1
 231 635 l 1x30
EndSplineSet
EndChar

StartChar: icircumflex
Encoding: 238 238 174
Width: 613
GlyphClass: 2
Flags: MW
HStem: 0 99<114 252 369 496 114 252> 442 101<121 369 121 252> 567 246<202 320 280 385>
VStem: 134 332<627 629> 252 117<99 442 442 442>
LayerCount: 2
Fore
SplineSet
121 442 m 1xc8
 121 543 l 1
 369 543 l 1
 369 99 l 1
 496 99 l 1
 496 0 l 1
 114 0 l 1
 114 99 l 1
 252 99 l 1
 252 442 l 1
 121 442 l 1xc8
202 567 m 1x30
 134 629 l 1
 280 813 l 1
 320 813 l 1
 466 627 l 1
 385 567 l 1
 296 686 l 1
 202 567 l 1x30
EndSplineSet
EndChar

StartChar: idieresis
Encoding: 239 239 175
Width: 613
GlyphClass: 2
Flags: MW
HStem: 0 99<114 252 369 496 114 252> 442 101<121 369 121 252> 636 152<168 210>
VStem: 113 153<691 733> 252 117<99 442 442 442> 345 152<691 733>
LayerCount: 2
Fore
SplineSet
121 442 m 1xc8
 121 543 l 1
 369 543 l 1
 369 99 l 1
 496 99 l 1
 496 0 l 1
 114 0 l 1
 114 99 l 1
 252 99 l 1
 252 442 l 1
 121 442 l 1xc8
345 712 m 0x34
 345 754 379 789 421 789 c 0
 463 789 497 754 497 712 c 0
 497 670 463 636 421 636 c 0
 379 636 345 670 345 712 c 0x34
113 712 m 0
 113 754 147 788 189 788 c 0
 231 788 266 754 266 712 c 0
 266 670 231 636 189 636 c 0
 147 636 113 670 113 712 c 0
EndSplineSet
EndChar

StartChar: eth
Encoding: 240 240 176
Width: 613
GlyphClass: 2
Flags: MW
HStem: -14 104<275.5 342 275.5 356> 451 103<277.5 323 234 340>
VStem: 43 121<214 336 214 345.5> 455 117<270 347.5>
LayerCount: 2
Fore
SplineSet
455 275 m 0
 455 420 367 451 313 451 c 0
 242 451 164 397 164 275 c 0
 164 153 238 90 313 90 c 0
 371 90 455 129 455 275 c 0
544 680 m 1
 449 653 l 1
 517 572 572 458 572 301 c 0
 572 239 565 164 524 99 c 0
 478 25 398 -14 314 -14 c 0
 168 -14 43 103 43 265 c 0
 43 426 163 554 305 554 c 0
 341 554 377 545 407 528 c 1
 388 563 366 594 341 622 c 1
 185 578 l 1
 153 664 l 1
 263 694 l 1
 233 716 203 734 169 749 c 2
 125 768 l 1
 274 799 l 1
 279 796 l 2
 308 779 345 755 379 725 c 1
 512 762 l 1
 544 680 l 1
EndSplineSet
EndChar

StartChar: ntilde
Encoding: 241 241 177
Width: 613
GlyphClass: 2
Flags: MW
HStem: 0 21G<76 194 76 76 423 423 423 538> 450 105<326 346.5> 522 20G<76 194 194 194> 645 99<393 409 393 422.5> 704 98<232.5 261> 765 20G<468 468>
VStem: 76 118<0 307 476 542> 423 115<0 320 320 326 0 338>
LayerCount: 2
Fore
SplineSet
194 0 m 1xc3
 76 0 l 1
 76 542 l 1
 194 542 l 1xa3
 194 476 l 1
 236 522 294 555 358 555 c 0
 426 555 488 519 517 456 c 0
 538 411 538 366 538 326 c 2
 538 0 l 1
 423 0 l 1
 423 320 l 2
 423 356 422 395 397 423 c 0
 381 441 358 450 335 450 c 0
 286 450 236 409 217 385 c 0
 197 360 194 340 194 307 c 2
 194 0 l 1xc3
178 669 m 1x08
 169 655 l 1
 91 711 l 1
 99 723 l 1
 144 774 192 802 246 802 c 0x08
 302 802 337 776 352 766 c 0
 372 753 386 744 400 744 c 0
 418 744 429 753 457 770 c 1
 468 785 l 1
 533 745 l 1
 525 735 l 2
 484 684 449 645 396 645 c 0x14
 314 645 279 704 243 704 c 0
 222 704 208 695 178 669 c 1x08
EndSplineSet
EndChar

StartChar: ograve
Encoding: 242 242 178
Width: 613
GlyphClass: 2
Flags: MW
HStem: -14 104<275 347.5 275 381> 451 103<272.5 343> 584 252<304 340>
VStem: 43 121<215 332.5 215 350> 202 223<635 768> 455 117<205 331>
LayerCount: 2
Fore
SplineSet
315 554 m 0
 447 554 572 453 572 269 c 0
 572 92 450 -14 312 -14 c 0
 166 -14 43 103 43 267 c 0
 43 433 167 554 315 554 c 0
455 265 m 0
 455 397 377 451 309 451 c 0
 236 451 164 391 164 274 c 0
 164 156 237 90 313 90 c 0
 382 90 455 145 455 265 c 0
202 768 m 1
 304 836 l 1
 425 635 l 1
 340 584 l 1
 202 768 l 1
EndSplineSet
EndChar

StartChar: oacute
Encoding: 243 243 179
Width: 613
GlyphClass: 2
Flags: MW
HStem: -14 104<275 347.5 275 381> 451 103<272.5 343> 584 252<315 351>
VStem: 43 121<215 332.5 215 350> 231 222<635 768> 455 117<205 331>
LayerCount: 2
Fore
SplineSet
315 554 m 0
 447 554 572 453 572 269 c 0
 572 92 450 -14 312 -14 c 0
 166 -14 43 103 43 267 c 0
 43 433 167 554 315 554 c 0
455 265 m 0
 455 397 377 451 309 451 c 0
 236 451 164 391 164 274 c 0
 164 156 237 90 313 90 c 0
 382 90 455 145 455 265 c 0
231 635 m 1
 351 836 l 1
 453 768 l 1
 315 584 l 1
 231 635 l 1
EndSplineSet
Substitution2: "sous-table 'locl' Formes localis+AOkA-es g+AOkA-ographiquement dans Latin lookup 0" oacute.pl
EndChar

StartChar: ocircumflex
Encoding: 244 244 180
Width: 613
GlyphClass: 2
Flags: MW
HStem: -14 104<275 347.5 275 381> 451 103<272.5 343> 567 246<216 334 294 399>
VStem: 43 121<215 332.5 215 350> 148 332<627 629> 455 117<205 331>
LayerCount: 2
Fore
SplineSet
315 554 m 0xd4
 447 554 572 453 572 269 c 0
 572 92 450 -14 312 -14 c 0
 166 -14 43 103 43 267 c 0
 43 433 167 554 315 554 c 0xd4
455 265 m 0
 455 397 377 451 309 451 c 0
 236 451 164 391 164 274 c 0
 164 156 237 90 313 90 c 0
 382 90 455 145 455 265 c 0
216 567 m 1x28
 148 629 l 1
 294 813 l 1
 334 813 l 1
 480 627 l 1
 399 567 l 1
 310 686 l 1
 216 567 l 1x28
EndSplineSet
EndChar

StartChar: otilde
Encoding: 245 245 181
Width: 613
GlyphClass: 2
Flags: MW
HStem: -14 104<275 347.5 275 381> 451 103<272.5 343> 645 99<399 415 399 428.5> 704 98<238.5 267> 765 20G<474 474>
VStem: 43 121<215 332.5 215 350> 455 117<205 331>
LayerCount: 2
Fore
SplineSet
315 554 m 0xc6
 447 554 572 453 572 269 c 0
 572 92 450 -14 312 -14 c 0
 166 -14 43 103 43 267 c 0
 43 433 167 554 315 554 c 0xc6
455 265 m 0
 455 397 377 451 309 451 c 0
 236 451 164 391 164 274 c 0
 164 156 237 90 313 90 c 0
 382 90 455 145 455 265 c 0
184 669 m 1x10
 175 655 l 1
 97 711 l 1
 105 723 l 1
 150 774 198 802 252 802 c 0x10
 308 802 343 776 358 766 c 0
 378 753 392 744 406 744 c 0
 424 744 435 753 463 770 c 1
 474 785 l 1
 539 745 l 1
 531 735 l 2
 490 684 455 645 402 645 c 0x28
 320 645 285 704 249 704 c 0
 228 704 214 695 184 669 c 1x10
EndSplineSet
EndChar

StartChar: odieresis
Encoding: 246 246 182
Width: 613
GlyphClass: 2
Flags: MW
HStem: -14 104<275 347.5 275 381> 451 103<272.5 343> 636 152<170 212>
VStem: 43 121<215 332.5 215 350> 115 153<691 733> 347 152<691 733> 455 117<205 331>
LayerCount: 2
Fore
SplineSet
315 554 m 0xd2
 447 554 572 453 572 269 c 0
 572 92 450 -14 312 -14 c 0
 166 -14 43 103 43 267 c 0
 43 433 167 554 315 554 c 0xd2
455 265 m 0
 455 397 377 451 309 451 c 0
 236 451 164 391 164 274 c 0
 164 156 237 90 313 90 c 0
 382 90 455 145 455 265 c 0
347 712 m 0x2c
 347 754 381 789 423 789 c 0
 465 789 499 754 499 712 c 0
 499 670 465 636 423 636 c 0
 381 636 347 670 347 712 c 0x2c
115 712 m 0
 115 754 149 788 191 788 c 0
 233 788 268 754 268 712 c 0
 268 670 233 636 191 636 c 0
 149 636 115 670 115 712 c 0
EndSplineSet
EndChar

StartChar: divide
Encoding: 247 247 183
Width: 613
GlyphClass: 2
Flags: MW
HStem: 120 137<294 332> 318 110<79 537 79 537> 470 137<294 332>
VStem: 245 137<169 207 520 558>
LayerCount: 2
Fore
SplineSet
79 318 m 1
 79 428 l 1
 537 428 l 1
 537 318 l 1
 79 318 l 1
313 607 m 0
 351 607 382 577 382 539 c 0
 382 501 351 470 313 470 c 0
 275 470 245 501 245 539 c 0
 245 577 275 607 313 607 c 0
313 257 m 0
 351 257 382 226 382 188 c 0
 382 150 351 120 313 120 c 0
 275 120 245 150 245 188 c 0
 245 226 275 257 313 257 c 0
EndSplineSet
EndChar

StartChar: oslash
Encoding: 248 248 184
Width: 613
GlyphClass: 2
Flags: MW
HStem: -14 104<304 347.5 304 381> 451 103<272.5 316>
VStem: 43 121<236.5 322.5 236.5 349> 455 117<215 306.5>
LayerCount: 2
Fore
SplineSet
349 444 m 1
 335 449 323 451 309 451 c 0
 236 451 164 386 164 259 c 0
 164 214 174 176 188 147 c 1
 349 444 l 1
487 487 m 1
 539 438 572 365 572 269 c 0
 572 91 450 -14 312 -14 c 0
 276 -14 239 -6 209 7 c 1
 161 -81 l 1
 72 -35 l 1
 127 60 l 1
 75 111 43 182 43 266 c 0
 43 432 167 554 315 554 c 0
 344 554 374 548 401 538 c 1
 445 621 l 1
 536 573 l 1
 487 487 l 1
455 280 m 0
 455 333 443 374 427 405 c 1
 261 102 l 1
 279 94 295 90 313 90 c 0
 382 90 455 150 455 280 c 0
EndSplineSet
EndChar

StartChar: ugrave
Encoding: 249 249 185
Width: 613
GlyphClass: 2
Flags: MW
HStem: -13 100<275.5 302.5> 0 21G<429 553 429 429> 522 20G<70 186 186 186 425 542 542 542> 584 252<304 340>
VStem: 69 117<226.5 241> 202 223 425 117<45.5 61 248 542>
LayerCount: 2
Fore
SplineSet
69 241 m 2xaa
 70 542 l 1
 186 542 l 1
 186 244 l 2
 186 209 187 174 204 142 c 0
 223 106 257 87 294 87 c 0xaa
 339 87 383 116 405 154 c 0
 422 183 425 209 425 248 c 2
 425 542 l 1
 542 542 l 1
 542 61 l 2
 542 46 543 32 547 19 c 2
 553 0 l 1
 429 0 l 1x6a
 427 13 l 2
 425 26 425 40 425 51 c 1
 385 10 331 -13 274 -13 c 0
 198 -13 125 27 91 100 c 0
 68 148 69 197 69 241 c 2xaa
202 768 m 1x14
 304 836 l 1
 425 635 l 1
 340 584 l 1
 202 768 l 1x14
EndSplineSet
EndChar

StartChar: uacute
Encoding: 250 250 186
Width: 613
GlyphClass: 2
Flags: MW
HStem: -13 100<275.5 302.5> 0 21G<429 553 429 429> 522 20G<70 186 186 186 425 542 542 542> 584 252<315 351>
VStem: 69 117<226.5 241> 231 222<635 768> 425 117<45.5 61 248 542>
LayerCount: 2
Fore
SplineSet
69 241 m 2xaa
 70 542 l 1
 186 542 l 1
 186 244 l 2
 186 209 187 174 204 142 c 0
 223 106 257 87 294 87 c 0xaa
 339 87 383 116 405 154 c 0
 422 183 425 209 425 248 c 2
 425 542 l 1
 542 542 l 1
 542 61 l 2
 542 46 543 32 547 19 c 2
 553 0 l 1
 429 0 l 1x6a
 427 13 l 2
 425 26 425 40 425 51 c 1
 385 10 331 -13 274 -13 c 0
 198 -13 125 27 91 100 c 0
 68 148 69 197 69 241 c 2xaa
231 635 m 1x14
 351 836 l 1
 453 768 l 1
 315 584 l 1
 231 635 l 1x14
EndSplineSet
EndChar

StartChar: ucircumflex
Encoding: 251 251 187
Width: 613
GlyphClass: 2
Flags: MW
HStem: -13 100<275.5 302.5> 0 21G<429 553 429 429> 522 20G<70 186 186 186 425 542 542 542> 567 246<216 334 294 399>
VStem: 69 117<226.5 241> 148 332<627 629> 425 117<45.5 61 248 542>
LayerCount: 2
Fore
SplineSet
69 241 m 2xaa
 70 542 l 1
 186 542 l 1
 186 244 l 2
 186 209 187 174 204 142 c 0
 223 106 257 87 294 87 c 0xaa
 339 87 383 116 405 154 c 0
 422 183 425 209 425 248 c 2
 425 542 l 1
 542 542 l 1
 542 61 l 2
 542 46 543 32 547 19 c 2
 553 0 l 1
 429 0 l 1x6a
 427 13 l 2
 425 26 425 40 425 51 c 1
 385 10 331 -13 274 -13 c 0
 198 -13 125 27 91 100 c 0
 68 148 69 197 69 241 c 2xaa
216 567 m 1x14
 148 629 l 1
 294 813 l 1
 334 813 l 1
 480 627 l 1
 399 567 l 1
 310 686 l 1
 216 567 l 1x14
EndSplineSet
EndChar

StartChar: udieresis
Encoding: 252 252 188
Width: 613
GlyphClass: 2
Flags: MW
HStem: -13 100<275.5 302.5> 0 21G<429 553 429 429> 522 20G<70 186 186 186 425 542 542 542> 636 152<170 212>
VStem: 69 117<226.5 241> 115 153<691 733> 347 152<691 733> 425 117<45.5 61 248 542>
LayerCount: 2
Fore
SplineSet
69 241 m 2xa9
 70 542 l 1
 186 542 l 1
 186 244 l 2
 186 209 187 174 204 142 c 0
 223 106 257 87 294 87 c 0xa9
 339 87 383 116 405 154 c 0
 422 183 425 209 425 248 c 2
 425 542 l 1
 542 542 l 1
 542 61 l 2
 542 46 543 32 547 19 c 2
 553 0 l 1
 429 0 l 1x69
 427 13 l 2
 425 26 425 40 425 51 c 1
 385 10 331 -13 274 -13 c 0
 198 -13 125 27 91 100 c 0
 68 148 69 197 69 241 c 2xa9
347 712 m 0x16
 347 754 381 789 423 789 c 0
 465 789 499 754 499 712 c 0
 499 670 465 636 423 636 c 0
 381 636 347 670 347 712 c 0x16
115 712 m 0
 115 754 149 788 191 788 c 0
 233 788 268 754 268 712 c 0
 268 670 233 636 191 636 c 0
 149 636 115 670 115 712 c 0
EndSplineSet
EndChar

StartChar: yacute
Encoding: 253 253 189
Width: 613
GlyphClass: 2
Flags: MW
HStem: -206 101<138.5 164.5 138.5 180.5> 522 20G<42 185 185 185> 584 252<315 351>
VStem: 231 222<635 768>
LayerCount: 2
Fore
SplineSet
268 16 m 1
 42 542 l 1
 185 542 l 1
 186 527 l 2
 187 510 181 502 181 501 c 0
 181 500 181 500 182 497 c 2
 326 136 l 1
 416 388 l 2
 432 434 447 482 456 530 c 2
 458 543 l 1
 581 543 l 1
 575 524 l 2
 559 473 540 423 520 374 c 2
 351 -52 l 2
 339 -83 328 -113 302 -142 c 0
 263 -186 207 -206 154 -206 c 0
 106 -206 60 -190 26 -157 c 2
 18 -148 l 1
 76 -46 l 1
 90 -57 l 2
 104 -68 104 -81 104 -81 c 2
 106 -85 123 -105 154 -105 c 0
 175 -105 199 -96 219 -75 c 0
 234 -59 244 -37 253 -16 c 2
 268 16 l 1
231 635 m 1
 351 836 l 1
 453 768 l 1
 315 584 l 1
 231 635 l 1
EndSplineSet
EndChar

StartChar: thorn
Encoding: 254 254 190
Width: 613
GlyphClass: 2
Flags: MW
HStem: -198 21G<67 67 67 184> -14 106<304 330 284 392> 451 103<309.5 328.5> 768 20G<67 191 191 191>
VStem: 67 116<257.5 315 488 734> 455 119<186 347>
LayerCount: 2
Fore
SplineSet
67 -198 m 1
 67 788 l 1
 191 788 l 1
 191 771 l 2
 191 748 183 746 183 734 c 2
 183 488 l 1
 225 531 280 554 339 554 c 0
 455 554 574 465 574 277 c 0
 574 82 452 -14 332 -14 c 0
 276 -14 222 8 184 45 c 1
 184 -198 l 1
 67 -198 l 1
455 260 m 0
 455 434 349 451 308 451 c 0
 258 451 214 426 196 386 c 0
 185 364 183 336 183 294 c 0
 183 221 184 182 197 152 c 0
 215 113 261 92 307 92 c 0
 353 92 455 112 455 260 c 0
EndSplineSet
EndChar

StartChar: ydieresis
Encoding: 255 255 191
Width: 613
GlyphClass: 2
Flags: MW
HStem: -206 101<138.5 164.5 138.5 180.5> 522 20G<42 185 185 185> 636 152<170 212>
VStem: 115 153<691 733> 347 152<691 733>
LayerCount: 2
Fore
SplineSet
268 16 m 1
 42 542 l 1
 185 542 l 1
 186 527 l 2
 187 510 181 502 181 501 c 0
 181 500 181 500 182 497 c 2
 326 136 l 1
 416 388 l 2
 432 434 447 482 456 530 c 2
 458 543 l 1
 581 543 l 1
 575 524 l 2
 559 473 540 423 520 374 c 2
 351 -52 l 2
 339 -83 328 -113 302 -142 c 0
 263 -186 207 -206 154 -206 c 0
 106 -206 60 -190 26 -157 c 2
 18 -148 l 1
 76 -46 l 1
 90 -57 l 2
 104 -68 104 -81 104 -81 c 2
 106 -85 123 -105 154 -105 c 0
 175 -105 199 -96 219 -75 c 0
 234 -59 244 -37 253 -16 c 2
 268 16 l 1
347 712 m 0
 347 754 381 789 423 789 c 0
 465 789 499 754 499 712 c 0
 499 670 465 636 423 636 c 0
 381 636 347 670 347 712 c 0
115 712 m 0
 115 754 149 788 191 788 c 0
 233 788 268 754 268 712 c 0
 268 670 233 636 191 636 c 0
 149 636 115 670 115 712 c 0
EndSplineSet
EndChar

StartChar: Amacron
Encoding: 256 256 192
Width: 600
GlyphClass: 2
Flags: MW
HStem: 0 20G 201 95<219 375 219 405 192 375> 837 97<141 473 141 473>
VStem: 141 332<837 934 837 934>
LayerCount: 2
Fore
SplineSet
121 -1 m 1
 6 -1 l 1
 278 753 l 1
 309 753 l 1
 606 0 l 1
 487 0 l 1
 405 201 l 1
 192 201 l 1
 121 -1 l 1
219 296 m 1
 375 296 l 1
 294 516 l 1
 219 296 l 1
141 837 m 1
 141 934 l 1
 473 934 l 1
 473 837 l 1
 141 837 l 1
EndSplineSet
EndChar

StartChar: amacron
Encoding: 257 257 193
Width: 600
GlyphClass: 2
Flags: MW
HStem: -13 96<235.5 281.5> 0 21G<430 542 430 430> 239 96<344 427 409 427 427 428 428 429 409 432> 454 100<291 345> 640 97<141 473 141 473>
VStem: 53 117<136.5 168.5 136.5 181.5> 141 332<640 737 640 737> 430 112<0 44 44 44>
LayerCount: 2
Fore
SplineSet
98 464 m 1xb5
 107 473 l 2
 161 529 235 554 311 554 c 0
 399 554 474 523 513 461 c 0
 540 417 542 375 542 333 c 2
 542 0 l 1
 430 0 l 1x75
 430 44 l 1
 373 5 312 -13 251 -13 c 0
 130 -13 53 63 53 149 c 0
 53 214 97 278 187 310 c 0
 255 334 334 335 409 335 c 2
 427 335 l 1
 429 335 l 1
 429 338 l 2
 429 364 429 392 414 414 c 0
 401 433 375 454 315 454 c 0
 267 454 211 440 171 398 c 2
 159 385 l 1
 98 464 l 1xb5
432 220 m 2
 432 239 l 1
 428 239 l 1
 364 239 l 2
 324 239 282 238 253 232 c 0
 191 218 170 183 170 154 c 0
 170 119 203 83 268 83 c 0xb5
 332 83 381 119 399 136 c 0
 432 168 432 195 432 220 c 2
141 640 m 1x0a
 141 737 l 1
 473 737 l 1
 473 640 l 1
 141 640 l 1x0a
EndSplineSet
EndChar

StartChar: Abreve
Encoding: 258 258 194
Width: 613
GlyphClass: 2
Flags: MW
HStem: 0 20G 201 95<219 375 219 405 192 375> 770 92<270.5 317.5 270.5 335> 922 20G<163 163>
LayerCount: 2
Fore
SplineSet
121 -1 m 1
 6 -1 l 1
 278 753 l 1
 309 753 l 1
 606 0 l 1
 487 0 l 1
 405 201 l 1
 192 201 l 1
 121 -1 l 1
219 296 m 1
 375 296 l 1
 294 516 l 1
 219 296 l 1
163 942 m 1
 175 924 l 2
 200 892 245 862 296 862 c 0
 339 862 385 884 424 924 c 1
 437 941 l 1
 489 871 l 1
 483 863 l 2
 441 810 374 770 296 770 c 0
 226 770 156 804 107 859 c 2
 99 868 l 1
 163 942 l 1
EndSplineSet
EndChar

StartChar: abreve
Encoding: 259 259 195
Width: 613
GlyphClass: 2
Flags: MW
HStem: -13 96<235.5 281.5> 0 21G<430 542 430 430> 239 96<344 427 409 427 427 428 428 429 409 432> 454 100<291 345> 606 92<291.5 338.5 291.5 356> 758 20G<184 184>
VStem: 53 117<136.5 168.5 136.5 181.5> 430 112<0 44 44 44>
LayerCount: 2
Fore
SplineSet
98 464 m 1xb3
 107 473 l 2
 161 529 235 554 311 554 c 0
 399 554 474 523 513 461 c 0
 540 417 542 375 542 333 c 2
 542 0 l 1
 430 0 l 1x73
 430 44 l 1
 373 5 312 -13 251 -13 c 0
 130 -13 53 63 53 149 c 0
 53 214 97 278 187 310 c 0
 255 334 334 335 409 335 c 2
 427 335 l 1
 429 335 l 1
 429 338 l 2
 429 364 429 392 414 414 c 0
 401 433 375 454 315 454 c 0
 267 454 211 440 171 398 c 2
 159 385 l 1
 98 464 l 1xb3
432 220 m 2
 432 239 l 1
 428 239 l 1
 364 239 l 2
 324 239 282 238 253 232 c 0
 191 218 170 183 170 154 c 0
 170 119 203 83 268 83 c 0xb3
 332 83 381 119 399 136 c 0
 432 168 432 195 432 220 c 2
184 778 m 1x0c
 196 760 l 2
 221 728 266 698 317 698 c 0
 360 698 406 720 445 760 c 1
 458 777 l 1
 510 707 l 1
 504 699 l 2
 462 646 395 606 317 606 c 0
 247 606 177 640 128 695 c 2
 120 704 l 1
 184 778 l 1x0c
EndSplineSet
EndChar

StartChar: Aogonek
Encoding: 260 260 196
Width: 613
GlyphClass: 2
Flags: MW
HStem: -209 67<511 520> -20 20G<487 606 487 487 504 601 601 601> 0 20G 201 95<219 375 219 405 192 375>
VStem: 406 86<-124 -115.5>
LayerCount: 2
Fore
SplineSet
121 -1 m 1x30
 6 -1 l 1
 278 753 l 1
 309 753 l 1
 606 0 l 1
 487 0 l 1
 405 201 l 1
 192 201 l 1
 121 -1 l 1x30
219 296 m 1
 375 296 l 1
 294 516 l 1
 219 296 l 1
502 -1 m 1xc8
 504 0 l 1
 601 0 l 1
 589 -11 l 2
 549 -44 520 -73 510 -83 c 0
 502 -92 492 -103 492 -117 c 0
 492 -131 502 -142 520 -142 c 0
 526 -142 535 -140 547 -136 c 0
 565 -130 576 -122 583 -116 c 2
 593 -108 l 1
 593 -178 l 1
 591 -180 l 2
 566 -201 535 -209 505 -209 c 0
 441 -209 406 -176 406 -135 c 0
 406 -96 440 -49 502 -1 c 1xc8
EndSplineSet
EndChar

StartChar: aogonek
Encoding: 261 261 197
Width: 613
GlyphClass: 2
Flags: MW
HStem: -209 67<451 460> -20 20G<430 542 430 430 444 541 541 541> -13 96<235.5 281.5> 0 21G<430 542 430 430 444 541 541 541> 239 96<344 427 409 427 427 428 428 429 409 432> 454 100<291 345>
VStem: 53 117<136.5 168.5 136.5 181.5> 346 86<-124 -115.5> 430 112<0 44 44 44>
LayerCount: 2
Fore
SplineSet
98 464 m 1x2e80
 107 473 l 2
 161 529 235 554 311 554 c 0
 399 554 474 523 513 461 c 0
 540 417 542 375 542 333 c 2
 542 0 l 1
 430 0 l 1x1e80
 430 44 l 1
 373 5 312 -13 251 -13 c 0
 130 -13 53 63 53 149 c 0
 53 214 97 278 187 310 c 0
 255 334 334 335 409 335 c 2
 427 335 l 1
 429 335 l 1
 429 338 l 2
 429 364 429 392 414 414 c 0
 401 433 375 454 315 454 c 0
 267 454 211 440 171 398 c 2
 159 385 l 1
 98 464 l 1x2e80
432 220 m 2
 432 239 l 1
 428 239 l 1
 364 239 l 2
 324 239 282 238 253 232 c 0
 191 218 170 183 170 154 c 0
 170 119 203 83 268 83 c 0x2e80
 332 83 381 119 399 136 c 0
 432 168 432 195 432 220 c 2
442 -1 m 1xc1
 444 0 l 1
 541 0 l 1
 529 -11 l 2
 489 -44 460 -73 450 -83 c 0
 442 -92 432 -103 432 -117 c 0
 432 -131 442 -142 460 -142 c 0
 466 -142 475 -140 487 -136 c 0
 505 -130 516 -122 523 -116 c 2
 533 -108 l 1
 533 -178 l 1
 531 -180 l 2
 506 -201 475 -209 445 -209 c 0
 381 -209 346 -176 346 -135 c 0
 346 -96 380 -49 442 -1 c 1xc1
EndSplineSet
EndChar

StartChar: Cacute
Encoding: 262 262 198
Width: 613
GlyphClass: 2
Flags: MW
HStem: -12 102<296 370 296 386> 648 97<291 363> 780 164
VStem: 43 112<280 464.5 280 510.5> 174 272<853 863>
LayerCount: 2
Fore
SplineSet
43 365 m 0
 43 656 217 745 340 745 c 0
 444 745 538 685 580 590 c 2
 586 576 l 1
 486 527 l 1
 479 532 l 2
 466 541 467 554 467 556 c 2
 467 565 l 2
 467 567 467 566 465 570 c 0
 438 617 389 648 337 648 c 0
 245 648 155 556 155 373 c 0
 155 187 248 90 344 90 c 0
 396 90 449 121 481 173 c 2
 490 186 l 1
 577 130 l 1
 569 117 l 2
 520 37 433 -12 339 -12 c 0
 208 -12 43 84 43 365 c 0
174 853 m 1
 382 944 l 1
 446 863 l 1
 216 780 l 1
 174 853 l 1
EndSplineSet
Substitution2: "sous-table 'locl' Formes localis+AOkA-es g+AOkA-ographiquement dans Latin lookup 0" Cacute.pl
EndChar

StartChar: cacute
Encoding: 263 263 199
Width: 613
GlyphClass: 2
Flags: MW
HStem: -13 108<303 376 303 384> 450 103<298.5 384.5> 584 252<315 351>
VStem: 61 119<223.5 332.5 223.5 352> 231 222<635 768>
LayerCount: 2
Fore
SplineSet
565 446 m 1
 571 436 l 1
 494 346 l 1
 482 354 l 2
 463 368 470 387 470 387 c 2
 465 395 425 450 344 450 c 0
 253 450 180 386 180 279 c 0
 180 168 255 95 351 95 c 0
 401 95 449 118 483 156 c 2
 495 169 l 1
 564 88 l 1
 555 78 l 2
 500 19 424 -13 344 -13 c 0
 182 -13 61 109 61 271 c 0
 61 433 181 553 349 553 c 0
 441 553 519 513 565 446 c 1
231 635 m 1
 351 836 l 1
 453 768 l 1
 315 584 l 1
 231 635 l 1
EndSplineSet
Substitution2: "sous-table 'locl' Formes localis+AOkA-es g+AOkA-ographiquement dans Latin lookup 0" cacute.pl
EndChar

StartChar: Ccircumflex
Encoding: 264 264 200
Width: 600
GlyphClass: 2
Flags: MW
HStem: -12 102<296 370 296 386> 648 97<291 363> 739 197<295 436>
VStem: 43 112<280 464.5 280 510.5>
LayerCount: 2
Fore
SplineSet
43 365 m 0xd0
 43 656 217 745 340 745 c 0
 444 745 538 685 580 590 c 2
 586 576 l 1
 486 527 l 1
 479 532 l 2
 466 541 467 554 467 556 c 2
 467 565 l 2
 467 567 467 566 465 570 c 0
 438 617 389 648 337 648 c 0
 245 648 155 556 155 373 c 0
 155 187 248 90 344 90 c 0
 396 90 449 121 481 173 c 2
 490 186 l 1
 577 130 l 1
 569 117 l 2
 520 37 433 -12 339 -12 c 0
 208 -12 43 84 43 365 c 0xd0
175 743 m 1x20
 122 805 l 1
 295 936 l 1
 331 936 l 1
 494 807 l 1
 436 739 l 1
 310 825 l 1
 175 743 l 1x20
EndSplineSet
EndChar

StartChar: ccircumflex
Encoding: 265 265 201
Width: 600
GlyphClass: 2
Flags: MW
HStem: -13 108<303 376 303 384> 450 103<298.5 384.5> 567 246<216 334 294 399>
VStem: 61 119<223.5 332.5 223.5 352> 148 332<627 629>
LayerCount: 2
Fore
SplineSet
565 446 m 1xd0
 571 436 l 1
 494 346 l 1
 482 354 l 2
 463 368 470 387 470 387 c 2
 465 395 425 450 344 450 c 0
 253 450 180 386 180 279 c 0
 180 168 255 95 351 95 c 0
 401 95 449 118 483 156 c 2
 495 169 l 1
 564 88 l 1
 555 78 l 2
 500 19 424 -13 344 -13 c 0
 182 -13 61 109 61 271 c 0
 61 433 181 553 349 553 c 0
 441 553 519 513 565 446 c 1xd0
216 567 m 1x28
 148 629 l 1
 294 813 l 1
 334 813 l 1
 480 627 l 1
 399 567 l 1
 310 686 l 1
 216 567 l 1x28
EndSplineSet
EndChar

StartChar: Cdotaccent
Encoding: 266 266 202
Width: 600
GlyphClass: 2
Flags: MW
HStem: -12 102<296 370 296 386> 648 97<291 363> 773 152<291 333>
VStem: 43 112<280 464.5 280 510.5> 236 152<828 870>
LayerCount: 2
Fore
SplineSet
43 365 m 0
 43 656 217 745 340 745 c 0
 444 745 538 685 580 590 c 2
 586 576 l 1
 486 527 l 1
 479 532 l 2
 466 541 467 554 467 556 c 2
 467 565 l 2
 467 567 467 566 465 570 c 0
 438 617 389 648 337 648 c 0
 245 648 155 556 155 373 c 0
 155 187 248 90 344 90 c 0
 396 90 449 121 481 173 c 2
 490 186 l 1
 577 130 l 1
 569 117 l 2
 520 37 433 -12 339 -12 c 0
 208 -12 43 84 43 365 c 0
236 849 m 0
 236 891 270 925 312 925 c 0
 354 925 388 891 388 849 c 0
 388 807 354 773 312 773 c 0
 270 773 236 807 236 849 c 0
EndSplineSet
EndChar

StartChar: cdotaccent
Encoding: 267 267 203
Width: 600
GlyphClass: 2
Flags: MW
HStem: -13 108<303 376 303 384> 450 103<298.5 384.5> 626 152<291 333>
VStem: 61 119<223.5 332.5 223.5 352> 236 152<681 723>
LayerCount: 2
Fore
SplineSet
565 446 m 1
 571 436 l 1
 494 346 l 1
 482 354 l 2
 463 368 470 387 470 387 c 2
 465 395 425 450 344 450 c 0
 253 450 180 386 180 279 c 0
 180 168 255 95 351 95 c 0
 401 95 449 118 483 156 c 2
 495 169 l 1
 564 88 l 1
 555 78 l 2
 500 19 424 -13 344 -13 c 0
 182 -13 61 109 61 271 c 0
 61 433 181 553 349 553 c 0
 441 553 519 513 565 446 c 1
236 702 m 0
 236 744 270 778 312 778 c 0
 354 778 388 744 388 702 c 0
 388 660 354 626 312 626 c 0
 270 626 236 660 236 702 c 0
EndSplineSet
EndChar

StartChar: Ccaron
Encoding: 268 268 204
Width: 613
GlyphClass: 2
Flags: MW
HStem: -12 102<296 370 296 386> 648 97<291 363> 777 197<209 350 209 314>
VStem: 43 112<280 464.5 280 510.5>
LayerCount: 2
Fore
SplineSet
43 365 m 0
 43 656 217 745 340 745 c 0
 444 745 538 685 580 590 c 2
 586 576 l 1
 486 527 l 1
 479 532 l 2
 466 541 467 554 467 556 c 2
 467 565 l 2
 467 567 467 566 465 570 c 0
 438 617 389 648 337 648 c 0
 245 648 155 556 155 373 c 0
 155 187 248 90 344 90 c 0
 396 90 449 121 481 173 c 2
 490 186 l 1
 577 130 l 1
 569 117 l 2
 520 37 433 -12 339 -12 c 0
 208 -12 43 84 43 365 c 0
470 970 m 1x00
 523 908 l 1
 350 777 l 1
 314 777 l 1
 151 906 l 1
 209 974 l 1
 335 888 l 1
 470 970 l 1x00
EndSplineSet
EndChar

StartChar: ccaron
Encoding: 269 269 205
Width: 613
GlyphClass: 2
Flags: MW
HStem: -13 108<303 376 303 384> 450 103<298.5 384.5> 614 246<228 333 228 293>
VStem: 61 119<223.5 332.5 223.5 352> 147 332<798 800>
LayerCount: 2
Fore
SplineSet
411 860 m 1x28
 479 798 l 1
 333 614 l 1
 293 614 l 1
 147 800 l 1
 228 860 l 1
 317 741 l 1
 411 860 l 1x28
565 446 m 1xd0
 571 436 l 1
 494 346 l 1
 482 354 l 2
 463 368 470 387 470 387 c 2
 465 395 425 450 344 450 c 0
 253 450 180 386 180 279 c 0
 180 168 255 95 351 95 c 0
 401 95 449 118 483 156 c 2
 495 169 l 1
 564 88 l 1
 555 78 l 2
 500 19 424 -13 344 -13 c 0
 182 -13 61 109 61 271 c 0
 61 433 181 553 349 553 c 0
 441 553 519 513 565 446 c 1xd0
EndSplineSet
EndChar

StartChar: Dcaron
Encoding: 270 270 206
Width: 613
GlyphClass: 2
Flags: MW
HStem: -1 96<168 228 228 232> 638 101<168 242 168 168> 777 197<158 299 158 263>
VStem: 58 110<95 638 95 739 95 739> 457 115<295 409.5>
LayerCount: 2
Fore
SplineSet
58 -1 m 1
 58 739 l 1
 247 739 l 2
 313 739 370 735 427 699 c 0
 529 636 572 510 572 371 c 0
 572 213 512 85 399 29 c 0
 344 2 291 -1 232 -1 c 2
 58 -1 l 1
242 638 m 2
 168 638 l 1
 168 95 l 1
 228 95 l 2
 274 95 316 97 358 124 c 0
 412 158 457 230 457 360 c 0
 457 459 434 554 371 603 c 0
 329 636 288 638 242 638 c 2
419 970 m 1x00
 472 908 l 1
 299 777 l 1
 263 777 l 1
 100 906 l 1
 158 974 l 1
 284 888 l 1
 419 970 l 1x00
EndSplineSet
EndChar

StartChar: dcaron
Encoding: 271 271 207
Width: 613
GlyphClass: 2
Flags: MW
HStem: -12 106<196.5 229.5> 0 21G<367 483 367 367> 456 100<198 248.5> 535 261.6 770 20G
VStem: -5 113<235 337 235 362.5> 355 118<239.5 295.5> 361 112<497 790> 528.4 96
LayerCount: 2
Fore
SplineSet
226 556 m 0xa580
 279 556 327 533 361 497 c 1
 361 790 l 1
 473 790 l 1
 473 63 l 2
 473 48 474 33 478 19 c 2
 483 0 l 1
 367 0 l 1x6d80
 363 11 l 2
 358 27 357 42 357 55 c 1
 357 55 244 -12 215 -12 c 0
 88 -12 -5 113 -5 275 c 0
 -5 450 106 556 226 556 c 0xa580
338 390 m 0
 317 430 267 456 230 456 c 0
 166 456 108 389 108 285 c 0
 108 185 160 94 233 94 c 0
 272 94 310 120 330 151 c 0
 351 183 355 217 355 262 c 0xa680
 355 329 353 361 338 390 c 0
546 796.599609375 m 0x1080
 587.599609375 796.599609375 624.400390625 759.799804688 624.400390625 705.400390625 c 0
 624.400390625 657.400390625 587.599609375 602.200195312 520.400390625 543 c 1
 512.400390625 535 l 1
 460.400390625 573.400390625 l 1
 470 581.400390625 l 2
 491.599609375 598.200195312 506.799804688 616.599609375 515.599609375 629.400390625 c 0
 520.400390625 635.799804688 528.400390625 647.799804688 528.400390625 657.400390625 c 0
 528.400390625 667.799804688 520.400390625 672.599609375 511.599609375 677.400390625 c 0
 503.599609375 683 479.599609375 697.400390625 479.599609375 730.200195312 c 0
 479.599609375 765.400390625 507.599609375 796.599609375 546 796.599609375 c 0x1080
EndSplineSet
EndChar

StartChar: Dcroat
Encoding: 272 272 208
Width: 613
GlyphClass: 2
Flags: MW
HStem: -1 99<196 251 251 255> 342 99<31 88 31 88 196 319> 639 100<196 264 196 196>
VStem: 88 108<98 342 98 342 98 342 441 639> 468 111<310 402.5>
LayerCount: 2
Fore
SplineSet
88 441 m 1
 88 739 l 1
 269 739 l 2
 334 739 390 733 445 694 c 0
 540 627 579 497 579 374 c 0
 579 220 518 77 396 22 c 0
 351 2 308 -1 255 -1 c 2
 88 -1 l 1
 88 342 l 1
 31 342 l 1
 31 441 l 1
 88 441 l 1
319 342 m 1
 196 342 l 1
 196 98 l 1
 251 98 l 2
 293 98 328 100 366 125 c 0
 430 167 468 256 468 364 c 0
 468 441 450 524 408 578 c 0
 362 638 310 639 264 639 c 2
 196 639 l 1
 196 441 l 1
 319 441 l 1
 319 342 l 1
EndSplineSet
EndChar

StartChar: dcroat
Encoding: 273 273 209
Width: 613
GlyphClass: 2
Flags: MW
HStem: -12 106<265 300> 0 21G<432 548 432 432> 456 100<260 308.5> 614 95<337 427 337 427 538 590> 770 20G<427 548 548 548>
VStem: 40 113<208.5 355.5 208.5 377> 427 111<497 614 614 614 709 740>
LayerCount: 2
Fore
SplineSet
412 369 m 0xbe
 393 435 330 456 287 456 c 0
 233 456 153 423 153 288 c 0
 153 129 239 94 291 94 c 0
 341 94 391 125 410 179 c 0
 418 202 420 229 420 266 c 0
 420 322 418 348 412 369 c 0xbe
590 614 m 1
 538 614 l 1
 539 62 l 2
 539 47 539 32 543 18 c 2
 548 0 l 1
 432 0 l 1x7e
 429 11 l 2
 424 27 423 42 423 55 c 1
 384 13 329 -12 271 -12 c 0
 156 -12 40 79 40 275 c 0
 40 479 172 556 283 556 c 0
 342 556 393 533 427 497 c 1
 427 614 l 1
 337 614 l 1
 337 709 l 1
 427 709 l 1
 427 790 l 1
 548 790 l 1
 549 775 l 2
 550 761 542 751 540 748 c 0
 537 743 538 745 538 740 c 2
 538 709 l 1
 590 709 l 1
 590 614 l 1
EndSplineSet
EndChar

StartChar: Emacron
Encoding: 274 274 210
Width: 600
GlyphClass: 2
Flags: MW
HStem: 0 104<174 546 174 546> 333 106<174 483 174 483> 636 104<174 549 174 174> 837 97<141 473 141 473>
VStem: 65 109<104 333 439 636> 141 332<837 934 837 934>
LayerCount: 2
Fore
SplineSet
65 0 m 1xe8
 65 740 l 1
 549 740 l 1
 549 636 l 1
 174 636 l 1
 174 439 l 1
 483 439 l 1
 483 333 l 1
 174 333 l 1
 174 104 l 1
 546 104 l 1
 546 0 l 1
 65 0 l 1xe8
141 837 m 1x14
 141 934 l 1
 473 934 l 1
 473 837 l 1
 141 837 l 1x14
EndSplineSet
EndChar

StartChar: emacron
Encoding: 275 275 211
Width: 600
GlyphClass: 2
Flags: MW
HStem: -12 99<302.5 360 302.5 369> 244 96<172 437 172 550 167 437> 459 96<286 347.5> 640 97<141 473 141 473>
VStem: 141 332<640 737 640 737> 437 116<288.5 343 288.5 375>
LayerCount: 2
Fore
SplineSet
52 266 m 0xe4
 52 461 179 555 317 555 c 0
 411 555 521 506 547 360 c 0
 551 340 553 317 553 295 c 0
 553 282 552 270 551 257 c 2
 550 244 l 1
 167 244 l 1
 180 116 270 87 335 87 c 0
 385 87 431 106 464 143 c 2
 474 155 l 1
 543 88 l 1
 534 77 l 2
 485 18 410 -12 328 -12 c 0
 174 -12 52 87 52 266 c 0xe4
311 459 m 0
 261 459 192 433 172 340 c 1
 437 340 l 1
 437 343 l 2
 437 407 384 459 311 459 c 0
141 640 m 1x18
 141 737 l 1
 473 737 l 1
 473 640 l 1
 141 640 l 1x18
EndSplineSet
EndChar

StartChar: Ebreve
Encoding: 276 276 212
Width: 600
GlyphClass: 2
Flags: MW
HStem: 0 104<174 546 174 546> 333 106<174 483 174 483> 636 104<174 549 174 174> 766 92<270.5 317.5 270.5 335> 918 20G<163 163>
VStem: 65 109<104 333 439 636>
LayerCount: 2
Fore
SplineSet
65 0 m 1
 65 740 l 1
 549 740 l 1
 549 636 l 1
 174 636 l 1
 174 439 l 1
 483 439 l 1
 483 333 l 1
 174 333 l 1
 174 104 l 1
 546 104 l 1
 546 0 l 1
 65 0 l 1
163 938 m 1
 175 920 l 2
 200 888 245 858 296 858 c 0
 339 858 385 880 424 920 c 1
 437 937 l 1
 489 867 l 1
 483 859 l 2
 441 806 374 766 296 766 c 0
 226 766 156 800 107 855 c 2
 99 864 l 1
 163 938 l 1
EndSplineSet
EndChar

StartChar: ebreve
Encoding: 277 277 213
Width: 600
GlyphClass: 2
Flags: MW
HStem: -12 99<302.5 360 302.5 369> 244 96<172 437 172 550 167 437> 459 96<286 347.5> 606 92<291.5 338.5 291.5 356> 758 20G<184 184>
VStem: 437 116<288.5 343 288.5 375>
LayerCount: 2
Fore
SplineSet
52 266 m 0
 52 461 179 555 317 555 c 0
 411 555 521 506 547 360 c 0
 551 340 553 317 553 295 c 0
 553 282 552 270 551 257 c 2
 550 244 l 1
 167 244 l 1
 180 116 270 87 335 87 c 0
 385 87 431 106 464 143 c 2
 474 155 l 1
 543 88 l 1
 534 77 l 2
 485 18 410 -12 328 -12 c 0
 174 -12 52 87 52 266 c 0
311 459 m 0
 261 459 192 433 172 340 c 1
 437 340 l 1
 437 343 l 2
 437 407 384 459 311 459 c 0
184 778 m 1
 196 760 l 2
 221 728 266 698 317 698 c 0
 360 698 406 720 445 760 c 1
 458 777 l 1
 510 707 l 1
 504 699 l 2
 462 646 395 606 317 606 c 0
 247 606 177 640 128 695 c 2
 120 704 l 1
 184 778 l 1
EndSplineSet
EndChar

StartChar: Edotaccent
Encoding: 278 278 214
Width: 600
GlyphClass: 2
Flags: MW
HStem: 0 104<174 546 174 546> 333 106<174 483 174 483> 636 104<174 549 174 174> 773 152<291 333>
VStem: 65 109<104 333 439 636> 236 152<828 870>
LayerCount: 2
Fore
SplineSet
65 0 m 1
 65 740 l 1
 549 740 l 1
 549 636 l 1
 174 636 l 1
 174 439 l 1
 483 439 l 1
 483 333 l 1
 174 333 l 1
 174 104 l 1
 546 104 l 1
 546 0 l 1
 65 0 l 1
236 849 m 0
 236 891 270 925 312 925 c 0
 354 925 388 891 388 849 c 0
 388 807 354 773 312 773 c 0
 270 773 236 807 236 849 c 0
EndSplineSet
EndChar

StartChar: edotaccent
Encoding: 279 279 215
Width: 600
GlyphClass: 2
Flags: MW
HStem: -12 99<302.5 360 302.5 369> 244 96<172 437 172 550 167 437> 459 96<286 347.5> 626 152<291 333>
VStem: 236 152<681 723> 437 116<288.5 343 288.5 375>
LayerCount: 2
Fore
SplineSet
52 266 m 0
 52 461 179 555 317 555 c 0
 411 555 521 506 547 360 c 0
 551 340 553 317 553 295 c 0
 553 282 552 270 551 257 c 2
 550 244 l 1
 167 244 l 1
 180 116 270 87 335 87 c 0
 385 87 431 106 464 143 c 2
 474 155 l 1
 543 88 l 1
 534 77 l 2
 485 18 410 -12 328 -12 c 0
 174 -12 52 87 52 266 c 0
311 459 m 0
 261 459 192 433 172 340 c 1
 437 340 l 1
 437 343 l 2
 437 407 384 459 311 459 c 0
236 702 m 0
 236 744 270 778 312 778 c 0
 354 778 388 744 388 702 c 0
 388 660 354 626 312 626 c 0
 270 626 236 660 236 702 c 0
EndSplineSet
EndChar

StartChar: Eogonek
Encoding: 280 280 216
Width: 613
GlyphClass: 2
Flags: MW
HStem: -209 67<454 463> -20 20G<65 65 65 546 447 544 544 544> 0 104<174 546 174 546 447 544 544 544> 333 106<174 483 174 483> 636 104<174 549 174 174>
VStem: 65 109<104 333 439 636> 349 86<-124 -115.5>
LayerCount: 2
Fore
SplineSet
65 0 m 1x3c
 65 740 l 1
 549 740 l 1
 549 636 l 1
 174 636 l 1
 174 439 l 1
 483 439 l 1
 483 333 l 1
 174 333 l 1
 174 104 l 1
 546 104 l 1
 546 0 l 1
 65 0 l 1x3c
445 -1 m 1xc2
 447 0 l 1
 544 0 l 1
 532 -11 l 2
 492 -44 463 -73 453 -83 c 0
 445 -92 435 -103 435 -117 c 0
 435 -131 445 -142 463 -142 c 0
 469 -142 478 -140 490 -136 c 0
 508 -130 519 -122 526 -116 c 2
 536 -108 l 1
 536 -178 l 1
 534 -180 l 2
 509 -201 478 -209 448 -209 c 0
 384 -209 349 -176 349 -135 c 0
 349 -96 383 -49 445 -1 c 1xc2
EndSplineSet
EndChar

StartChar: eogonek
Encoding: 281 281 217
Width: 613
GlyphClass: 2
Flags: MW
HStem: -208 70<440 448.5> -12 99<302.5 337> 244 96<172 437 172 550 167 437> 459 96<286 347.5>
VStem: 330 82<-110 -96.5> 437 116<288.5 343 288.5 375>
LayerCount: 2
Fore
SplineSet
311 459 m 0
 261 459 192 433 172 340 c 1
 437 340 l 1
 437 343 l 2
 437 407 384 459 311 459 c 0
52 266 m 0
 52 461 179 555 317 555 c 0
 411 555 521 506 547 360 c 0
 551 340 553 317 553 295 c 0
 553 282 552 270 551 257 c 2
 550 244 l 1
 167 244 l 1
 180 116 270 87 335 87 c 0
 385 87 431 106 464 143 c 2
 474 155 l 1
 543 88 l 1
 534 77 l 1
 489 21 l 2
 448 -30 412 -67 412 -98 c 0
 412 -122 428 -138 452 -138 c 0
 457 -138 477 -138 510 -117 c 2
 519 -111 l 1
 518 -184 l 1
 515 -186 l 2
 492 -199 463 -208 434 -208 c 0
 372 -208 330 -165 330 -113 c 0
 330 -80 347 -44 380 -8 c 1
 363 -11 346 -12 328 -12 c 0
 174 -12 52 87 52 266 c 0
EndSplineSet
EndChar

StartChar: Ecaron
Encoding: 282 282 218
Width: 613
GlyphClass: 2
Flags: MW
HStem: 0 104<174 546 174 546> 333 106<174 483 174 483> 636 104<174 549 174 174> 777 197<189 330 189 294>
VStem: 65 109<104 333 439 636>
LayerCount: 2
Fore
SplineSet
65 0 m 1
 65 740 l 1
 549 740 l 1
 549 636 l 1
 174 636 l 1
 174 439 l 1
 483 439 l 1
 483 333 l 1
 174 333 l 1
 174 104 l 1
 546 104 l 1
 546 0 l 1
 65 0 l 1
450 970 m 1x00
 503 908 l 1
 330 777 l 1
 294 777 l 1
 131 906 l 1
 189 974 l 1
 315 888 l 1
 450 970 l 1x00
EndSplineSet
EndChar

StartChar: ecaron
Encoding: 283 283 219
Width: 613
GlyphClass: 2
Flags: MW
HStem: -12 99<302.5 360 302.5 369> 244 96<172 437 172 550 167 437> 459 96<286 347.5> 614 246<228 333 228 293>
VStem: 147 332<798 800> 437 116<288.5 343 288.5 375>
LayerCount: 2
Fore
SplineSet
52 266 m 0xe4
 52 461 179 555 317 555 c 0
 411 555 521 506 547 360 c 0
 551 340 553 317 553 295 c 0
 553 282 552 270 551 257 c 2
 550 244 l 1
 167 244 l 1
 180 116 270 87 335 87 c 0
 385 87 431 106 464 143 c 2
 474 155 l 1
 543 88 l 1
 534 77 l 2
 485 18 410 -12 328 -12 c 0
 174 -12 52 87 52 266 c 0xe4
311 459 m 0
 261 459 192 433 172 340 c 1
 437 340 l 1
 437 343 l 2
 437 407 384 459 311 459 c 0
411 860 m 1x18
 479 798 l 1
 333 614 l 1
 293 614 l 1
 147 800 l 1
 228 860 l 1
 317 741 l 1
 411 860 l 1x18
EndSplineSet
EndChar

StartChar: Gcircumflex
Encoding: 284 284 220
Width: 600
GlyphClass: 2
Flags: MW
HStem: -11 103<324 365 324 375> 267 103<330 464 330 571> 643 104<310.5 369> 739 197<295 436>
VStem: 38 113<341.5 410 341.5 521> 464 107<127 267 267 267>
LayerCount: 2
Fore
SplineSet
38 361 m 0xec
 38 681 234 747 339 747 c 0
 435 747 522 697 567 615 c 2
 573 605 l 1
 498 528 l 1
 487 535 l 2
 473 544 469 559 466 565 c 0
 446 609 399 643 339 643 c 0
 282 643 222 614 186 551 c 0
 159 503 151 442 151 378 c 0
 151 305 160 211 217 149 c 0
 254 109 302 92 346 92 c 0
 384 92 428 105 464 127 c 1
 464 267 l 1
 330 267 l 1
 330 370 l 1
 571 370 l 1
 571 70 l 1
 565 65 l 1
 493 14 411 -11 339 -11 c 0
 201 -11 38 85 38 361 c 0xec
175 743 m 1x10
 122 805 l 1
 295 936 l 1
 331 936 l 1
 494 807 l 1
 436 739 l 1
 310 825 l 1
 175 743 l 1x10
EndSplineSet
EndChar

StartChar: gcircumflex
Encoding: 285 285 221
Width: 600
GlyphClass: 2
Flags: MW
HStem: -204 95<287 317 287 395.5> 22 93<326.5 378 346 353> 170 99<269 308 250.5 338> 459 98<529.5 547> 477 83<251 308.5> 567 246<216 334 294 399>
VStem: 40 110<-47 -38.5> 67 108<344.5 401.5 344.5 417> 85 102<136 140.5> 148 332<627 629> 383 107<344.5 375.5 309.5 401.5> 457 108<-37.5 -20>
LayerCount: 2
Fore
SplineSet
280 477 m 0xe920
 222 477 175 430 175 373 c 0
 175 316 222 269 279 269 c 0
 337 269 383 316 383 373 c 0
 383 430 337 477 280 477 c 0xe920
67 362 m 0
 67 472 169 560 285 560 c 0xe9
 334 560 379 543 414 513 c 1
 454 542 500 557 548 557 c 0
 554 557 558 556 564 556 c 2
 577 555 l 1
 592 452 l 1
 570 456 l 2
 561 458 552 459 542 459 c 0
 517 459 491 453 469 443 c 1
 484 417 490 390 490 361 c 0
 490 258 396 170 280 170 c 0
 258 170 235 173 214 180 c 1
 203 170 187 153 187 140 c 0xf0a0
 187 132 193 125 209 120 c 0
 220 117 244 114 283 114 c 0
 308 114 333 115 359 115 c 0
 397 115 436 113 472 99 c 0
 535 76 565 25 565 -24 c 0
 565 -107 490 -204 301 -204 c 0
 108 -204 40 -132 40 -60 c 0xf210
 40 -17 70 22 117 54 c 1
 92 75 85 103 85 123 c 0xf080
 85 158 106 192 137 221 c 1
 92 256 67 307 67 362 c 0
292 23 m 0
 253 24 224 26 205 28 c 1
 175 11 150 -13 150 -40 c 0
 150 -54 155 -77 193 -92 c 0
 231 -107 275 -109 299 -109 c 0
 335 -109 378 -106 413 -87 c 0
 447 -69 457 -46 457 -29 c 0xe210
 457 -11 448 13 405 20 c 0
 391 22 372 22 353 22 c 2
 333 22 l 2
 320 22 305 22 292 23 c 0
216 567 m 1x0440
 148 629 l 1
 294 813 l 1
 334 813 l 1
 480 627 l 1
 399 567 l 1
 310 686 l 1
 216 567 l 1x0440
EndSplineSet
EndChar

StartChar: Gbreve
Encoding: 286 286 222
Width: 613
GlyphClass: 2
Flags: MW
HStem: -11 103<324 365 324 375> 267 103<330 464 330 571> 643 104<310.5 369> 777 92<291.5 338.5 291.5 356> 929 20G<184 184>
VStem: 38 113<341.5 410 341.5 521> 464 107<127 267 267 267>
LayerCount: 2
Fore
SplineSet
38 361 m 0
 38 681 234 747 339 747 c 0
 435 747 522 697 567 615 c 2
 573 605 l 1
 498 528 l 1
 487 535 l 2
 473 544 469 559 466 565 c 0
 446 609 399 643 339 643 c 0
 282 643 222 614 186 551 c 0
 159 503 151 442 151 378 c 0
 151 305 160 211 217 149 c 0
 254 109 302 92 346 92 c 0
 384 92 428 105 464 127 c 1
 464 267 l 1
 330 267 l 1
 330 370 l 1
 571 370 l 1
 571 70 l 1
 565 65 l 1
 493 14 411 -11 339 -11 c 0
 201 -11 38 85 38 361 c 0
184 949 m 1
 196 931 l 2
 221 899 266 869 317 869 c 0
 360 869 406 891 445 931 c 1
 458 948 l 1
 510 878 l 1
 504 870 l 2
 462 817 395 777 317 777 c 0
 247 777 177 811 128 866 c 2
 120 875 l 1
 184 949 l 1
EndSplineSet
EndChar

StartChar: gbreve
Encoding: 287 287 223
Width: 613
GlyphClass: 2
Flags: MW
HStem: -204 95<287 317 287 395.5> 22 93<326.5 378 346 353> 170 99<269 308 250.5 338> 459 98<529.5 547> 477 83<251 308.5> 606 92<291.5 338.5 291.5 356> 758 20G<184 184>
VStem: 40 110<-47 -38.5> 67 108<344.5 401.5 344.5 417> 85 102<136 140.5> 383 107<344.5 375.5 309.5 401.5> 457 108<-37.5 -20>
LayerCount: 2
Fore
SplineSet
280 477 m 0xe8a0
 222 477 175 430 175 373 c 0
 175 316 222 269 279 269 c 0
 337 269 383 316 383 373 c 0
 383 430 337 477 280 477 c 0xe8a0
67 362 m 0
 67 472 169 560 285 560 c 0xe880
 334 560 379 543 414 513 c 1
 454 542 500 557 548 557 c 0
 554 557 558 556 564 556 c 2
 577 555 l 1
 592 452 l 1
 570 456 l 2
 561 458 552 459 542 459 c 0
 517 459 491 453 469 443 c 1
 484 417 490 390 490 361 c 0
 490 258 396 170 280 170 c 0
 258 170 235 173 214 180 c 1
 203 170 187 153 187 140 c 0xf060
 187 132 193 125 209 120 c 0
 220 117 244 114 283 114 c 0
 308 114 333 115 359 115 c 0
 397 115 436 113 472 99 c 0
 535 76 565 25 565 -24 c 0
 565 -107 490 -204 301 -204 c 0
 108 -204 40 -132 40 -60 c 0xf110
 40 -17 70 22 117 54 c 1
 92 75 85 103 85 123 c 0xf040
 85 158 106 192 137 221 c 1
 92 256 67 307 67 362 c 0
292 23 m 0
 253 24 224 26 205 28 c 1
 175 11 150 -13 150 -40 c 0
 150 -54 155 -77 193 -92 c 0
 231 -107 275 -109 299 -109 c 0
 335 -109 378 -106 413 -87 c 0
 447 -69 457 -46 457 -29 c 0xe110
 457 -11 448 13 405 20 c 0
 391 22 372 22 353 22 c 2
 333 22 l 2
 320 22 305 22 292 23 c 0
184 778 m 1x06
 196 760 l 2
 221 728 266 698 317 698 c 0
 360 698 406 720 445 760 c 1
 458 777 l 1
 510 707 l 1
 504 699 l 2
 462 646 395 606 317 606 c 0
 247 606 177 640 128 695 c 2
 120 704 l 1
 184 778 l 1x06
EndSplineSet
EndChar

StartChar: Gdotaccent
Encoding: 288 288 224
Width: 600
GlyphClass: 2
Flags: MW
HStem: -11 103<324 365 324 375> 267 103<330 464 330 571> 643 104<310.5 369> 773 152<291 333>
VStem: 38 113<341.5 410 341.5 521> 236 152<828 870> 464 107<127 267 267 267>
LayerCount: 2
Fore
SplineSet
38 361 m 0
 38 681 234 747 339 747 c 0
 435 747 522 697 567 615 c 2
 573 605 l 1
 498 528 l 1
 487 535 l 2
 473 544 469 559 466 565 c 0
 446 609 399 643 339 643 c 0
 282 643 222 614 186 551 c 0
 159 503 151 442 151 378 c 0
 151 305 160 211 217 149 c 0
 254 109 302 92 346 92 c 0
 384 92 428 105 464 127 c 1
 464 267 l 1
 330 267 l 1
 330 370 l 1
 571 370 l 1
 571 70 l 1
 565 65 l 1
 493 14 411 -11 339 -11 c 0
 201 -11 38 85 38 361 c 0
236 849 m 0
 236 891 270 925 312 925 c 0
 354 925 388 891 388 849 c 0
 388 807 354 773 312 773 c 0
 270 773 236 807 236 849 c 0
EndSplineSet
EndChar

StartChar: gdotaccent
Encoding: 289 289 225
Width: 600
GlyphClass: 2
Flags: MW
HStem: -204 95<287 317 287 395.5> 22 93<326.5 378 346 353> 170 99<269 308 250.5 338> 459 98<529.5 547> 477 83<251 308.5> 626 152<291 333>
VStem: 40 110<-47 -38.5> 67 108<344.5 401.5 344.5 417> 85 102<136 140.5> 236 152<681 723> 383 107<344.5 375.5 309.5 401.5> 457 108<-37.5 -20>
LayerCount: 2
Fore
SplineSet
280 477 m 0xe920
 222 477 175 430 175 373 c 0
 175 316 222 269 279 269 c 0
 337 269 383 316 383 373 c 0
 383 430 337 477 280 477 c 0xe920
67 362 m 0
 67 472 169 560 285 560 c 0xe9
 334 560 379 543 414 513 c 1
 454 542 500 557 548 557 c 0
 554 557 558 556 564 556 c 2
 577 555 l 1
 592 452 l 1
 570 456 l 2
 561 458 552 459 542 459 c 0
 517 459 491 453 469 443 c 1
 484 417 490 390 490 361 c 0
 490 258 396 170 280 170 c 0
 258 170 235 173 214 180 c 1
 203 170 187 153 187 140 c 0xf0a0
 187 132 193 125 209 120 c 0
 220 117 244 114 283 114 c 0
 308 114 333 115 359 115 c 0
 397 115 436 113 472 99 c 0
 535 76 565 25 565 -24 c 0
 565 -107 490 -204 301 -204 c 0
 108 -204 40 -132 40 -60 c 0xf210
 40 -17 70 22 117 54 c 1
 92 75 85 103 85 123 c 0xf080
 85 158 106 192 137 221 c 1
 92 256 67 307 67 362 c 0
292 23 m 0
 253 24 224 26 205 28 c 1
 175 11 150 -13 150 -40 c 0
 150 -54 155 -77 193 -92 c 0
 231 -107 275 -109 299 -109 c 0
 335 -109 378 -106 413 -87 c 0
 447 -69 457 -46 457 -29 c 0xe210
 457 -11 448 13 405 20 c 0
 391 22 372 22 353 22 c 2
 333 22 l 2
 320 22 305 22 292 23 c 0
236 702 m 0x0440
 236 744 270 778 312 778 c 0
 354 778 388 744 388 702 c 0
 388 660 354 626 312 626 c 0
 270 626 236 660 236 702 c 0x0440
EndSplineSet
EndChar

StartChar: Gcommaaccent
Encoding: 290 290 226
Width: 600
GlyphClass: 2
Flags: MW
HStem: -193 219.294 -11 103<324 365 324 375> 267 103<330 464 330 571> 643 104<310.5 369>
VStem: 38 113<341.5 410 341.5 521> 246.431 78.031 464 107<127 267 267 267>
LayerCount: 2
Fore
SplineSet
38 361 m 0x7a
 38 681 234 747 339 747 c 0
 435 747 522 697 567 615 c 2
 573 605 l 1
 498 528 l 1
 487 535 l 2
 473 544 469 559 466 565 c 0
 446 609 399 643 339 643 c 0
 282 643 222 614 186 551 c 0
 159 503 151 442 151 378 c 0
 151 305 160 211 217 149 c 0
 254 109 302 92 346 92 c 0
 384 92 428 105 464 127 c 1
 464 267 l 1
 330 267 l 1
 330 370 l 1
 571 370 l 1
 571 70 l 1
 565 65 l 1
 493 14 411 -11 339 -11 c 0
 201 -11 38 85 38 361 c 0x7a
254.595703125 26.2939453125 m 1x84
 381.1953125 15.404296875 l 1
 324.461914062 -193 l 1
 246.430664062 -193 l 1
 254.595703125 26.2939453125 l 1x84
EndSplineSet
EndChar

StartChar: gcommaaccent
Encoding: 291 291 227
Width: 600
GlyphClass: 2
Flags: MW
HStem: -204 95<287 317 287 395.5> 22 93<326.5 378 346 353> 170 99<269 308 250.5 338> 459 98<529.5 547> 477 83<251 308.5> 555.706 219.294
VStem: 40 110<-47 -38.5> 67 108<344.5 401.5 344.5 417> 85 102<136 140.5> 280.538 78.031 383 107<344.5 375.5 309.5 401.5> 457 108<-37.5 -20>
LayerCount: 2
Fore
SplineSet
280 477 m 0xe920
 222 477 175 430 175 373 c 0
 175 316 222 269 279 269 c 0
 337 269 383 316 383 373 c 0
 383 430 337 477 280 477 c 0xe920
67 362 m 0
 67 472 169 560 285 560 c 0xe9
 334 560 379 543 414 513 c 1
 454 542 500 557 548 557 c 0
 554 557 558 556 564 556 c 2
 577 555 l 1
 592 452 l 1
 570 456 l 2
 561 458 552 459 542 459 c 0
 517 459 491 453 469 443 c 1
 484 417 490 390 490 361 c 0
 490 258 396 170 280 170 c 0
 258 170 235 173 214 180 c 1
 203 170 187 153 187 140 c 0xf0a0
 187 132 193 125 209 120 c 0
 220 117 244 114 283 114 c 0
 308 114 333 115 359 115 c 0
 397 115 436 113 472 99 c 0
 535 76 565 25 565 -24 c 0
 565 -107 490 -204 301 -204 c 0
 108 -204 40 -132 40 -60 c 0xf210
 40 -17 70 22 117 54 c 1
 92 75 85 103 85 123 c 0xf080
 85 158 106 192 137 221 c 1
 92 256 67 307 67 362 c 0
292 23 m 0
 253 24 224 26 205 28 c 1
 175 11 150 -13 150 -40 c 0
 150 -54 155 -77 193 -92 c 0
 231 -107 275 -109 299 -109 c 0
 335 -109 378 -106 413 -87 c 0
 447 -69 457 -46 457 -29 c 0xe210
 457 -11 448 13 405 20 c 0
 391 22 372 22 353 22 c 2
 333 22 l 2
 320 22 305 22 292 23 c 0
350.404296875 555.706054688 m 1
 223.8046875 566.595703125 l 1
 280.538085938 775 l 1
 358.569335938 775 l 1
 350.404296875 555.706054688 l 1
EndSplineSet
EndChar

StartChar: Hcircumflex
Encoding: 292 292 228
Width: 600
GlyphClass: 2
Flags: MW
HStem: 0 21G<59 59 59 176> 337 101<176 434 176 435> 719 20G<59 176 176 176 435 549 436 436 549 549> 739 197<59 331 176 331 295 549 295 436>
VStem: 59 117<0 337 438 697> 59 125<709 721 709 739 709 739> 434 115<-1 337 337 337> 435 122<709 722 709 739 709 739>
LayerCount: 2
Fore
SplineSet
59 0 m 1xea
 59 739 l 1
 176 739 l 1xea
 181 731 l 2
 183 727 184 723 184 719 c 0xe4
 184 699 176 701 176 697 c 2
 176 438 l 1
 435 438 l 1
 435 739 l 1xe9
 549 739 l 1xe2
 554 732 l 2
 556 728 557 724 557 720 c 0xe1
 557 698 549 701 549 699 c 2
 549 -1 l 1
 434 -1 l 1
 434 337 l 1
 176 337 l 1
 176 0 l 1
 59 0 l 1xea
175 743 m 1x10
 122 805 l 1
 295 936 l 1
 331 936 l 1
 494 807 l 1
 436 739 l 1
 310 825 l 1
 175 743 l 1x10
EndSplineSet
EndChar

StartChar: hcircumflex
Encoding: 293 293 229
Width: 600
GlyphClass: 2
Flags: MW
HStem: 0 21G<78 196 78 78 425 425 425 540> 450 105<328 348.5> 739 197<295 436> 768 20G<78 202 202 202>
VStem: 78 118<0 307 476 745 745 746> 425 115<0 320 320 326 0 338>
LayerCount: 2
Fore
SplineSet
196 0 m 1xdc
 78 0 l 1
 78 788 l 1
 202 788 l 1
 206 778 l 2
 207 775 207 773 207 770 c 0
 207 755 197 747 196 746 c 2
 196 745 l 1
 196 476 l 1
 238 522 296 555 360 555 c 0
 428 555 490 519 519 456 c 0
 540 411 540 366 540 326 c 2
 540 0 l 1
 425 0 l 1
 425 320 l 2
 425 356 424 395 399 423 c 0
 383 441 360 450 337 450 c 0
 288 450 238 409 219 385 c 0
 199 360 196 340 196 307 c 2
 196 0 l 1xdc
175 743 m 1x20
 122 805 l 1
 295 936 l 1
 331 936 l 1
 494 807 l 1
 436 739 l 1
 310 825 l 1
 175 743 l 1x20
EndSplineSet
EndChar

StartChar: Hbar
Encoding: 294 294 230
Width: 613
GlyphClass: 2
Flags: MW
HStem: 0 20G 337 101<176 434 176 435> 561 79<176 435 176 435> 719 20G<59 176 176 176 435 549 549 549>
VStem: 59 117<0 337 0 438 438 554 554 554 644 695> 59 125<708.5 721 708.5 739 708.5 739> 435 114<438 553 -1 561 -1 561 644 699> 435 122<709 722 709 739 709 739>
LayerCount: 2
Fore
SplineSet
59 644 m 1xfa
 59 739 l 1
 176 739 l 1xfa
 181 731 l 2
 183 727 184 723 184 719 c 0xf4
 184 698 176 699 176 695 c 2
 176 640 l 1
 435 640 l 1
 435 739 l 1
 549 739 l 1xfa
 554 732 l 2
 556 728 557 724 557 720 c 0xf1
 557 698 549 701 549 699 c 2
 549 644 l 1
 599 644 l 1
 599 553 l 1
 549 553 l 1
 549 -1 l 1
 434 -1 l 1
 434 337 l 1
 176 337 l 1
 176 0 l 1
 59 0 l 1
 59 554 l 1
 15 554 l 1
 15 644 l 1
 59 644 l 1xfa
435 438 m 1
 435 561 l 1
 176 561 l 1
 176 438 l 1
 435 438 l 1
EndSplineSet
EndChar

StartChar: hbar
Encoding: 295 295 231
Width: 613
GlyphClass: 2
Flags: MW
HStem: 0 21G<105 223 105 105 452 567 452 452> 450 105<356 375.5> 614 95<31 105 31 105 223 356> 768 20G<105 230 230 230>
VStem: 105 118<0 307 476 614 709 745 745 746> 452 115<0 320 320 326 0 338>
LayerCount: 2
Fore
SplineSet
105 614 m 1
 31 614 l 1
 31 709 l 1
 105 709 l 1
 105 788 l 1
 230 788 l 1
 233 778 l 2
 234 775 235 773 235 770 c 0
 235 755 224 747 223 746 c 2
 223 745 l 1
 223 709 l 1
 356 709 l 1
 356 614 l 1
 223 614 l 1
 223 476 l 1
 265 522 324 555 388 555 c 0
 456 555 517 519 546 456 c 0
 567 411 567 366 567 326 c 2
 567 0 l 1
 452 0 l 1
 452 320 l 2
 452 356 451 395 426 423 c 0
 410 441 387 450 364 450 c 0
 315 450 266 409 247 385 c 0
 227 360 223 340 223 307 c 2
 223 0 l 1
 105 0 l 1
 105 614 l 1
EndSplineSet
EndChar

StartChar: Itilde
Encoding: 296 296 232
Width: 600
GlyphClass: 2
Flags: MW
HStem: -1 99<350 504 350 504> 639 100<99 497 99 237 350 350 350 497> 791 99<394 410 394 423.5> 850 98<233.5 262> 911 20G<469 469>
VStem: 237 113<99 639 98 639>
LayerCount: 2
Fore
SplineSet
99 639 m 1xc4
 99 739 l 1
 497 739 l 1
 497 639 l 1
 350 639 l 1
 350 98 l 1
 504 98 l 1
 504 -1 l 1
 91 -1 l 1
 91 99 l 1
 237 99 l 1
 237 639 l 1
 99 639 l 1xc4
179 815 m 1x10
 170 801 l 1
 92 857 l 1
 100 869 l 1
 145 920 193 948 247 948 c 0x10
 303 948 338 922 353 912 c 0
 373 899 387 890 401 890 c 0
 419 890 430 899 458 916 c 1
 469 931 l 1
 534 891 l 1
 526 881 l 2
 485 830 450 791 397 791 c 0x28
 315 791 280 850 244 850 c 0
 223 850 209 841 179 815 c 1x10
EndSplineSet
EndChar

StartChar: itilde
Encoding: 297 297 233
Width: 600
GlyphClass: 2
Flags: MW
HStem: 0 99<114 252 369 496 114 252> 442 101<121 369 121 252> 645 99<410 426 410 439.5> 704 98<249.5 278> 765 20G<485 485>
VStem: 252 117<99 442 442 442>
LayerCount: 2
Fore
SplineSet
121 442 m 1xc4
 121 543 l 1
 369 543 l 1
 369 99 l 1
 496 99 l 1
 496 0 l 1
 114 0 l 1
 114 99 l 1
 252 99 l 1
 252 442 l 1
 121 442 l 1xc4
195 669 m 1x10
 186 655 l 1
 108 711 l 1
 116 723 l 1
 161 774 209 802 263 802 c 0x10
 319 802 354 776 369 766 c 0
 389 753 403 744 417 744 c 0
 435 744 446 753 474 770 c 1
 485 785 l 1
 550 745 l 1
 542 735 l 2
 501 684 466 645 413 645 c 0x28
 331 645 296 704 260 704 c 0
 239 704 225 695 195 669 c 1x10
EndSplineSet
EndChar

StartChar: Imacron
Encoding: 298 298 234
Width: 600
GlyphClass: 2
Flags: MW
HStem: -1 99<350 504 350 504> 639 100<99 497 99 237 350 350 350 497> 837 97<141 473 141 473>
VStem: 141 332<837 934 837 934> 237 113<99 639 98 639>
LayerCount: 2
Fore
SplineSet
99 639 m 1xc8
 99 739 l 1
 497 739 l 1
 497 639 l 1
 350 639 l 1
 350 98 l 1
 504 98 l 1
 504 -1 l 1
 91 -1 l 1
 91 99 l 1
 237 99 l 1
 237 639 l 1
 99 639 l 1xc8
141 837 m 1x30
 141 934 l 1
 473 934 l 1
 473 837 l 1
 141 837 l 1x30
EndSplineSet
EndChar

StartChar: imacron
Encoding: 299 299 235
Width: 600
GlyphClass: 2
Flags: MW
HStem: 0 99<114 252 369 496 114 252> 442 101<121 369 121 252> 640 97<141 473 141 473>
VStem: 141 332<640 737 640 737> 252 117<99 442 442 442>
LayerCount: 2
Fore
SplineSet
121 442 m 1xc8
 121 543 l 1
 369 543 l 1
 369 99 l 1
 496 99 l 1
 496 0 l 1
 114 0 l 1
 114 99 l 1
 252 99 l 1
 252 442 l 1
 121 442 l 1xc8
141 640 m 1x30
 141 737 l 1
 473 737 l 1
 473 640 l 1
 141 640 l 1x30
EndSplineSet
EndChar

StartChar: Ibreve
Encoding: 300 300 236
Width: 600
GlyphClass: 2
Flags: MW
HStem: -1 99<350 504 350 504> 639 100<99 497 99 237 350 350 350 497> 766 92<270.5 317.5 270.5 335> 918 20G<163 163>
VStem: 237 113<99 639 98 639>
LayerCount: 2
Fore
SplineSet
99 639 m 1
 99 739 l 1
 497 739 l 1
 497 639 l 1
 350 639 l 1
 350 98 l 1
 504 98 l 1
 504 -1 l 1
 91 -1 l 1
 91 99 l 1
 237 99 l 1
 237 639 l 1
 99 639 l 1
163 938 m 1
 175 920 l 2
 200 888 245 858 296 858 c 0
 339 858 385 880 424 920 c 1
 437 937 l 1
 489 867 l 1
 483 859 l 2
 441 806 374 766 296 766 c 0
 226 766 156 800 107 855 c 2
 99 864 l 1
 163 938 l 1
EndSplineSet
EndChar

StartChar: ibreve
Encoding: 301 301 237
Width: 600
GlyphClass: 2
Flags: MW
HStem: 0 99<114 252 369 496 114 252> 442 101<121 369 121 252> 606 92<291.5 338.5 291.5 356> 758 20G<184 184>
VStem: 252 117<99 442 442 442>
LayerCount: 2
Fore
SplineSet
121 442 m 1
 121 543 l 1
 369 543 l 1
 369 99 l 1
 496 99 l 1
 496 0 l 1
 114 0 l 1
 114 99 l 1
 252 99 l 1
 252 442 l 1
 121 442 l 1
184 778 m 1
 196 760 l 2
 221 728 266 698 317 698 c 0
 360 698 406 720 445 760 c 1
 458 777 l 1
 510 707 l 1
 504 699 l 2
 462 646 395 606 317 606 c 0
 247 606 177 640 128 695 c 2
 120 704 l 1
 184 778 l 1
EndSplineSet
EndChar

StartChar: Iogonek
Encoding: 302 302 238
Width: 600
GlyphClass: 2
Flags: MW
HStem: -209 67<297 306> -20 20G<290 387 387 387> -1 99<350 504 350 504 288 504> 639 100<99 497 99 237 350 350 350 497>
VStem: 192 86<-124 -115.5> 237 113<99 639 98 639>
LayerCount: 2
Fore
SplineSet
99 639 m 1x34
 99 739 l 1
 497 739 l 1
 497 639 l 1
 350 639 l 1
 350 98 l 1
 504 98 l 1
 504 -1 l 1
 91 -1 l 1
 91 99 l 1
 237 99 l 1
 237 639 l 1
 99 639 l 1x34
288 -1 m 1xc8
 290 0 l 1
 387 0 l 1
 375 -11 l 2
 335 -44 306 -73 296 -83 c 0
 288 -92 278 -103 278 -117 c 0
 278 -131 288 -142 306 -142 c 0
 312 -142 321 -140 333 -136 c 0
 351 -130 362 -122 369 -116 c 2
 379 -108 l 1
 379 -178 l 1
 377 -180 l 2
 352 -201 321 -209 291 -209 c 0
 227 -209 192 -176 192 -135 c 0
 192 -96 226 -49 288 -1 c 1xc8
EndSplineSet
EndChar

StartChar: iogonek
Encoding: 303 303 239
Width: 600
GlyphClass: 2
Flags: MW
HStem: -209 67<297 306> -20 20G<114 496 114 114 290 387 387 387> 0 99<114 252 369 496 114 252 369 387 387 387> 442 101<121 369 121 252> 626 152<291 333>
VStem: 192 86<-124 -115.5> 236 153<681 723> 252 117<99 442 442 442>
LayerCount: 2
Fore
SplineSet
121 442 m 1x39
 121 543 l 1
 369 543 l 1
 369 99 l 1
 496 99 l 1
 496 0 l 1
 114 0 l 1
 114 99 l 1
 252 99 l 1
 252 442 l 1
 121 442 l 1x39
236 702 m 0x3a
 236 744 270 778 312 778 c 0
 354 778 389 744 389 702 c 0
 389 660 354 626 312 626 c 0
 270 626 236 660 236 702 c 0x3a
288 -1 m 1xc4
 290 0 l 1
 387 0 l 1
 375 -11 l 2
 335 -44 306 -73 296 -83 c 0
 288 -92 278 -103 278 -117 c 0
 278 -131 288 -142 306 -142 c 0
 312 -142 321 -140 333 -136 c 0
 351 -130 362 -122 369 -116 c 2
 379 -108 l 1
 379 -178 l 1
 377 -180 l 2
 352 -201 321 -209 291 -209 c 0
 227 -209 192 -176 192 -135 c 0
 192 -96 226 -49 288 -1 c 1xc4
EndSplineSet
EndChar

StartChar: Idotaccent
Encoding: 304 304 240
Width: 613
GlyphClass: 2
Flags: MW
HStem: -1 99<350 504 350 504> 639 100<99 497 99 237 350 350 350 497> 787 152<271 313>
VStem: 216 152<842 884> 237 113<99 639 98 639>
LayerCount: 2
Fore
SplineSet
99 639 m 1xc8
 99 739 l 1
 497 739 l 1
 497 639 l 1
 350 639 l 1
 350 98 l 1
 504 98 l 1
 504 -1 l 1
 91 -1 l 1
 91 99 l 1
 237 99 l 1
 237 639 l 1
 99 639 l 1xc8
216 863 m 0x30
 216 905 250 939 292 939 c 0
 334 939 368 905 368 863 c 0
 368 821 334 787 292 787 c 0
 250 787 216 821 216 863 c 0x30
EndSplineSet
EndChar

StartChar: dotlessi
Encoding: 305 305 241
Width: 613
GlyphClass: 2
Flags: MW
HStem: 0 99<114 252 369 496 114 252> 442 101<121 369 121 252>
VStem: 252 117<99 442 442 442>
LayerCount: 2
Fore
SplineSet
121 442 m 1
 121 543 l 1
 369 543 l 1
 369 99 l 1
 496 99 l 1
 496 0 l 1
 114 0 l 1
 114 99 l 1
 252 99 l 1
 252 442 l 1
 121 442 l 1
EndSplineSet
EndChar

StartChar: IJ
Encoding: 306 306 242
Width: 613
GlyphClass: 2
Flags: MW
HStem: -199 105<306 346 306 367> -32 20G<210 210> -1 99<209 310 209 310> 639 100<24 95 24 614 209 209 209 429 542 542 542 614>
VStem: 95 114<99 639 98 639> 429 113<62 71 71 639>
LayerCount: 2
Fore
SplineSet
310 -1 m 1
 15 -1 l 1
 15 99 l 1
 95 99 l 1
 95 639 l 1
 24 639 l 1
 24 739 l 1
 614 739 l 1
 614 639 l 1
 542 639 l 1
 542 71 l 2
 542 20 542 -37 511 -92 c 0
 473 -161 405 -199 329 -199 c 0
 260 -199 192 -167 145 -111 c 2
 137 -102 l 1
 210 -12 l 1
 222 -22 l 2
 233 -32 232 -46 232 -46 c 1
 241 -55 281 -94 331 -94 c 0
 361 -94 388 -80 405 -54 c 0
 428 -22 429 20 429 62 c 2
 429 639 l 1
 209 639 l 1
 209 98 l 1
 310 98 l 1
 310 -1 l 1
EndSplineSet
EndChar

StartChar: ij
Encoding: 307 307 243
Width: 613
GlyphClass: 2
Flags: MW
HStem: -207 105<296 345 296 360> 0 99<15 144 261 364 15 144> 441 102<261 432 261 261> 626 152<184 226 471 513>
VStem: 128 154<681 723> 144 117<99 441 99 442 99 442> 415 153<681 723> 432 117<32 47 47 441 441 441>
LayerCount: 2
Fore
SplineSet
364 0 m 1xf5
 15 0 l 1
 15 99 l 1
 144 99 l 1
 144 442 l 1
 23 442 l 1
 23 543 l 1
 549 543 l 1
 549 47 l 2
 549 2 548 -43 523 -90 c 0
 483 -168 401 -207 319 -207 c 0
 247 -207 184 -177 142 -125 c 2
 134 -116 l 1
 206 -20 l 1
 219 -30 l 2
 233 -41 232 -56 232 -56 c 2
 235 -60 267 -102 325 -102 c 0
 365 -102 402 -81 420 -43 c 0
 432 -19 432 5 432 32 c 2
 432 441 l 1
 261 441 l 1
 261 99 l 1
 364 99 l 1
 364 0 l 1xf5
205 626 m 0
 163 626 128 660 128 702 c 0
 128 744 163 778 205 778 c 0
 247 778 282 744 282 702 c 0xf8
 282 660 247 626 205 626 c 0
492 626 m 0
 450 626 415 660 415 702 c 0
 415 744 450 778 492 778 c 0
 534 778 568 744 568 702 c 0xf2
 568 660 534 626 492 626 c 0
EndSplineSet
EndChar

StartChar: Jcircumflex
Encoding: 308 308 244
Width: 600
GlyphClass: 2
Flags: MW
HStem: -13 104<218 258 218 279> 639 100<199 567 199 341 454 454 454 567> 739 197<295 331 295 567 295 436>
VStem: 341 113<244 251 251 639>
LayerCount: 2
Fore
SplineSet
199 639 m 1xd0
 199 739 l 1
 567 739 l 1
 567 639 l 1
 454 639 l 1
 454 251 l 2
 454 200 454 143 423 88 c 0
 385 22 317 -13 241 -13 c 0
 172 -13 104 18 57 74 c 2
 49 84 l 1
 122 173 l 1
 134 163 l 2
 145 153 144 139 144 139 c 1
 153 130 193 91 243 91 c 0
 273 91 300 105 317 129 c 0
 340 161 341 203 341 244 c 2
 341 639 l 1
 199 639 l 1xd0
175 743 m 1x20
 122 805 l 1
 295 936 l 1
 331 936 l 1
 494 807 l 1
 436 739 l 1
 310 825 l 1
 175 743 l 1x20
EndSplineSet
EndChar

StartChar: jcircumflex
Encoding: 309 309 245
Width: 600
GlyphClass: 2
Flags: MW
HStem: -207 105<210 259 210 274> 441 102<144 463 144 346> 567 246<216 334 294 399>
VStem: 148 332<627 629> 346 117<32 47 47 441 441 441>
LayerCount: 2
Fore
SplineSet
144 441 m 1xc8
 144 543 l 1
 463 543 l 1
 463 47 l 2
 463 2 462 -43 437 -90 c 0
 397 -168 315 -207 233 -207 c 0
 161 -207 98 -177 56 -125 c 2
 48 -116 l 1
 120 -20 l 1
 133 -30 l 2
 147 -41 146 -56 146 -56 c 2
 149 -60 181 -102 239 -102 c 0
 279 -102 316 -81 334 -43 c 0
 346 -19 346 5 346 32 c 2
 346 441 l 1
 144 441 l 1xc8
216 567 m 1x30
 148 629 l 1
 294 813 l 1
 334 813 l 1
 480 627 l 1
 399 567 l 1
 310 686 l 1
 216 567 l 1x30
EndSplineSet
EndChar

StartChar: Kcommaaccent
Encoding: 310 310 246
Width: 600
GlyphClass: 2
Flags: MW
HStem: -193 219.294 0 21G<45 45 45 164> 720 20G<45 173 173 173>
VStem: 45 119<0 316 423 694 694 697> 246.431 78.031
LayerCount: 2
Fore
SplineSet
45 0 m 1x70
 45 740 l 1
 173 740 l 1
 175 727 l 2
 177 711 167 701 165 698 c 2
 164 697 l 1
 164 694 l 1
 164 423 l 1
 452 747 l 1
 461 745 l 2
 480 740 499 739 519 739 c 2
 584 739 l 1
 290 417 l 1
 599 -1 l 1
 569 -1 l 2
 511 -1 465 -5 465 -5 c 1
 456 -6 l 1
 205 360 l 1
 164 316 l 1
 164 0 l 1
 45 0 l 1x70
254.595703125 26.2939453125 m 1x88
 381.1953125 15.404296875 l 1
 324.461914062 -193 l 1
 246.430664062 -193 l 1
 254.595703125 26.2939453125 l 1x88
EndSplineSet
EndChar

StartChar: kcommaaccent
Encoding: 311 311 247
Width: 600
GlyphClass: 2
Flags: MW
HStem: -193 219.294 -1 21G<74 74 74 190 542 570 570 578 578 611> 526 20G<442 442> 768 20G<74 199 199 199>
VStem: 74 116<-1 213 313 742> 246.431 78.031
LayerCount: 2
Fore
SplineSet
74 -1 m 1x78
 74 788 l 1
 199 788 l 1
 202 776 l 2
 205 760 193 749 192 747 c 2
 191 745 l 1
 191 745 190 744 190 742 c 2
 190 313 l 1
 442 546 l 1
 450 544 l 2
 469 539 490 539 510 539 c 2
 579 539 l 1
 333 319 l 1
 611 -1 l 1
 578 -1 l 1
 570 -1 l 2
 514 -1 469 -5 469 -5 c 1
 461 -6 l 1
 245 264 l 1
 190 213 l 1
 190 -1 l 1
 74 -1 l 1x78
254.595703125 26.2939453125 m 1x84
 381.1953125 15.404296875 l 1
 324.461914062 -193 l 1
 246.430664062 -193 l 1
 254.595703125 26.2939453125 l 1x84
EndSplineSet
EndChar

StartChar: kgreenlandic
Encoding: 312 312 248
Width: 613
GlyphClass: 2
Flags: MW
HStem: -1 21G<74 74 74 190 542 570 570 578 578 611> 522 20G<74 199 199 199>
VStem: 74 116<-1 213 313 496>
LayerCount: 2
Fore
SplineSet
74 -1 m 1
 74 542 l 1
 199 542 l 1
 202 529 l 1
 202 524 l 2
 202 510 192 501 191 499 c 0
 189 497 190 500 190 496 c 2
 190 313 l 1
 442 546 l 1
 450 544 l 2
 469 539 490 539 510 539 c 2
 579 539 l 1
 333 319 l 1
 611 -1 l 1
 578 -1 l 1
 570 -1 l 2
 514 -1 469 -5 469 -5 c 1
 461 -6 l 1
 245 264 l 1
 190 213 l 1
 190 -1 l 1
 74 -1 l 1
EndSplineSet
EndChar

StartChar: Lacute
Encoding: 313 313 249
Width: 613
GlyphClass: 2
Flags: MW
HStem: -1 102<190 547 190 547> 719 20G<74 199 199 199> 780 164
VStem: 74 116<101 686 101 739 101 739> 174 272<853 863>
LayerCount: 2
Fore
SplineSet
74 -1 m 1xd0
 74 739 l 1
 199 739 l 1
 201 726 l 2
 203 713 197 702 195 699 c 0
 191 692 190 694 190 686 c 2
 190 101 l 1
 547 101 l 1
 547 -1 l 1
 74 -1 l 1xd0
174 853 m 1x28
 382 944 l 1
 446 863 l 1
 216 780 l 1
 174 853 l 1x28
EndSplineSet
EndChar

StartChar: lacute
Encoding: 314 314 250
Width: 613
GlyphClass: 2
Flags: MW
HStem: 0 99<88 249 366 525 88 249> 689 99<95 366 95 249> 832 164
VStem: 174 272<905 915> 249 117<99 689 689 689>
LayerCount: 2
Fore
SplineSet
174 905 m 1x30
 382 996 l 1
 446 915 l 1
 216 832 l 1
 174 905 l 1x30
95 689 m 1xc8
 95 788 l 1
 366 788 l 1
 366 99 l 1
 525 99 l 1
 525 0 l 1
 88 0 l 1
 88 99 l 1
 249 99 l 1
 249 689 l 1
 95 689 l 1xc8
EndSplineSet
EndChar

StartChar: Lcommaaccent
Encoding: 315 315 251
Width: 600
GlyphClass: 2
Flags: MW
HStem: -193 219.294 -1 102<190 547 190 547> 719 20G<74 199 199 199>
VStem: 74 116<101 686 101 739 101 739> 246.431 78.031
LayerCount: 2
Fore
SplineSet
74 -1 m 1x70
 74 739 l 1
 199 739 l 1
 201 726 l 2
 203 713 197 702 195 699 c 0
 191 692 190 694 190 686 c 2
 190 101 l 1
 547 101 l 1
 547 -1 l 1
 74 -1 l 1x70
254.595703125 26.2939453125 m 1x88
 381.1953125 15.404296875 l 1
 324.461914062 -193 l 1
 246.430664062 -193 l 1
 254.595703125 26.2939453125 l 1x88
EndSplineSet
EndChar

StartChar: lcommaaccent
Encoding: 316 316 252
Width: 600
GlyphClass: 2
Flags: MW
HStem: -193 219.294 0 99<88 249 366 525 88 249> 689 99<95 366 95 249>
VStem: 246.431 78.031 249 117<99 689 689 689>
LayerCount: 2
Fore
SplineSet
95 689 m 1x68
 95 788 l 1
 366 788 l 1
 366 99 l 1
 525 99 l 1
 525 0 l 1
 88 0 l 1
 88 99 l 1
 249 99 l 1
 249 689 l 1
 95 689 l 1x68
254.595703125 26.2939453125 m 1x90
 381.1953125 15.404296875 l 1
 324.461914062 -193 l 1
 246.430664062 -193 l 1
 254.595703125 26.2939453125 l 1x90
EndSplineSet
EndChar

StartChar: Lcaron
Encoding: 317 317 253
Width: 613
GlyphClass: 2
Flags: MW
HStem: -1 102<190 547 190 547> 484 261.6 719 20G
VStem: 74 116<101 686 101 739 101 739> 425.4 96
LayerCount: 2
Fore
SplineSet
74 -1 m 1xb0
 74 739 l 1
 199 739 l 1
 201 726 l 2
 203 713 197 702 195 699 c 0
 191 692 190 694 190 686 c 2
 190 101 l 1
 547 101 l 1
 547 -1 l 1
 74 -1 l 1xb0
443 745.599609375 m 0x48
 484.599609375 745.599609375 521.400390625 708.799804688 521.400390625 654.400390625 c 0
 521.400390625 606.400390625 484.599609375 551.200195312 417.400390625 492 c 1
 409.400390625 484 l 1
 357.400390625 522.400390625 l 1
 367 530.400390625 l 2
 388.599609375 547.200195312 403.799804688 565.599609375 412.599609375 578.400390625 c 0
 417.400390625 584.799804688 425.400390625 596.799804688 425.400390625 606.400390625 c 0
 425.400390625 616.799804688 417.400390625 621.599609375 408.599609375 626.400390625 c 0
 400.599609375 632 376.599609375 646.400390625 376.599609375 679.200195312 c 0
 376.599609375 714.400390625 404.599609375 745.599609375 443 745.599609375 c 0x48
EndSplineSet
EndChar

StartChar: lcaron
Encoding: 318 318 254
Width: 613
GlyphClass: 2
Flags: MW
HStem: 0 99<68 229 346 505 68 229> 535 261.6 689 99
VStem: 229 117<99 689 689 689> 487.4 96
LayerCount: 2
Fore
SplineSet
75 689 m 1xb0
 75 788 l 1
 346 788 l 1
 346 99 l 1
 505 99 l 1
 505 0 l 1
 68 0 l 1
 68 99 l 1
 229 99 l 1
 229 689 l 1
 75 689 l 1xb0
505 796.599609375 m 0x48
 546.599609375 796.599609375 583.400390625 759.799804688 583.400390625 705.400390625 c 0
 583.400390625 657.400390625 546.599609375 602.200195312 479.400390625 543 c 1
 471.400390625 535 l 1
 419.400390625 573.400390625 l 1
 429 581.400390625 l 2
 450.599609375 598.200195312 465.799804688 616.599609375 474.599609375 629.400390625 c 0
 479.400390625 635.799804688 487.400390625 647.799804688 487.400390625 657.400390625 c 0
 487.400390625 667.799804688 479.400390625 672.599609375 470.599609375 677.400390625 c 0
 462.599609375 683 438.599609375 697.400390625 438.599609375 730.200195312 c 0
 438.599609375 765.400390625 466.599609375 796.599609375 505 796.599609375 c 0x48
EndSplineSet
EndChar

StartChar: Ldot
Encoding: 319 319 255
Width: 600
GlyphClass: 2
Flags: MW
HStem: -1 102<190 547 190 547> 294 167<369.5 416.5> 719 20G<74 199 199 199>
VStem: 74 116<101 686 101 739 101 739> 308 171<354 400>
LayerCount: 2
Fore
SplineSet
74 -1 m 1
 74 739 l 1
 199 739 l 1
 201 726 l 2
 203 713 197 702 195 699 c 0
 191 692 190 694 190 686 c 2
 190 101 l 1
 547 101 l 1
 547 -1 l 1
 74 -1 l 1
393 461 m 0
 440 461 479 423 479 377 c 0
 479 331 440 294 393 294 c 0
 346 294 308 331 308 377 c 0
 308 423 346 461 393 461 c 0
EndSplineSet
EndChar

StartChar: ldot
Encoding: 320 320 256
Width: 600
GlyphClass: 2
Flags: MW
HStem: 0 99<38 199 316 475 38 199> 294 167<469.5 516.5> 689 99<45 316 45 199>
VStem: 199 117<99 689 689 689> 408 171<354 400>
LayerCount: 2
Fore
SplineSet
45 689 m 1
 45 788 l 1
 316 788 l 1
 316 99 l 1
 475 99 l 1
 475 0 l 1
 38 0 l 1
 38 99 l 1
 199 99 l 1
 199 689 l 1
 45 689 l 1
493 461 m 0
 540 461 579 423 579 377 c 0
 579 331 540 294 493 294 c 0
 446 294 408 331 408 377 c 0
 408 423 446 461 493 461 c 0
EndSplineSet
EndChar

StartChar: Lslash
Encoding: 321 321 257
Width: 613
GlyphClass: 2
Flags: MW
HStem: -1 102<199 555 199 555> 719 20G<82 207 207 207>
VStem: 82 117<101 272 272 272 411 686> 82 127<709 721 721 726 709 739 709 739>
LayerCount: 2
Fore
SplineSet
82 373 m 1xe0
 82 739 l 1
 207 739 l 1
 209 726 l 1
 209 721 l 2xd0
 209 697 199 696 199 686 c 2
 199 411 l 1
 375 466 l 2
 386 469 394 472 404 476 c 2
 426 485 l 1
 426 380 l 1
 199 310 l 1
 199 101 l 1
 555 101 l 1
 555 -1 l 1
 82 -1 l 1
 82 272 l 1
 18 252 l 1
 18 353 l 1
 82 373 l 1xe0
EndSplineSet
EndChar

StartChar: lslash
Encoding: 322 322 258
Width: 613
GlyphClass: 2
Flags: MW
HStem: 0 99<88 249 366 525 88 249> 689 99<95 366 95 249>
VStem: 249 117<99 313 313 313 460 689 689 689>
LayerCount: 2
Fore
SplineSet
95 689 m 1
 95 788 l 1
 366 788 l 1
 366 460 l 1
 422 479 l 2
 433 482 439 486 450 494 c 2
 474 511 l 1
 474 388 l 1
 366 353 l 1
 366 99 l 1
 525 99 l 1
 525 0 l 1
 88 0 l 1
 88 99 l 1
 249 99 l 1
 249 313 l 1
 156 283 l 1
 156 388 l 1
 249 419 l 1
 249 689 l 1
 95 689 l 1
EndSplineSet
EndChar

StartChar: Nacute
Encoding: 323 323 259
Width: 613
GlyphClass: 2
Flags: MW
HStem: 0 21G<54 165 54 54> 719 21G 780 164
VStem: 54 111<0 538> 174 272<853 863> 445 111<234 695 -1 740 -1 740>
LayerCount: 2
Fore
SplineSet
165 0 m 1xd4
 54 0 l 1
 54 739 l 1
 159 739 l 1
 445 234 l 1
 445 740 l 1
 562 740 l 1
 564 727 l 2
 566 715 560 706 559 704 c 0
 556 698 556 700 556 695 c 2
 556 -1 l 1
 466 -1 l 1
 165 538 l 1
 165 0 l 1xd4
174 853 m 1x28
 382 944 l 1
 446 863 l 1
 216 780 l 1
 174 853 l 1x28
EndSplineSet
Substitution2: "sous-table 'locl' Formes localis+AOkA-es g+AOkA-ographiquement dans Latin lookup 0" Nacute.pl
EndChar

StartChar: nacute
Encoding: 324 324 260
Width: 613
GlyphClass: 2
Flags: MW
HStem: 0 21G<76 194 76 76 423 423 423 538> 450 105<326 346.5> 522 20G<76 194 194 194> 584 252<315 351>
VStem: 76 118<0 307 476 542> 231 222<635 768> 423 115<0 320 320 326 0 338>
LayerCount: 2
Fore
SplineSet
194 0 m 1xca
 76 0 l 1
 76 542 l 1
 194 542 l 1xaa
 194 476 l 1
 236 522 294 555 358 555 c 0
 426 555 488 519 517 456 c 0
 538 411 538 366 538 326 c 2
 538 0 l 1
 423 0 l 1
 423 320 l 2
 423 356 422 395 397 423 c 0
 381 441 358 450 335 450 c 0
 286 450 236 409 217 385 c 0
 197 360 194 340 194 307 c 2
 194 0 l 1xca
231 635 m 1x14
 351 836 l 1
 453 768 l 1
 315 584 l 1
 231 635 l 1x14
EndSplineSet
Substitution2: "sous-table 'locl' Formes localis+AOkA-es g+AOkA-ographiquement dans Latin lookup 0" nacute.pl
EndChar

StartChar: Ncommaaccent
Encoding: 325 325 261
Width: 600
GlyphClass: 2
Flags: MW
HStem: -193 219.294 0 21G<54 165 54 54> 719 21G
VStem: 54 111<0 538> 246.431 78.031 445 111<234 695 -1 740 -1 740>
LayerCount: 2
Fore
SplineSet
165 0 m 1x74
 54 0 l 1
 54 739 l 1
 159 739 l 1
 445 234 l 1
 445 740 l 1
 562 740 l 1
 564 727 l 2
 566 715 560 706 559 704 c 0
 556 698 556 700 556 695 c 2
 556 -1 l 1
 466 -1 l 1
 165 538 l 1
 165 0 l 1x74
254.595703125 26.2939453125 m 1x88
 381.1953125 15.404296875 l 1
 324.461914062 -193 l 1
 246.430664062 -193 l 1
 254.595703125 26.2939453125 l 1x88
EndSplineSet
EndChar

StartChar: ncommaaccent
Encoding: 326 326 262
Width: 600
GlyphClass: 2
Flags: MW
HStem: -193 219.294 0 21G<76 194 76 76 423 423 423 538> 450 105<326 346.5> 522 20G<76 194 194 194>
VStem: 76 118<0 307 476 542> 246.431 78.031 423 115<0 320 320 326 0 338>
LayerCount: 2
Fore
SplineSet
194 0 m 1x6a
 76 0 l 1
 76 542 l 1
 194 542 l 1x5a
 194 476 l 1
 236 522 294 555 358 555 c 0
 426 555 488 519 517 456 c 0
 538 411 538 366 538 326 c 2
 538 0 l 1
 423 0 l 1
 423 320 l 2
 423 356 422 395 397 423 c 0
 381 441 358 450 335 450 c 0
 286 450 236 409 217 385 c 0
 197 360 194 340 194 307 c 2
 194 0 l 1x6a
254.595703125 26.2939453125 m 1x84
 381.1953125 15.404296875 l 1
 324.461914062 -193 l 1
 246.430664062 -193 l 1
 254.595703125 26.2939453125 l 1x84
EndSplineSet
EndChar

StartChar: Ncaron
Encoding: 327 327 263
Width: 613
GlyphClass: 2
Flags: MW
HStem: 0 21G<54 165 54 54> 719 21G 777 197<189 330 189 294>
VStem: 54 111<0 538> 445 111<234 695 -1 740 -1 740>
LayerCount: 2
Fore
SplineSet
165 0 m 1
 54 0 l 1
 54 739 l 1
 159 739 l 1
 445 234 l 1
 445 740 l 1
 562 740 l 1
 564 727 l 2
 566 715 560 706 559 704 c 0
 556 698 556 700 556 695 c 2
 556 -1 l 1
 466 -1 l 1
 165 538 l 1
 165 0 l 1
450 970 m 1x00
 503 908 l 1
 330 777 l 1
 294 777 l 1
 131 906 l 1
 189 974 l 1
 315 888 l 1
 450 970 l 1x00
EndSplineSet
EndChar

StartChar: ncaron
Encoding: 328 328 264
Width: 613
GlyphClass: 2
Flags: MW
HStem: 0 21G<76 194 76 76 423 423 423 538> 450 105<326 346.5> 522 20G<76 194 194 194> 614 246<228 333 228 293>
VStem: 76 118<0 307 476 542> 147 332<798 800> 423 115<0 320 320 326 0 338>
LayerCount: 2
Fore
SplineSet
194 0 m 1xca
 76 0 l 1
 76 542 l 1
 194 542 l 1xaa
 194 476 l 1
 236 522 294 555 358 555 c 0
 426 555 488 519 517 456 c 0
 538 411 538 366 538 326 c 2
 538 0 l 1
 423 0 l 1
 423 320 l 2
 423 356 422 395 397 423 c 0
 381 441 358 450 335 450 c 0
 286 450 236 409 217 385 c 0
 197 360 194 340 194 307 c 2
 194 0 l 1xca
411 860 m 1x14
 479 798 l 1
 333 614 l 1
 293 614 l 1
 147 800 l 1
 228 860 l 1
 317 741 l 1
 411 860 l 1x14
EndSplineSet
EndChar

StartChar: napostrophe
Encoding: 329 329 265
Width: 613
GlyphClass: 2
Flags: MW
HStem: 0 21G<169 287 169 169 495 495 495 609> 430 327<53 121> 450 105<398.5 418.5> 522 20G<169 287 287 287>
VStem: 73 120<577 677> 169 118<0 307 478 542> 495 114<0 320 320 326 0 338>
LayerCount: 2
Fore
SplineSet
287 0 m 1xa6
 169 0 l 1
 169 542 l 1
 287 542 l 1x96
 287 478 l 1
 323 522 367 555 430 555 c 0
 498 555 559 519 588 456 c 0
 609 411 609 366 609 326 c 2
 609 0 l 1
 495 0 l 1
 495 320 l 2
 495 356 494 395 469 423 c 0
 453 441 430 450 407 450 c 0
 359 450 333 412 311 385 c 0
 291 360 287 340 287 307 c 2
 287 0 l 1xa6
95 757 m 0x48
 147 757 193 711 193 643 c 0
 193 583 147 514 63 440 c 1
 53 430 l 1
 -12 478 l 1
 0 488 l 2
 27 509 46 532 57 548 c 0
 63 556 73 571 73 583 c 0
 73 596 63 602 52 608 c 0
 42 615 12 633 12 674 c 0
 12 718 47 757 95 757 c 0x48
EndSplineSet
EndChar

StartChar: Eng
Encoding: 330 330 266
Width: 613
GlyphClass: 2
Flags: MW
HStem: -12 104<356 380 356 401> 0 21G<55 173 55 55> 647 106<316 355> 719 20G<55 173 173 173>
VStem: 55 118<0 482 673 739> 443 115<211 214 214 494 494 498>
LayerCount: 2
Fore
SplineSet
173 0 m 1x6c
 55 0 l 1
 55 739 l 1
 173 739 l 1x5c
 173 673 l 1
 219 722 282 753 350 753 c 0
 428 753 500 712 534 640 c 0
 557 591 558 543 558 498 c 2
 558 214 l 2
 558 175 557 133 536 90 c 0
 505 24 438 -12 364 -12 c 0
 325 -12 285 -2 251 19 c 2
 238 26 l 1
 295 126 l 1
 309 119 l 2
 318 114 322 105 323 104 c 0
 328 101 346 92 366 92 c 0xac
 394 92 419 106 432 133 c 0
 443 156 443 185 443 211 c 2
 443 494 l 2
 443 527 444 562 427 592 c 0
 409 628 375 647 335 647 c 0
 279 647 222 603 197 570 c 0
 177 542 173 518 173 482 c 2
 173 0 l 1x6c
EndSplineSet
EndChar

StartChar: eng
Encoding: 331 331 267
Width: 613
GlyphClass: 2
Flags: MW
HStem: -209 111<310.5 338 310.5 362.5> 0 21G<76 194 76 76> 450 105<326 346.5> 522 20G<76 194 194 194>
VStem: 76 118<0 307 476 542> 423 115<62 75 75 319 319 325>
LayerCount: 2
Fore
SplineSet
194 0 m 1xec
 76 0 l 1
 76 542 l 1
 194 542 l 1xdc
 194 476 l 1
 236 522 294 555 358 555 c 0
 426 555 488 518 517 455 c 0
 538 410 538 365 538 325 c 2
 538 75 l 2
 538 28 537 -23 515 -74 c 0
 480 -161 403 -209 322 -209 c 0
 277 -209 232 -194 196 -166 c 2
 186 -158 l 1
 239 -56 l 1
 250 -59 l 2
 267 -63 270 -79 270 -80 c 0
 276 -85 297 -98 324 -98 c 0
 352 -98 380 -85 399 -55 c 0
 422 -22 423 22 423 62 c 2
 423 319 l 2
 423 355 422 395 397 423 c 0
 381 442 358 450 335 450 c 0
 286 450 236 409 217 385 c 0
 197 360 194 340 194 307 c 2
 194 0 l 1xec
EndSplineSet
EndChar

StartChar: Omacron
Encoding: 332 332 268
Width: 600
GlyphClass: 2
Flags: MW
HStem: -11 111<276 334 276 355> 639 109<274.5 331> 837 97<141 473 141 473>
VStem: 30 112<271.5 483 271.5 514> 141 332<837 934 837 934> 471 114<336.5 387.5>
LayerCount: 2
Fore
SplineSet
538 606 m 0xd4
 580 526 585 435 585 368 c 0
 585 305 580 214 539 134 c 0
 488 35 398 -11 312 -11 c 0
 189 -11 30 86 30 371 c 0
 30 657 192 748 311 748 c 0
 397 748 487 702 538 606 c 0xd4
443 538 m 0
 411 614 354 639 308 639 c 0
 241 639 142 585 142 381 c 0
 142 162 240 100 312 100 c 0
 356 100 408 124 440 187 c 0
 468 244 471 313 471 358 c 0
 471 417 467 482 443 538 c 0
141 837 m 1x28
 141 934 l 1
 473 934 l 1
 473 837 l 1
 141 837 l 1x28
EndSplineSet
EndChar

StartChar: omacron
Encoding: 333 333 269
Width: 613
GlyphClass: 2
Flags: MW
HStem: -14 104<275 347.5 275 381> 451 103<272.5 343> 640 97<141 473 141 473>
VStem: 43 121<215 332.5 215 350> 141 332<640 737 640 737> 455 117<205 331>
LayerCount: 2
Fore
SplineSet
315 554 m 0xd4
 447 554 572 453 572 269 c 0
 572 92 450 -14 312 -14 c 0
 166 -14 43 103 43 267 c 0
 43 433 167 554 315 554 c 0xd4
455 265 m 0
 455 397 377 451 309 451 c 0
 236 451 164 391 164 274 c 0
 164 156 237 90 313 90 c 0
 382 90 455 145 455 265 c 0
141 640 m 1x28
 141 737 l 1
 473 737 l 1
 473 640 l 1
 141 640 l 1x28
EndSplineSet
EndChar

StartChar: Obreve
Encoding: 334 334 270
Width: 600
GlyphClass: 2
Flags: MW
HStem: -11 111<276 334 276 355> 639 109<274.5 331> 766 92<270.5 317.5 270.5 335> 918 20G<163 163>
VStem: 30 112<271.5 483 271.5 514> 471 114<336.5 387.5>
LayerCount: 2
Fore
SplineSet
538 606 m 0
 580 526 585 435 585 368 c 0
 585 305 580 214 539 134 c 0
 488 35 398 -11 312 -11 c 0
 189 -11 30 86 30 371 c 0
 30 657 192 748 311 748 c 0
 397 748 487 702 538 606 c 0
443 538 m 0
 411 614 354 639 308 639 c 0
 241 639 142 585 142 381 c 0
 142 162 240 100 312 100 c 0
 356 100 408 124 440 187 c 0
 468 244 471 313 471 358 c 0
 471 417 467 482 443 538 c 0
163 938 m 1
 175 920 l 2
 200 888 245 858 296 858 c 0
 339 858 385 880 424 920 c 1
 437 937 l 1
 489 867 l 1
 483 859 l 2
 441 806 374 766 296 766 c 0
 226 766 156 800 107 855 c 2
 99 864 l 1
 163 938 l 1
EndSplineSet
EndChar

StartChar: obreve
Encoding: 335 335 271
Width: 600
GlyphClass: 2
Flags: MW
HStem: -14 104<275 347.5 275 381> 451 103<272.5 343> 606 92<291.5 338.5 291.5 356> 758 20G<184 184>
VStem: 43 121<215 332.5 215 350> 455 117<205 331>
LayerCount: 2
Fore
SplineSet
315 554 m 0
 447 554 572 453 572 269 c 0
 572 92 450 -14 312 -14 c 0
 166 -14 43 103 43 267 c 0
 43 433 167 554 315 554 c 0
455 265 m 0
 455 397 377 451 309 451 c 0
 236 451 164 391 164 274 c 0
 164 156 237 90 313 90 c 0
 382 90 455 145 455 265 c 0
184 778 m 1
 196 760 l 2
 221 728 266 698 317 698 c 0
 360 698 406 720 445 760 c 1
 458 777 l 1
 510 707 l 1
 504 699 l 2
 462 646 395 606 317 606 c 0
 247 606 177 640 128 695 c 2
 120 704 l 1
 184 778 l 1
EndSplineSet
EndChar

StartChar: Ohungarumlaut
Encoding: 336 336 272
Width: 613
GlyphClass: 2
Flags: MW
HStem: -11 111<276 334 276 355> 639 109<274.5 331> 759 210<155 279 279 387>
VStem: 30 112<271.5 483 271.5 514> 471 114<336.5 387.5>
LayerCount: 2
Fore
SplineSet
538 606 m 0
 580 526 585 435 585 368 c 0
 585 305 580 214 539 134 c 0
 488 35 398 -11 312 -11 c 0
 189 -11 30 86 30 371 c 0
 30 657 192 748 311 748 c 0
 397 748 487 702 538 606 c 0
443 538 m 0
 411 614 354 639 308 639 c 0
 241 639 142 585 142 381 c 0
 142 162 240 100 312 100 c 0
 356 100 408 124 440 187 c 0
 468 244 471 313 471 358 c 0
 471 417 467 482 443 538 c 0
332 800 m 1
 510 969 l 1
 585 866 l 1
 387 759 l 1
 332 800 l 1
100 800 m 1
 279 969 l 1
 353 866 l 1
 155 759 l 1
 100 800 l 1
EndSplineSet
EndChar

StartChar: ohungarumlaut
Encoding: 337 337 273
Width: 613
GlyphClass: 2
Flags: MW
HStem: -14 104<275 347.5 275 381> 451 103<272.5 343> 584 252<223 259 259 407>
VStem: 43 121<215 332.5 215 350> 139 222<635 768> 323 222<635 768> 455 117<205 331>
LayerCount: 2
Fore
SplineSet
315 554 m 0xd2
 447 554 572 453 572 269 c 0
 572 92 450 -14 312 -14 c 0
 166 -14 43 103 43 267 c 0
 43 433 167 554 315 554 c 0xd2
455 265 m 0
 455 397 377 451 309 451 c 0
 236 451 164 391 164 274 c 0
 164 156 237 90 313 90 c 0
 382 90 455 145 455 265 c 0
323 635 m 1x24
 443 836 l 1
 545 768 l 1
 407 584 l 1
 323 635 l 1x24
139 635 m 1x28
 259 836 l 1
 361 768 l 1
 223 584 l 1
 139 635 l 1x28
EndSplineSet
EndChar

StartChar: OE
Encoding: 338 338 274
Width: 613
GlyphClass: 2
Flags: MW
HStem: -8 103<212 227> 0 104<399 597 399 597> 333 106<399 569 399 569> 636 104<399 600 399 399> 650 100<200.5 228 186 232.5>
VStem: 6 107<368 419> 294 105<0 333 17 333 167 333 439 563 563 563>
LayerCount: 2
Fore
SplineSet
213 750 m 0xae
 243 750 271 740 295 724 c 1
 295 740 l 1
 600 740 l 1
 600 636 l 1
 399 636 l 1
 399 439 l 1
 569 439 l 1
 569 333 l 1
 399 333 l 1
 399 104 l 1
 597 104 l 1
 597 0 l 1
 294 0 l 1x76
 294 17 l 1
 270 0 242 -8 212 -8 c 0
 146 -8 68 36 33 147 c 0
 29 162 6 236 6 371 c 0
 6 467 14 551 47 626 c 0
 88 718 159 750 213 750 c 0xae
135 571 m 0
 127 552 113 501 113 384 c 0
 113 352 113 237 144 164 c 0
 169 106 202 95 222 95 c 0
 254 95 283 123 294 167 c 1
 294 563 l 1
 281 603 252 650 213 650 c 0xae
 188 650 156 630 135 571 c 0
EndSplineSet
EndChar

StartChar: oe
Encoding: 339 339 275
Width: 613
GlyphClass: 2
Flags: MW
HStem: -14 94<427 463 427 476> -13 103<189 214.5> 247 98<338 506 338 607 337 506> 451 102<188 213.5>
VStem: 2 102<272 305.5 272 306> 243 95<345 427.5> 506 101<247 350 247 364>
LayerCount: 2
Fore
SplineSet
125 396 m 0x7e
 107 361 104 321 104 290 c 0
 104 254 107 201 121 160 c 0
 139 105 175 90 203 90 c 0
 229 90 248 103 248 118 c 0
 248 127 232 184 232 280 c 0
 232 362 243 406 243 418 c 0
 243 437 226 451 201 451 c 0
 175 451 144 434 125 396 c 0x7e
349 410 m 0
 347 403 339 383 338 345 c 1
 506 345 l 1
 506 350 l 2
 506 378 505 404 490 424 c 1
 490 425 l 1
 489 425 l 1
 475 447 449 458 423 458 c 0
 397 458 365 447 349 410 c 0
38 452 m 0
 75 520 140 553 202 553 c 0
 245 553 285 536 313 506 c 1
 346 537 388 553 432 553 c 0
 493 553 561 523 590 446 c 0
 605 405 607 359 607 315 c 2
 607 247 l 1
 337 247 l 1
 338 184 342 159 353 136 c 0
 371 97 407 80 447 80 c 0
 479 80 516 90 543 119 c 2
 555 132 l 1
 618 60 l 1
 608 51 l 2
 565 10 507 -14 445 -14 c 0xbe
 396 -14 350 1 311 30 c 1
 277 2 236 -13 193 -13 c 0
 141 -13 75 12 36 86 c 0
 5 146 2 220 2 280 c 0
 2 332 6 396 38 452 c 0
EndSplineSet
EndChar

StartChar: Racute
Encoding: 340 340 276
Width: 613
GlyphClass: 2
Flags: MW
HStem: 0 21G<61 61 61 176 458 458 458 586> 311 104<176 295 176 304> 631 108<176 295 176 176> 780 164
VStem: 61 115<0 311 0 415 415 631> 174 272<853 863> 440 116<500.5 540>
LayerCount: 2
Fore
SplineSet
61 0 m 1xea
 61 739 l 1
 295 739 l 2
 343 739 393 739 443 714 c 0
 517 678 556 606 556 530 c 0
 556 436 498 354 412 323 c 1
 586 0 l 1
 458 0 l 1
 295 311 l 1
 176 311 l 1
 176 0 l 1
 61 0 l 1xea
295 631 m 2
 176 631 l 1
 176 415 l 1
 304 415 l 2
 333 415 358 415 383 427 c 0
 420 444 440 481 440 520 c 0
 440 560 419 598 379 617 c 0
 352 629 326 631 295 631 c 2
174 853 m 1x14
 382 944 l 1
 446 863 l 1
 216 780 l 1
 174 853 l 1x14
EndSplineSet
EndChar

StartChar: racute
Encoding: 341 341 277
Width: 613
GlyphClass: 2
Flags: MW
HStem: -1 21G<113 113 113 229> 451 104<386.5 424> 522 20G<113 233 233 233> 584 252<315 351>
VStem: 113 116<-1 261 -1 542> 231 222<635 768>
LayerCount: 2
Fore
SplineSet
113 -1 m 1xc8
 113 542 l 1
 233 542 l 1xa8
 231 477 l 1
 277 530 343 555 409 555 c 0
 474 555 528 529 565 491 c 2
 573 483 l 1
 519 373 l 1
 503 387 l 2
 491 398 487 409 482 416 c 0
 469 432 444 451 404 451 c 0
 369 451 311 440 265 372 c 0
 230 320 229 291 229 261 c 2
 229 -1 l 1
 113 -1 l 1xc8
231 635 m 1x14
 351 836 l 1
 453 768 l 1
 315 584 l 1
 231 635 l 1x14
EndSplineSet
EndChar

StartChar: Rcommaaccent
Encoding: 342 342 278
Width: 600
GlyphClass: 2
Flags: MW
HStem: -193 219.294 0 21G<61 61 61 176 458 458 458 586> 311 104<176 295 176 304> 631 108<176 295 176 176>
VStem: 61 115<0 311 0 415 415 631> 246.431 78.031 440 116<500.5 540>
LayerCount: 2
Fore
SplineSet
61 0 m 1x7a
 61 739 l 1
 295 739 l 2
 343 739 393 739 443 714 c 0
 517 678 556 606 556 530 c 0
 556 436 498 354 412 323 c 1
 586 0 l 1
 458 0 l 1
 295 311 l 1
 176 311 l 1
 176 0 l 1
 61 0 l 1x7a
295 631 m 2
 176 631 l 1
 176 415 l 1
 304 415 l 2
 333 415 358 415 383 427 c 0
 420 444 440 481 440 520 c 0
 440 560 419 598 379 617 c 0
 352 629 326 631 295 631 c 2
254.595703125 26.2939453125 m 1x84
 381.1953125 15.404296875 l 1
 324.461914062 -193 l 1
 246.430664062 -193 l 1
 254.595703125 26.2939453125 l 1x84
EndSplineSet
EndChar

StartChar: rcommaaccent
Encoding: 343 343 279
Width: 600
GlyphClass: 2
Flags: MW
HStem: -193 219.294 -1 21G<113 113 113 229> 451 104<386.5 424> 522 20G<113 233 233 233>
VStem: 113 116<-1 261 -1 542> 246.431 78.031
LayerCount: 2
Fore
SplineSet
113 -1 m 1x68
 113 542 l 1
 233 542 l 1x58
 231 477 l 1
 277 530 343 555 409 555 c 0
 474 555 528 529 565 491 c 2
 573 483 l 1
 519 373 l 1
 503 387 l 2
 491 398 487 409 482 416 c 0
 469 432 444 451 404 451 c 0
 369 451 311 440 265 372 c 0
 230 320 229 291 229 261 c 2
 229 -1 l 1
 113 -1 l 1x68
254.595703125 26.2939453125 m 1x84
 381.1953125 15.404296875 l 1
 324.461914062 -193 l 1
 246.430664062 -193 l 1
 254.595703125 26.2939453125 l 1x84
EndSplineSet
EndChar

StartChar: Rcaron
Encoding: 344 344 280
Width: 613
GlyphClass: 2
Flags: MW
HStem: 0 21G<61 61 61 176 458 458 458 586> 311 104<176 295 176 304> 631 108<176 295 176 176> 777 197<189 330 189 294>
VStem: 61 115<0 311 0 415 415 631> 440 116<500.5 540>
LayerCount: 2
Fore
SplineSet
61 0 m 1
 61 739 l 1
 295 739 l 2
 343 739 393 739 443 714 c 0
 517 678 556 606 556 530 c 0
 556 436 498 354 412 323 c 1
 586 0 l 1
 458 0 l 1
 295 311 l 1
 176 311 l 1
 176 0 l 1
 61 0 l 1
295 631 m 2
 176 631 l 1
 176 415 l 1
 304 415 l 2
 333 415 358 415 383 427 c 0
 420 444 440 481 440 520 c 0
 440 560 419 598 379 617 c 0
 352 629 326 631 295 631 c 2
450 970 m 1x00
 503 908 l 1
 330 777 l 1
 294 777 l 1
 131 906 l 1
 189 974 l 1
 315 888 l 1
 450 970 l 1x00
EndSplineSet
EndChar

StartChar: rcaron
Encoding: 345 345 281
Width: 613
GlyphClass: 2
Flags: MW
HStem: -1 21G<113 113 113 229> 451 104<386.5 424> 522 20G<113 233 233 233> 614 246<228 333 228 293>
VStem: 113 116<-1 261 -1 542> 147 332<798 800>
LayerCount: 2
Fore
SplineSet
113 -1 m 1xc8
 113 542 l 1
 233 542 l 1xa8
 231 477 l 1
 277 530 343 555 409 555 c 0
 474 555 528 529 565 491 c 2
 573 483 l 1
 519 373 l 1
 503 387 l 2
 491 398 487 409 482 416 c 0
 469 432 444 451 404 451 c 0
 369 451 311 440 265 372 c 0
 230 320 229 291 229 261 c 2
 229 -1 l 1
 113 -1 l 1xc8
411 860 m 1x14
 479 798 l 1
 333 614 l 1
 293 614 l 1
 147 800 l 1
 228 860 l 1
 317 741 l 1
 411 860 l 1x14
EndSplineSet
EndChar

StartChar: Sacute
Encoding: 346 346 282
Width: 613
GlyphClass: 2
Flags: MW
HStem: -12 105<268 356 268 398.5> 547 21G<480 480> 644 99<276 347> 780 164
VStem: 81 116<543 577.5 543 601> 174 272<853 863> 452 114<180.5 220.5>
LayerCount: 2
Fore
SplineSet
538 646 m 2xea
 546 637 l 1
 480 547 l 1
 470 551 l 2
 462 553 453 561 453 574 c 0
 453 576 452 578 452 578 c 1
 425 616 379 644 315 644 c 0
 237 644 197 600 197 555 c 0
 197 531 206 495 264 463 c 0
 328 427 434 407 503 345 c 0
 553 300 566 246 566 206 c 0
 566 110 493 -12 304 -12 c 0
 209 -12 121 21 60 88 c 2
 53 96 l 1
 115 204 l 1
 128 197 l 2
 143 189 142 173 142 172 c 2
 142 169 l 1
 172 131 230 93 306 93 c 0
 406 93 452 154 452 207 c 0
 452 234 442 266 398 292 c 0
 346 323 237 347 165 398 c 0
 99 444 81 503 81 548 c 0
 81 654 181 743 321 743 c 0
 406 743 485 709 538 646 c 2xea
174 853 m 1x14
 382 944 l 1
 446 863 l 1
 216 780 l 1
 174 853 l 1x14
EndSplineSet
Substitution2: "sous-table 'locl' Formes localis+AOkA-es g+AOkA-ographiquement dans Latin lookup 0" Sacute.pl
EndChar

StartChar: sacute
Encoding: 347 347 283
Width: 613
GlyphClass: 2
Flags: MW
HStem: -12 102<264 343 262 384> 460 95<284.5 349> 584 252<315 351>
VStem: 97 118<399.5 419 399.5 442.5> 231 222<635 768> 429 119<139 162.5>
LayerCount: 2
Fore
SplineSet
535 465 m 2xd4
 543 456 l 1
 480 362 l 1
 470 365 l 2
 463 367 452 375 452 390 c 2
 452 392 l 1
 433 417 384 460 314 460 c 0
 255 460 215 433 215 405 c 0
 215 394 220 374 260 356 c 0
 307 335 395 323 460 289 c 0
 529 253 548 200 548 161 c 0
 548 74 461 -12 307 -12 c 0
 221 -12 134 16 67 78 c 2
 58 86 l 1
 121 194 l 1
 133 188 l 2
 150 180 148 162 148 162 c 2
 148 161 147 160 147 160 c 1
 163 142 219 90 305 90 c 0
 381 90 429 122 429 156 c 0
 429 169 424 190 384 208 c 0
 346 225 286 238 239 254 c 0
 212 263 97 298 97 399 c 0
 97 486 190 555 321 555 c 0
 405 555 482 524 535 465 c 2xd4
231 635 m 1x28
 351 836 l 1
 453 768 l 1
 315 584 l 1
 231 635 l 1x28
EndSplineSet
Substitution2: "sous-table 'locl' Formes localis+AOkA-es g+AOkA-ographiquement dans Latin lookup 0" sacute.pl
EndChar

StartChar: Scircumflex
Encoding: 348 348 284
Width: 600
GlyphClass: 2
Flags: MW
HStem: -12 105<268 356 268 398.5> 547 21G<480 480> 644 99<276 347> 739 197<295 436>
VStem: 81 116<543 577.5 543 601> 452 114<180.5 220.5>
LayerCount: 2
Fore
SplineSet
538 646 m 2xec
 546 637 l 1
 480 547 l 1
 470 551 l 2
 462 553 453 561 453 574 c 0
 453 576 452 578 452 578 c 1
 425 616 379 644 315 644 c 0
 237 644 197 600 197 555 c 0
 197 531 206 495 264 463 c 0
 328 427 434 407 503 345 c 0
 553 300 566 246 566 206 c 0
 566 110 493 -12 304 -12 c 0
 209 -12 121 21 60 88 c 2
 53 96 l 1
 115 204 l 1
 128 197 l 2
 143 189 142 173 142 172 c 2
 142 169 l 1
 172 131 230 93 306 93 c 0
 406 93 452 154 452 207 c 0
 452 234 442 266 398 292 c 0
 346 323 237 347 165 398 c 0
 99 444 81 503 81 548 c 0
 81 654 181 743 321 743 c 0
 406 743 485 709 538 646 c 2xec
175 743 m 1x10
 122 805 l 1
 295 936 l 1
 331 936 l 1
 494 807 l 1
 436 739 l 1
 310 825 l 1
 175 743 l 1x10
EndSplineSet
EndChar

StartChar: scircumflex
Encoding: 349 349 285
Width: 600
GlyphClass: 2
Flags: MW
HStem: -12 102<264 343 262 384> 460 95<284.5 349> 567 246<216 334 294 399>
VStem: 97 118<399.5 419 399.5 442.5> 148 332<161.5 362 362 629> 429 119<139 162.5>
LayerCount: 2
Fore
SplineSet
535 465 m 2xd4
 543 456 l 1
 480 362 l 1
 470 365 l 2
 463 367 452 375 452 390 c 2
 452 392 l 1
 433 417 384 460 314 460 c 0
 255 460 215 433 215 405 c 0
 215 394 220 374 260 356 c 0
 307 335 395 323 460 289 c 0
 529 253 548 200 548 161 c 0
 548 74 461 -12 307 -12 c 0
 221 -12 134 16 67 78 c 2
 58 86 l 1
 121 194 l 1
 133 188 l 2
 150 180 148 162 148 162 c 2
 148 161 147 160 147 160 c 1
 163 142 219 90 305 90 c 0
 381 90 429 122 429 156 c 0
 429 169 424 190 384 208 c 0
 346 225 286 238 239 254 c 0
 212 263 97 298 97 399 c 0
 97 486 190 555 321 555 c 0
 405 555 482 524 535 465 c 2xd4
216 567 m 1x28
 148 629 l 1
 294 813 l 1
 334 813 l 1
 480 627 l 1
 399 567 l 1
 310 686 l 1
 216 567 l 1x28
EndSplineSet
EndChar

